<svg width="18" height="15" viewBox="0 0 18 15" fill="none" xmlns="http://www.w3.org/2000/svg">
<path d="M1.99414 6.50009C1.44186 6.50009 0.994141 6.94781 0.994141 7.50009C0.994141 8.05238 1.44186 8.50009 1.99414 8.50009L1.99414 6.50009ZM17.7012 8.2072C18.0918 7.81667 18.0918 7.18351 17.7012 6.79298L11.3373 0.429024C10.9468 0.0384993 10.3136 0.0384993 9.92307 0.429024C9.53255 0.819548 9.53255 1.45271 9.92307 1.84324L15.5799 7.50009L9.92307 13.1569C9.53255 13.5475 9.53255 14.1806 9.92307 14.5712C10.3136 14.9617 10.9468 14.9617 11.3373 14.5712L17.7012 8.2072ZM1.99414 8.50009L16.9941 8.50009L16.9941 6.50009L1.99414 6.50009L1.99414 8.50009Z" fill="#282A31"/>
</svg>
