<svg width="8" height="10" viewBox="0 0 8 10" fill="none" xmlns="http://www.w3.org/2000/svg">
<path d="M4.49487 1C4.49487 0.723858 4.27102 0.5 3.99487 0.5C3.71873 0.5 3.49487 0.723858 3.49487 1L4.49487 1ZM3.64132 9.35355C3.83658 9.54882 4.15316 9.54882 4.34843 9.35355L7.53041 6.17157C7.72567 5.97631 7.72567 5.65973 7.53041 5.46447C7.33514 5.2692 7.01856 5.2692 6.8233 5.46447L3.99487 8.29289L1.16645 5.46447C0.971183 5.2692 0.654601 5.2692 0.459339 5.46447C0.264076 5.65973 0.264076 5.97631 0.459338 6.17157L3.64132 9.35355ZM3.49487 1L3.49487 9L4.49487 9L4.49487 1L3.49487 1Z" fill="#282A31"/>
</svg>
