<svg width="43" height="42" viewBox="0 0 43 42" fill="none" xmlns="http://www.w3.org/2000/svg">
<path d="M13.2441 22.75L13.2441 24.5001L14.9954 24.5001L14.9942 22.75L13.2441 22.75Z" fill="#3582F6"/>
<path d="M34.2441 4.375L31.6191 4.375L31.6191 5.25003C31.618 6.17797 31.249 7.0676 30.5928 7.72375C29.9367 8.3799 29.047 8.74899 28.1191 8.75006L15.8691 8.75006C14.9412 8.74897 14.0516 8.37987 13.3954 7.72372C12.7393 7.06757 12.3702 6.17795 12.3692 5.25003L12.3692 4.375L9.74417 4.375C8.81623 4.37606 7.9266 4.74516 7.27045 5.40131C6.6143 6.05746 6.2452 6.94709 6.24414 7.87503L6.24414 36.75C6.2452 37.678 6.6143 38.5676 7.27045 39.2237C7.9266 39.8799 8.81623 40.249 9.74417 40.25L34.2441 40.2501C35.172 40.249 36.0617 39.8799 36.7178 39.2237C37.374 38.5676 37.7431 37.678 37.7441 36.75L37.7441 7.87503C37.7431 6.94709 37.374 6.05746 36.7178 5.40131C36.0617 4.74516 35.1721 4.37607 34.2441 4.375ZM16.7441 32.3751C16.7436 32.839 16.5591 33.2838 16.231 33.6119C15.903 33.94 15.4581 34.1245 14.9942 34.125L13.2441 34.125C12.7801 34.1245 12.3353 33.94 12.0072 33.6119C11.6792 33.2838 11.4946 32.839 11.4941 32.3751L11.4941 30.625C11.4946 30.161 11.6792 29.7162 12.0072 29.3881C12.3353 29.0601 12.7801 28.8755 13.2441 28.875L14.9941 28.875C15.4581 28.8755 15.9029 29.06 16.231 29.3881C16.5591 29.7162 16.7436 30.161 16.7441 30.625L16.7441 32.3751ZM16.7441 24.5001C16.7436 24.964 16.5591 25.4088 16.231 25.7369C15.903 26.065 15.4581 26.2495 14.9942 26.25L13.2441 26.25C12.7801 26.2495 12.3353 26.065 12.0072 25.7369C11.6792 25.4088 11.4946 24.964 11.4941 24.5001L11.4941 22.75C11.4946 22.286 11.6792 21.8412 12.0072 21.5131C12.3353 21.1851 12.7801 21.0005 13.2441 21L14.9941 21C15.4581 21.0005 15.9029 21.185 16.231 21.5131C16.5591 21.8412 16.7436 22.286 16.7441 22.75L16.7441 24.5001ZM16.7441 16.6251C16.7436 17.089 16.5591 17.5338 16.231 17.8619C15.903 18.19 15.4581 18.3745 14.9942 18.375L13.2441 18.375C12.7801 18.3745 12.3353 18.19 12.0072 17.8619C11.6792 17.5338 11.4946 17.089 11.4941 16.6251L11.4941 14.875C11.4946 14.411 11.6792 13.9662 12.0072 13.6381C12.3353 13.3101 12.7801 13.1255 13.2441 13.125L14.9941 13.125C15.4581 13.1255 15.9029 13.31 16.231 13.6381C16.5591 13.9662 16.7436 14.411 16.7441 14.875L16.7441 16.6251ZM31.6191 32.3751L19.3691 32.3751C19.2535 32.3762 19.1388 32.3544 19.0317 32.3109C18.9245 32.2674 18.8271 32.2032 18.7449 32.1218C18.6628 32.0404 18.5976 31.9436 18.5531 31.8369C18.5086 31.7302 18.4856 31.6157 18.4856 31.5001C18.4856 31.3844 18.5086 31.27 18.5531 31.1633C18.5976 31.0565 18.6628 30.9597 18.7449 30.8783C18.8271 30.797 18.9245 30.7327 19.0317 30.6892C19.1388 30.6458 19.2535 30.624 19.3691 30.6251L31.6191 30.6251C31.8497 30.6273 32.0701 30.7205 32.2324 30.8843C32.3946 31.0482 32.4857 31.2695 32.4857 31.5001C32.4857 31.7307 32.3946 31.952 32.2324 32.1158C32.0701 32.2796 31.8497 32.3728 31.6191 32.3751ZM31.6191 24.5001L19.3691 24.5001C19.2535 24.5012 19.1388 24.4794 19.0317 24.4359C18.9245 24.3924 18.8271 24.3282 18.7449 24.2468C18.6628 24.1654 18.5976 24.0686 18.5531 23.9619C18.5086 23.8552 18.4856 23.7407 18.4856 23.6251C18.4856 23.5094 18.5086 23.395 18.5531 23.2883C18.5976 23.1815 18.6628 23.0847 18.7449 23.0033C18.8271 22.922 18.9245 22.8577 19.0317 22.8142C19.1388 22.7708 19.2535 22.749 19.3691 22.7501L31.6191 22.7501C31.7347 22.749 31.8494 22.7708 31.9566 22.8142C32.0637 22.8577 32.1612 22.922 32.2433 23.0033C32.3255 23.0847 32.3907 23.1815 32.4352 23.2883C32.4797 23.395 32.5026 23.5094 32.5026 23.6251C32.5026 23.7407 32.4797 23.8552 32.4352 23.9619C32.3907 24.0686 32.3255 24.1654 32.2433 24.2468C32.1612 24.3282 32.0637 24.3924 31.9566 24.4359C31.8494 24.4794 31.7347 24.5012 31.6191 24.5001ZM31.6191 16.6251L19.3691 16.6251C19.2535 16.6262 19.1388 16.6044 19.0317 16.5609C18.9245 16.5174 18.8271 16.4532 18.7449 16.3718C18.6628 16.2904 18.5976 16.1936 18.5531 16.0869C18.5086 15.9802 18.4856 15.8657 18.4856 15.7501C18.4856 15.6344 18.5086 15.52 18.5531 15.4133C18.5976 15.3065 18.6628 15.2097 18.7449 15.1283C18.8271 15.047 18.9245 14.9827 19.0317 14.9392C19.1388 14.8958 19.2535 14.874 19.3691 14.8751L31.6191 14.8751C31.7347 14.874 31.8494 14.8958 31.9566 14.9392C32.0637 14.9827 32.1612 15.047 32.2433 15.1283C32.3255 15.2097 32.3907 15.3065 32.4352 15.4133C32.4797 15.52 32.5026 15.6344 32.5026 15.7501C32.5026 15.8657 32.4797 15.9802 32.4352 16.0869C32.3907 16.1936 32.3255 16.2904 32.2433 16.3718C32.1612 16.4532 32.0637 16.5174 31.9566 16.5609C31.8494 16.6044 31.7347 16.6262 31.6191 16.6251Z" fill="#3582F6"/>
<path d="M13.2441 14.875L13.2441 16.6251L14.9954 16.6251L14.9942 14.875L13.2441 14.875Z" fill="#3582F6"/>
<path d="M13.2441 30.625L13.2441 32.3751L14.9954 32.3751L14.9942 30.625L13.2441 30.625Z" fill="#3582F6"/>
<path d="M28.1192 1.75L15.8691 1.75C14.9026 1.75 14.1191 2.53349 14.1191 3.49997L14.1191 5.25003C14.1191 6.21651 14.9026 7 15.8691 7L28.1192 7C29.0857 7 29.8691 6.21651 29.8691 5.25003L29.8691 3.49997C29.8691 2.53349 29.0857 1.75 28.1192 1.75Z" fill="#3582F6"/>
</svg>
