<svg width="43" height="34" viewBox="0 0 43 34" fill="none" xmlns="http://www.w3.org/2000/svg">
<path d="M7.41939 0.956299C7.41826 0.956299 7.41698 0.956299 7.41585 0.956299C7.01862 0.956299 6.645 1.11115 6.36288 1.39256C6.07764 1.67709 5.92053 2.05594 5.92053 2.45925L5.92053 24.9958C5.92053 25.8222 6.5955 26.4962 7.42532 26.4983C10.9236 26.5067 16.7847 27.2358 20.828 31.4671L20.828 7.88194C20.828 7.6018 20.7565 7.33862 20.6214 7.12085C17.3029 1.7765 10.9256 0.964501 7.41939 0.956299Z" fill="#3582F6"/>
<path d="M38.0689 24.9959L38.0689 2.45925C38.0689 2.05594 37.9118 1.67709 37.6266 1.39256C37.3445 1.11115 36.9706 0.9563 36.5737 0.9563C36.5725 0.9563 36.5712 0.9563 36.5701 0.9563C33.064 0.964643 26.6867 1.77665 23.368 7.12099C23.233 7.33877 23.1616 7.60194 23.1616 7.88208L23.1616 31.4671C27.2049 27.2358 33.066 26.5067 36.5643 26.4983C37.3939 26.4962 38.0689 25.8222 38.0689 24.9959Z" fill="#3582F6"/>
<path d="M41.492 6.15381L40.4023 6.15381L40.4023 24.996C40.4023 27.1061 38.6831 28.8267 36.5698 28.8319C33.6025 28.839 28.7098 29.4192 25.2447 32.6987C31.2376 31.2314 37.5552 32.1853 41.1556 33.0058C41.6051 33.1081 42.0697 33.0024 42.4299 32.7153C42.7888 32.4289 42.9947 32.0009 42.9947 31.5414L42.9947 7.65648C42.9948 6.82793 42.3206 6.15381 41.492 6.15381Z" fill="#3582F6"/>
<path d="M3.58704 24.996L3.58704 6.15381L2.4973 6.15381C1.66889 6.15381 0.994629 6.82793 0.994629 7.65648L0.994627 31.541C0.994627 32.0006 1.20053 32.4285 1.55944 32.7149C1.91934 33.0018 2.38346 33.108 2.83372 33.0053C6.43414 32.1847 12.7518 31.231 18.7444 32.6983C15.2795 29.4189 10.3868 28.8388 7.41952 28.8318C5.30636 28.8267 3.58704 27.1061 3.58704 24.996Z" fill="#3582F6"/>
</svg>
