<svg width="18" height="18" viewBox="0 0 18 18" fill="none" xmlns="http://www.w3.org/2000/svg">
<path d="M14.8285 3.16675L13.9951 3.16675L13.9951 1.50008C13.9951 1.27907 13.9073 1.06711 13.7511 0.910827C13.5948 0.754546 13.3828 0.666749 13.1618 0.666749C12.9408 0.666749 12.7288 0.754546 12.5725 0.910827C12.4163 1.06711 12.3285 1.27907 12.3285 1.50008L12.3285 3.16675L5.6618 3.16675L5.6618 1.50008C5.6618 1.27907 5.57401 1.06711 5.41773 0.910826C5.26145 0.754546 5.04948 0.666748 4.82847 0.666748C4.60746 0.666748 4.3955 0.754546 4.23922 0.910826C4.08294 1.06711 3.99514 1.27907 3.99514 1.50008L3.99514 3.16675L3.1618 3.16675C2.49876 3.16675 1.86288 3.43014 1.39404 3.89898C0.925196 4.36782 0.661804 5.00371 0.661804 5.66675L0.661804 6.50008L17.3285 6.50008L17.3285 5.66675C17.3285 5.00371 17.0651 4.36782 16.5962 3.89898C16.1274 3.43014 15.4915 3.16675 14.8285 3.16675Z" fill="#F6C035"/>
<path d="M0.661804 14.8334C0.661804 15.4964 0.925196 16.1323 1.39404 16.6012C1.86288 17.07 2.49876 17.3334 3.1618 17.3334L14.8285 17.3334C15.4915 17.3334 16.1274 17.07 16.5962 16.6012C17.0651 16.1323 17.3285 15.4964 17.3285 14.8334L17.3285 8.16675L0.661804 8.16675L0.661804 14.8334Z" fill="#F6C035"/>
</svg>
