<svg width="43" height="42" viewBox="0 0 43 42" fill="none" xmlns="http://www.w3.org/2000/svg">
<g clip-path="url(#clip0_243_1626)">
<path d="M37.6103 23.9615L26.3026 23.9615L26.3026 29.3463L17.6868 29.3463L17.6868 23.9615L6.37995 23.9615C4.31014 23.9615 2.42607 23.1727 0.995117 21.8875L0.995116 34.1922C0.995116 37.1541 3.41808 39.5771 6.37994 39.5771L37.6103 39.5771C40.5721 39.5771 42.9951 37.1541 42.9951 34.1922L42.9951 21.8867C41.5642 23.1727 39.6801 23.9615 37.6103 23.9615Z" fill="#3582F6"/>
<path d="M29.5335 9.42279L29.5335 7.80776C29.5335 4.84589 27.1105 2.42293 24.1486 2.42293L19.8408 2.42293C16.8789 2.42293 14.4559 4.84589 14.4559 7.80776L14.4559 9.42279L0.995117 9.42279L0.995116 15.8846C0.995116 18.8464 3.41808 21.2694 6.37994 21.2694L37.6103 21.2694C40.5721 21.2694 42.9951 18.8464 42.9951 15.8846L42.9951 9.42279L29.5335 9.42279ZM25.7637 9.42279L18.2257 9.42279L18.2257 7.80776C18.2257 6.93236 18.9654 6.19273 19.8408 6.19273L24.1486 6.19273C25.024 6.19273 25.7637 6.93236 25.7637 7.80776L25.7637 9.42279Z" fill="#3582F6"/>
</g>
<defs>
<clipPath id="clip0_243_1626">
<rect width="42" height="42" fill="white" transform="translate(0.995117)"/>
</clipPath>
</defs>
</svg>
