<svg width="28" height="28" viewBox="0 0 28 28" fill="none" xmlns="http://www.w3.org/2000/svg">
<path d="M17.5075 5.87534C17.241 5.87534 17.0001 5.97518 16.8113 6.13469L16.8014 6.1248L8.29749 14.5995C7.33379 15.5629 6.93867 16.5029 6.93361 17.8448C6.93361 18.8943 7.32141 19.8385 8.02535 20.5033C8.75237 21.1896 9.76208 21.5523 10.9458 21.5521L10.9706 21.5521C12.2027 21.5466 13.3557 21.0618 14.216 20.1882L24.0834 10.3232C26.5825 7.82381 26.6481 4.26168 24.2394 1.85271C23.0446 0.658094 21.454 0.000123766 19.7603 0.000123629C18.0667 0.000123491 16.4765 0.658094 15.2827 1.8528L2.92404 14.2097C-0.226677 17.3604 -0.226677 22.4873 2.92404 25.6381C4.44785 27.1614 6.47697 28.0002 8.63758 28.0002C10.7982 28.0002 12.8275 27.1614 14.352 25.6378L27.1462 12.7983C27.1462 12.7983 27.4282 12.5212 27.4282 12.0537C27.4282 11.4547 26.9425 10.969 26.3435 10.969C26.0588 10.969 25.8017 11.0811 25.6081 11.2607L25.6048 11.2573L12.8103 24.0971C11.6975 25.2093 10.2155 25.8219 8.63735 25.8219C7.05921 25.8219 5.57745 25.2093 4.46501 24.0971C2.16403 21.7952 2.16403 18.0512 4.46501 15.7509L16.8236 3.39418C17.6067 2.61107 18.6497 2.17988 19.7603 2.17988C20.871 2.17988 21.9146 2.61125 22.6983 3.39419C23.4799 4.17578 23.8728 5.10428 23.8348 6.07971C23.7972 7.03968 23.3504 7.97417 22.5424 8.78213L12.6543 18.668C12.2023 19.1207 11.6013 19.371 10.9629 19.3725C9.7486 19.3725 9.11331 18.6075 9.11331 17.8527C9.11575 17.215 9.36585 16.6142 9.81789 16.1615L18.3425 7.66618L18.3328 7.65652C18.4923 7.46775 18.5922 7.22689 18.5922 6.96027C18.5923 6.36083 18.1065 5.87534 17.5075 5.87534Z" fill="#F7C035"/>
</svg>
