<svg width="8" height="8" viewBox="0 0 8 8" fill="none" xmlns="http://www.w3.org/2000/svg">
<path d="M4.93909 3.99868L7.80299 1.14144C7.92841 1.01603 7.99886 0.845928 7.99886 0.668565C7.99886 0.491202 7.92841 0.321103 7.80299 0.195689C7.67758 0.0702741 7.50748 -0.000183105 7.33011 -0.000183105C7.15275 -0.000183105 6.98265 0.0702741 6.85724 0.195689L4 3.05959L1.14276 0.195689C1.01735 0.0702741 0.847248 -0.000183107 0.669885 -0.000183105C0.492522 -0.000183104 0.322423 0.0702741 0.197008 0.195689C0.0715939 0.321103 0.00113664 0.491202 0.00113663 0.668565C0.00113663 0.845928 0.0715939 1.01603 0.197008 1.14144L3.06091 3.99868L0.197008 6.85592C0.134583 6.91783 0.085035 6.9915 0.0512219 7.07266C0.0174088 7.15382 0 7.24087 0 7.32879C0 7.41672 0.0174088 7.50377 0.0512219 7.58493C0.085035 7.66609 0.134583 7.73976 0.197008 7.80167C0.258924 7.8641 0.332587 7.91365 0.413748 7.94746C0.494909 7.98127 0.581962 7.99868 0.669885 7.99868C0.757808 7.99868 0.844861 7.98127 0.926022 7.94746C1.00718 7.91365 1.08085 7.8641 1.14276 7.80167L4 4.93777L6.85724 7.80167C6.91915 7.8641 6.99282 7.91365 7.07398 7.94746C7.15514 7.98127 7.24219 7.99868 7.33011 7.99868C7.41804 7.99868 7.50509 7.98127 7.58625 7.94746C7.66741 7.91365 7.74108 7.8641 7.80299 7.80167C7.86542 7.73976 7.91497 7.66609 7.94878 7.58493C7.98259 7.50377 8 7.41672 8 7.32879C8 7.24087 7.98259 7.15382 7.94878 7.07266C7.91497 6.9915 7.86542 6.91783 7.80299 6.85592L4.93909 3.99868Z" fill="#898D9C"/>
</svg>
