<svg width="25" height="18" viewBox="0 0 25 18" fill="none" xmlns="http://www.w3.org/2000/svg">
<path d="M12.4993 0.810791C6.89329 0.810791 2.10571 4.29776 0.166016 9.21988C2.10571 14.142 6.89329 17.629 12.4993 17.629C18.1054 17.629 22.893 14.142 24.8327 9.21988C22.893 4.29776 18.1054 0.810791 12.4993 0.810791ZM12.4993 14.8259C9.4048 14.8259 6.89329 12.3144 6.89329 9.21988C6.89329 6.12534 9.4048 3.61382 12.4993 3.61382C15.5939 3.61382 18.1054 6.12534 18.1054 9.21988C18.1054 12.3144 15.5939 14.8259 12.4993 14.8259ZM12.4993 5.85625C10.6381 5.85625 9.13571 7.35867 9.13571 9.21988C9.13571 11.0811 10.6381 12.5835 12.4993 12.5835C14.3606 12.5835 15.863 11.0811 15.863 9.21988C15.863 7.35867 14.3606 5.85625 12.4993 5.85625Z" fill="#B2B7BB"/>
</svg>
