<?xml version="1.0" encoding="utf-8"?>
<!-- Generator: Adobe Illustrator 21.1.0, SVG Export Plug-In . SVG Version: 6.00 Build 0)  -->
<svg version="1.1" id="Слой_1" xmlns="http://www.w3.org/2000/svg" xmlns:xlink="http://www.w3.org/1999/xlink" x="0px" y="0px"
	 viewBox="0 0 19 19" style="enable-background:new 0 0 19 19;" xml:space="preserve">
<style type="text/css">
	.st0{fill:#FFFFFF;}
</style>
<path class="st0" d="M16.3,0L2.7,0C1.2,0,0,1.2,0,2.7l0,13.6C0,17.8,1.2,19,2.7,19h13.6c1.5,0,2.7-1.2,2.7-2.7V2.7
	C19,1.2,17.8,0,16.3,0z M9.5,15.2c3.1,0,5.7-2.5,5.7-5.5c0-0.5-0.1-1.1-0.2-1.5h1.6v7.7c0,0.4-0.3,0.7-0.7,0.7H3.1
	c-0.4,0-0.7-0.3-0.7-0.7V8.1h1.7c-0.1,0.5-0.2,1-0.2,1.5C3.8,12.7,6.4,15.2,9.5,15.2z M9.5,13c-2,0-3.7-1.6-3.7-3.6
	c0-2,1.6-3.6,3.7-3.6c2,0,3.7,1.6,3.7,3.6C13.2,11.5,11.5,13,9.5,13z M16.5,5.2c0,0.4-0.4,0.8-0.8,0.8h-2c-0.4,0-0.8-0.4-0.8-0.8v-2
	c0-0.4,0.4-0.8,0.8-0.8h2c0.4,0,0.8,0.4,0.8,0.8V5.2z"/>
</svg>
