<svg width="38" height="37" viewBox="0 0 38 37" fill="none" xmlns="http://www.w3.org/2000/svg">
<g clip-path="url(#clip0_243_2286)">
<path d="M7.10687 19.4333C7.10687 20.8643 8.31422 22.0243 9.80366 22.0243C11.2931 22.0243 12.5005 20.8643 12.5005 19.4333L12.5005 16.8422L18.6132 16.8422L18.6132 10.3646L15.9164 10.3646C15.1717 10.3646 14.568 9.78459 14.568 9.06912C14.568 8.35365 15.1717 7.7736 15.9164 7.7736L18.6132 7.7736L18.6132 0.000489711L0.994141 0.000488281L0.994139 16.8422L7.10687 16.8422L7.10687 19.4333Z" fill="#3582F6"/>
<path d="M32.2431 19.464L32.2431 16.7799C32.2431 15.2974 31.0902 14.0957 29.668 14.0957C28.2458 14.0957 27.0929 15.2974 27.0929 16.7799L27.0929 19.464L21.256 19.464L21.256 22.8639C24.0965 22.8639 26.4062 25.2715 26.4062 28.2322C26.4062 31.1929 24.0965 33.6005 21.256 33.6005L21.256 37.0005L37.9941 37.0005L37.9941 19.464L32.2431 19.464Z" fill="#3582F6"/>
<path d="M21.2147 30.8878C22.6972 30.8878 23.8989 29.6804 23.8989 28.191C23.8989 26.7016 22.6972 25.4942 21.2147 25.4942L18.5306 25.4942L18.5306 19.3815L15.1307 19.3815C15.1307 22.3561 12.7231 24.7751 9.76237 24.7751C6.80166 24.7751 4.39407 22.3561 4.39407 19.3815L0.994141 19.3815L0.994139 37.0005L18.5306 37.0005L18.5306 30.8878L21.2147 30.8878Z" fill="#3582F6"/>
</g>
<defs>
<clipPath id="clip0_243_2286">
<rect width="37" height="37" fill="white" transform="translate(0.994141 0.000488281)"/>
</clipPath>
</defs>
</svg>
