<svg width="25" height="24" viewBox="0 0 25 24" fill="none" xmlns="http://www.w3.org/2000/svg">
<path d="M24.7014 22.2943L17.8764 15.4693C19.1984 13.8364 19.9944 11.7614 19.9944 9.50139C19.9944 4.26344 15.7325 0.00146604 10.4945 0.00146561C5.25656 0.00146519 0.994629 4.26339 0.994628 9.50134C0.994628 14.7393 5.2566 19.0013 10.4946 19.0013C12.7545 19.0013 14.8295 18.2053 16.4625 16.8833L23.2874 23.7082C23.4824 23.9032 23.7384 24.0012 23.9944 24.0012C24.2504 24.0012 24.5064 23.9032 24.7014 23.7082C25.0924 23.3172 25.0924 22.6852 24.7014 22.2943ZM10.4946 17.0013C6.35858 17.0013 2.99462 13.6373 2.99462 9.50134C2.99462 5.36537 6.35858 2.00141 10.4946 2.00142C14.6305 2.00142 17.9945 5.36537 17.9945 9.50134C17.9945 13.6373 14.6305 17.0013 10.4946 17.0013Z" fill="#696969"/>
</svg>
