<?xml version="1.0" encoding="utf-8"?>
<!-- Generator: Adobe Illustrator 21.1.0, SVG Export Plug-In . SVG Version: 6.00 Build 0)  -->
<svg version="1.1" id="Слой_1" xmlns="http://www.w3.org/2000/svg" xmlns:xlink="http://www.w3.org/1999/xlink" x="0px" y="0px"
	 viewBox="0 0 20 17.4" style="enable-background:new 0 0 20 17.4;" xml:space="preserve">
<style type="text/css">
	.st0{fill:#FFFFFF;}
</style>
<path class="st0" d="M0.4,8.4l4.6,1.7l1.8,5.8c0.1,0.4,0.5,0.5,0.9,0.2l2.6-2.1c0.2-0.2,0.6-0.2,0.9,0l4.6,3.4
	c0.3,0.2,0.8,0.1,0.9-0.3L20,0.7c0.1-0.4-0.3-0.8-0.7-0.6L0.4,7.4C-0.1,7.5-0.1,8.2,0.4,8.4z M6.5,9.2l9-5.5
	c0.2-0.1,0.3,0.2,0.2,0.2l-7.4,6.9c-0.2,0.2-0.5,0.5-0.5,0.9l-0.2,1.9c0,0.2-0.4,0.3-0.5,0l-0.9-3.4C6,9.9,6.1,9.4,6.5,9.2z"/>
</svg>
