<svg width="22" height="21" viewBox="0 0 22 21" fill="none" xmlns="http://www.w3.org/2000/svg">
<path fill-rule="evenodd" clip-rule="evenodd" d="M0.994384 10.5002C0.994384 4.7111 5.70548 3.82403e-07 11.4946 8.52309e-07C17.2833 1.32218e-06 21.9944 4.7111 21.9944 10.5002C21.9944 16.2889 17.2833 21 11.4946 21C5.70548 21 0.994383 16.2889 0.994384 10.5002ZM20.2461 10.5002C20.2461 5.657 16.3374 1.74829 11.4946 1.74829C6.65138 1.74829 2.74267 5.65699 2.74267 10.5002C2.74267 15.343 6.65138 19.2482 11.4946 19.2482C16.3374 19.2482 20.2461 15.343 20.2461 10.5002ZM16.6502 5.42998C16.7898 5.32323 16.9587 5.2611 17.1345 5.25191C17.4215 5.23616 17.6989 5.3626 17.8748 5.59011C17.9929 5.74324 18.0568 5.93093 18.0568 6.12431C18.0568 6.396 17.9304 6.65325 17.7147 6.81863L12.0284 11.1946C11.6985 11.4484 11.2308 11.4335 10.9175 11.1587L8.29335 8.86224C8.10347 8.69642 7.99453 8.45579 7.99453 8.20379C7.99453 7.99159 8.07197 7.7864 8.21154 7.62671C8.37779 7.43683 8.61798 7.32789 8.87043 7.32789C9.08262 7.32789 9.28781 7.4049 9.44706 7.5449L11.53 9.368L16.6502 5.42998Z" fill="#B2B7BB"/>
</svg>
