<?xml version="1.0" encoding="utf-8"?>
<!-- Generator: Adobe Illustrator 21.1.0, SVG Export Plug-In . SVG Version: 6.00 Build 0)  -->
<svg version="1.1" id="Слой_1" xmlns="http://www.w3.org/2000/svg" xmlns:xlink="http://www.w3.org/1999/xlink" x="0px" y="0px"
	 viewBox="0 0 20.9 12.1" style="enable-background:new 0 0 20.9 12.1;" xml:space="preserve">
<style type="text/css">
	.st0{fill:#FFFFFF;}
</style>
<path class="st0" d="M20.7,10.9c0-0.1-0.1-0.1-0.1-0.2c-0.3-0.7-1.1-1.5-2.1-2.4c-0.5-0.4-0.7-0.7-0.9-0.9c-0.2-0.3-0.2-0.6-0.2-0.9
	c0.1-0.2,0.4-0.7,1-1.4c0.3-0.4,0.5-0.7,0.7-0.9c1.2-1.7,1.8-2.7,1.7-3.2l-0.1-0.1c-0.1-0.1-0.2-0.2-0.3-0.2c-0.2-0.1-0.4-0.1-0.7,0
	l-3.2,0c-0.1,0-0.1,0-0.2,0c-0.1,0-0.2,0-0.2,0h-0.1H16l-0.1,0.1c-0.1,0.1-0.1,0.1-0.1,0.2c-0.3,0.9-0.7,1.7-1.2,2.5
	c-0.2,0.4-0.5,0.8-0.7,1.2c-0.2,0.3-0.4,0.6-0.6,0.7C13.2,5.5,13,5.6,13,5.7c-0.1,0.1-0.2,0.2-0.2,0.1c-0.1,0-0.2,0-0.2-0.1
	c-0.1-0.1-0.2-0.2-0.2-0.2c-0.1-0.1-0.1-0.2-0.2-0.4c0-0.2,0-0.3,0-0.4c0-0.1,0-0.3,0-0.5c0-0.2,0-0.4,0-0.5c0-0.2,0-0.6,0-0.9
	s0-0.6,0-0.7c0-0.2,0-0.4,0-0.6c0-0.2,0-0.4,0-0.5S12,0.7,12,0.6c-0.1-0.1-0.2-0.2-0.2-0.2c-0.1-0.1-0.2-0.1-0.3-0.2
	C11,0.1,10.5,0,10,0C8.6,0,7.7,0.1,7.4,0.2C7.2,0.3,7.1,0.4,7,0.6C6.8,0.7,6.8,0.8,6.9,0.8c0.4,0.1,0.7,0.2,0.9,0.5l0.1,0.2
	C8,1.6,8,1.7,8.1,2c0.1,0.2,0.1,0.5,0.1,0.8c0,0.5,0,1,0,1.3c0,0.4-0.1,0.7-0.1,0.9c0,0.2-0.1,0.4-0.2,0.5C7.8,5.7,7.8,5.8,7.7,5.8
	c0,0,0,0.1-0.1,0.1C7.6,5.9,7.5,6,7.3,6C7.2,6,7.1,5.9,7,5.8C6.8,5.7,6.6,5.6,6.6,5.4C6.4,5.2,6.2,5,6.1,4.6C5.9,4.3,5.6,4,5.5,3.5
	L5.3,3.2C5.2,3,5.1,2.7,4.9,2.2C4.7,1.8,4.6,1.5,4.4,1.1C4.3,0.9,4.2,0.8,4.2,0.7H4.1c0,0-0.1-0.1-0.2-0.1c-0.1,0-0.2-0.1-0.2-0.1
	h-3c-0.3,0-0.5,0.1-0.6,0.2L0,0.8c0,0,0,0.1,0,0.2c0,0.1,0,0.2,0.1,0.3c0.4,1,0.9,2,1.4,3c0.5,0.9,1,1.7,1.3,2.3
	C3.2,7.2,3.6,7.8,4,8.3c0.4,0.5,0.7,0.8,0.7,1C4.9,9.5,5,9.5,5.1,9.6l0.2,0.2c0.2,0.2,0.4,0.4,0.7,0.7c0.3,0.2,0.7,0.5,1.2,0.7
	c0.4,0.2,0.9,0.4,1.4,0.6c0.6,0.2,1.1,0.2,1.6,0.2h1.2c0.2,0,0.4-0.1,0.6-0.2l0.1-0.1c0-0.1,0.1-0.1,0.1-0.2s0-0.2,0-0.3
	c0-0.3,0-0.6,0.1-0.8c0.1-0.2,0.1-0.4,0.2-0.6c0.1-0.2,0.2-0.2,0.2-0.3s0.2-0.2,0.2-0.2H13c0.2-0.1,0.4,0,0.6,0.2
	c0.2,0.2,0.5,0.4,0.7,0.7c0.2,0.2,0.4,0.5,0.7,0.8c0.3,0.3,0.6,0.6,0.7,0.7l0.2,0.2c0.2,0.1,0.3,0.2,0.6,0.2
	c0.2,0.1,0.4,0.1,0.6,0.1l2.8-0.1c0.2,0,0.5-0.1,0.7-0.2c0.2-0.1,0.2-0.2,0.2-0.3c0-0.1,0-0.2,0-0.3C20.7,11,20.7,11,20.7,10.9z"/>
</svg>
