<svg width="16" height="8" viewBox="0 0 16 8" fill="none" xmlns="http://www.w3.org/2000/svg">
<path d="M0.994873 3.5C0.718731 3.5 0.494873 3.72386 0.494873 4C0.494873 4.27614 0.718731 4.5 0.994873 4.5L0.994873 3.5ZM15.3484 4.35356C15.5437 4.15829 15.5437 3.84171 15.3484 3.64645L12.1664 0.464468C11.9712 0.269206 11.6546 0.269206 11.4593 0.464468C11.2641 0.65973 11.2641 0.976312 11.4593 1.17157L14.2878 4L11.4593 6.82843C11.2641 7.02369 11.2641 7.34027 11.4593 7.53554C11.6546 7.7308 11.9712 7.7308 12.1664 7.53554L15.3484 4.35356ZM0.994873 4.5L14.9949 4.5L14.9949 3.5L0.994873 3.5L0.994873 4.5Z" fill="#282A31"/>
</svg>
