<svg width="27" height="26" viewBox="0 0 27 26" fill="none" xmlns="http://www.w3.org/2000/svg">
<g clip-path="url(#clip0_246_5735)">
<path d="M23.0409 20.691C22.9645 20.6414 22.3893 20.2384 21.8133 19.0194C20.7556 16.7809 20.5336 13.6275 20.5336 11.3763C20.5336 11.3665 20.5334 11.3568 20.533 11.347C20.5215 8.3718 18.7399 5.80704 16.1905 4.65629V2.89636C16.1905 1.29929 14.8934 0 13.2989 0H13.0593C11.4649 0 10.1677 1.29929 10.1677 2.89636V4.65618C7.60974 5.81064 5.82463 8.3885 5.82463 11.3763C5.82463 13.6275 5.60261 16.7808 4.54489 19.0194C3.96898 20.2384 3.39378 20.6413 3.31731 20.691C2.99525 20.84 2.83646 21.1843 2.91055 21.5332C2.98535 21.8856 3.31472 22.1285 3.6744 22.1285H9.25765C9.28883 24.2685 11.0354 26 13.1791 26C15.3229 26 17.0694 24.2685 17.1006 22.1285H22.6839C23.0435 22.1285 23.3729 21.8856 23.4477 21.5332C23.5217 21.1843 23.363 20.84 23.0409 20.691ZM11.6912 2.89636C11.6912 2.14068 12.3049 1.52593 13.0593 1.52593H13.299C14.0534 1.52593 14.6671 2.14068 14.6671 2.89636V4.16168C14.1863 4.0623 13.6886 4.00999 13.1789 4.00999C12.6694 4.00999 12.1718 4.06225 11.6912 4.16152V2.89636H11.6912ZM13.1791 24.4741C11.8754 24.4741 10.812 23.4271 10.7811 22.1286H15.5771C15.5462 23.4271 14.4828 24.4741 13.1791 24.4741ZM16.2463 20.6026C16.2462 20.6026 5.41036 20.6026 5.41036 20.6026C5.54213 20.3972 5.67625 20.1647 5.80955 19.9019C6.83045 17.8888 7.34812 15.0203 7.34812 11.3763C7.34812 8.15587 9.96381 5.53592 13.1789 5.53592C16.3939 5.53592 19.0096 8.15588 19.0096 11.3788C19.0096 11.3882 19.0098 11.3975 19.0101 11.4069C19.013 15.0363 19.5306 17.8944 20.5487 19.9019C20.682 20.1647 20.8162 20.3972 20.9479 20.6026H16.2463Z" fill="#B2B7BB"/>
</g>
<defs>
<clipPath id="clip0_246_5735">
<rect width="26" height="26" fill="white" transform="translate(0.179688)"/>
</clipPath>
</defs>
</svg>
