<svg width="36" height="42" viewBox="0 0 36 42" fill="none" xmlns="http://www.w3.org/2000/svg">
<path d="M35.1916 38.863L35.1916 1.426C35.1916 0.286494 34.0548 2.69973e-06 33.7638 2.67611e-06C33.4729 2.6525e-06 5.08016 3.47841e-07 5.08016 3.47841e-07C0.798089 2.62024e-10 0.794861 3.96262 0.794861 3.96262L0.794858 40.4805C0.794857 41.3176 1.47566 42 2.3206 42L29.7079 42C30.545 42 31.2256 41.3176 31.2256 40.4805L33.6672 40.4742C35.3058 40.4757 35.1916 38.863 35.1916 38.863ZM23.9814 12.6506L8.27413 12.6506L8.27413 9.68267L23.9814 9.68267L23.9814 12.6506ZM31.9756 37.3977C31.3915 37.3977 31.2257 37.4003 31.2257 37.4003L31.2257 27.2393L31.2257 5.55115C31.2257 4.70773 30.5448 4.02702 29.708 4.02702L3.79257 4.01895C3.79257 2.97434 4.86402 2.44325 5.36181 2.44325C5.70123 2.44325 31.2242 2.44325 31.2242 2.44325C32.8435 2.44325 32.7966 3.86925 32.7966 3.86925L32.7983 36.4759C32.7982 36.6885 32.8756 37.3977 31.9756 37.3977Z" fill="#3582F6"/>
</svg>
