<svg width="21" height="21" viewBox="0 0 21 21" fill="none" xmlns="http://www.w3.org/2000/svg">
<path d="M5.25 11.375H1.75C1.225 11.375 0.875 11.725 0.875 12.25V19.25C0.875 19.775 1.225 20.125 1.75 20.125H5.25C5.775 20.125 6.125 19.775 6.125 19.25V12.25C6.125 11.725 5.775 11.375 5.25 11.375ZM19.25 7.875H15.75C15.225 7.875 14.875 8.225 14.875 8.75V19.25C14.875 19.775 15.225 20.125 15.75 20.125H19.25C19.775 20.125 20.125 19.775 20.125 19.25V8.75C20.125 8.225 19.775 7.875 19.25 7.875ZM12.25 0.875H8.75C8.225 0.875 7.875 1.225 7.875 1.75V19.25C7.875 19.775 8.225 20.125 8.75 20.125H12.25C12.775 20.125 13.125 19.775 13.125 19.25V1.75C13.125 1.225 12.775 0.875 12.25 0.875Z" fill="#060C1C"/>
</svg>
