<svg width="33" height="32" viewBox="0 0 33 32" fill="none" xmlns="http://www.w3.org/2000/svg">
<path d="M24.9941 1.33333L8.99412 1.33333C7.22666 1.33545 5.5322 2.0385 4.28241 3.28829C3.03263 4.53807 2.32957 6.23253 2.32745 7.99999L2.32745 18.6667C2.32939 20.2029 2.86091 21.6916 3.83241 22.8817C4.80391 24.0718 6.156 24.8905 7.66079 25.2L7.66079 29.3333C7.66075 29.5747 7.72625 29.8116 7.85029 30.0187C7.97433 30.2258 8.15226 30.3953 8.3651 30.5092C8.57794 30.623 8.8177 30.677 9.05881 30.6653C9.29991 30.6536 9.53332 30.5766 9.73412 30.4427L17.3941 25.3333L24.9941 25.3333C26.7616 25.3312 28.456 24.6282 29.7058 23.3784C30.9556 22.1286 31.6587 20.4341 31.6608 18.6667L31.6608 8C31.6587 6.23254 30.9556 4.53807 29.7058 3.28829C28.456 2.03851 26.7616 1.33545 24.9941 1.33333ZM22.3275 17.3333L11.6608 17.3333C11.3072 17.3333 10.968 17.1929 10.718 16.9428C10.4679 16.6928 10.3275 16.3536 10.3275 16C10.3275 15.6464 10.4679 15.3072 10.718 15.0572C10.968 14.8071 11.3072 14.6667 11.6608 14.6667L22.3275 14.6667C22.6811 14.6667 23.0202 14.8071 23.2703 15.0572C23.5203 15.3072 23.6608 15.6464 23.6608 16C23.6608 16.3536 23.5203 16.6928 23.2703 16.9428C23.0202 17.1929 22.6811 17.3333 22.3275 17.3333ZM24.9941 12L8.99412 12C8.6405 12 8.30136 11.8595 8.05131 11.6095C7.80126 11.3594 7.66079 11.0203 7.66079 10.6667C7.66079 10.313 7.80126 9.9739 8.05131 9.72385C8.30136 9.4738 8.6405 9.33333 8.99412 9.33333L24.9941 9.33333C25.3477 9.33333 25.6869 9.47381 25.9369 9.72385C26.187 9.9739 26.3275 10.313 26.3275 10.6667C26.3275 11.0203 26.187 11.3594 25.9369 11.6095C25.6869 11.8595 25.3477 12 24.9941 12Z" fill="#F6C035"/>
</svg>
