<?xml version="1.0" encoding="utf-8"?>
<!-- Generator: Adobe Illustrator 21.1.0, SVG Export Plug-In . SVG Version: 6.00 Build 0)  -->
<svg version="1.1" id="Слой_1" xmlns="http://www.w3.org/2000/svg" xmlns:xlink="http://www.w3.org/1999/xlink" x="0px" y="0px"
	 viewBox="0 0 13 8.5" style="enable-background:new 0 0 13 8.5;" xml:space="preserve">
<style type="text/css">
	.st0{fill:#B2B7BB;}
</style>
<path class="st0" d="M0.2,4.9C1.1,6,3.5,8.5,6.5,8.5c3,0,5.4-2.6,6.3-3.7c0.3-0.3,0.3-0.8,0-1.2C11.9,2.6,9.5,0,6.5,0
	c-3,0-5.4,2.6-6.3,3.7C-0.1,4-0.1,4.5,0.2,4.9z M0.9,4.3c0.6-0.8,2.9-3.3,5.6-3.3c2.6,0,4.9,2.5,5.6,3.3C11.4,5,9.1,7.6,6.5,7.6
	C3.9,7.6,1.6,5,0.9,4.3z M4.4,4.3c0,1.2,1,2.1,2.1,2.1c1.2,0,2.1-1,2.1-2.1c0-1.2-1-2.1-2.1-2.1C5.3,2.1,4.4,3.1,4.4,4.3z M5.3,4.3
	c0-0.7,0.5-1.2,1.2-1.2s1.2,0.5,1.2,1.2S7.2,5.4,6.5,5.4S5.3,4.9,5.3,4.3z"/>
</svg>
