<?xml version="1.0" encoding="utf-8"?>
<!-- Generator: Adobe Illustrator 21.1.0, SVG Export Plug-In . SVG Version: 6.00 Build 0)  -->
<svg version="1.1" id="Слой_1" xmlns="http://www.w3.org/2000/svg" xmlns:xlink="http://www.w3.org/1999/xlink" x="0px" y="0px"
	 viewBox="0 0 19 19" style="enable-background:new 0 0 19 19;" xml:space="preserve">
<style type="text/css">
	.st0{fill:#FFFFFF;}
</style>
<path class="st0" d="M19,3.2C19,1.5,17.5,0,15.8,0L3.2,0C1.5,0,0,1.5,0,3.2l0,12.7C0,17.5,1.5,19,3.2,19h6.4v-7.2H7.2V8.7h2.4V7.4
	c0-2.2,1.6-4,3.5-4h2.6v3.2h-2.6c-0.3,0-0.6,0.3-0.6,0.9v1.3h3.2v3.2h-3.2V19h3.3c1.7,0,3.2-1.5,3.2-3.2V3.2z"/>
</svg>
