<svg width="23" height="23" viewBox="0 0 23 23" fill="none" xmlns="http://www.w3.org/2000/svg">
<path d="M11.4951 0.562501C9.33189 0.562501 7.21723 1.20397 5.41857 2.4058C3.61991 3.60763 2.21802 5.31583 1.39019 7.3144C0.562356 9.31297 0.345756 11.5121 0.767782 13.6338C1.18981 15.7555 2.2315 17.7043 3.76114 19.234C5.29078 20.7636 7.23965 21.8053 9.36132 22.2273C11.483 22.6494 13.6822 22.4328 15.6807 21.6049C17.6793 20.7771 19.3875 19.3752 20.5893 17.5766C21.7911 15.7779 22.4326 13.6632 22.4326 11.5C22.4321 8.59936 21.2796 5.81767 19.2285 3.7666C17.1775 1.71553 14.3958 0.563025 11.4951 0.562501ZM16.6787 15.2734C16.2691 16.068 15.6817 16.7574 14.9622 17.2879C14.2427 17.8184 13.4105 18.1757 12.5303 18.332C12.484 18.3384 12.4369 18.3312 12.3947 18.3113C12.3525 18.2913 12.3171 18.2595 12.2926 18.2198C12.2682 18.18 12.2558 18.134 12.2571 18.0873C12.2584 18.0407 12.2732 17.9954 12.2998 17.957C12.5408 17.5621 12.7162 17.1307 12.8193 16.6797C12.9012 16.3185 12.8942 15.9429 12.7989 15.585C12.7037 15.2271 12.523 14.8977 12.2725 14.625C11.7061 14.0039 11.0772 13.1133 11.0342 12.1719C10.292 12.7109 8.83887 14.0156 9.3584 15.6641C9.3584 15.6719 9.36229 15.6797 9.36229 15.6914C9.60516 16.5232 10.0324 17.2896 10.6123 17.9336C10.6418 17.9695 10.6605 18.0129 10.6663 18.0589C10.6721 18.105 10.6648 18.1517 10.6452 18.1938C10.6256 18.2359 10.5945 18.2715 10.5555 18.2967C10.5165 18.3218 10.4712 18.3354 10.4248 18.3359C10.4063 18.3355 10.3879 18.3329 10.3701 18.3281C10.2021 18.2891 6.28416 17.332 5.94041 14.1328C5.89376 13.5859 5.95793 13.0352 6.12909 12.5137C6.30024 11.9922 6.57486 11.5106 6.93651 11.0977C7.57168 10.3626 8.26962 9.68429 9.02244 9.07031C9.60688 8.58423 10.0384 7.93959 10.265 7.21399C10.4916 6.4884 10.5037 5.71277 10.2998 4.98047C10.2871 4.93731 10.2867 4.8915 10.2984 4.84808C10.3101 4.80466 10.3336 4.76532 10.3662 4.73438C10.3976 4.70255 10.4373 4.68019 10.4808 4.66983C10.5244 4.65947 10.5699 4.66154 10.6123 4.67578C10.6553 4.69141 14.4209 6.03125 14.0615 9.85547C14.2617 9.69237 14.3985 9.46435 14.4482 9.21094C14.4576 9.16783 14.478 9.12789 14.5075 9.09503C14.5369 9.06217 14.5744 9.0375 14.6162 9.02344C14.6589 9.00962 14.7047 9.00815 14.7483 9.01921C14.7918 9.03027 14.8313 9.0534 14.8623 9.08594C14.999 9.22656 18.1592 12.5117 16.6787 15.2734Z" fill="#F05C44"/>
</svg>
