<svg width="11" height="9" viewBox="0 0 11 9" fill="none" xmlns="http://www.w3.org/2000/svg">
<path fill-rule="evenodd" clip-rule="evenodd" d="M2.42579 1.45601C2.07139 1.80852 1.82794 2.35643 1.82794 3.15001C1.82794 3.44536 2.01404 3.90582 2.40596 4.48871C2.78274 5.04909 3.2971 5.64687 3.83403 6.19917C4.36958 6.75002 4.91728 7.24502 5.35342 7.60003C5.57214 7.778 5.75751 7.91651 5.89596 8.00831C5.93451 8.03383 5.96734 8.05439 5.99458 8.07045C6.02182 8.05439 6.05467 8.03383 6.09321 8.00831C6.23167 7.91651 6.41704 7.778 6.63575 7.60003C7.07192 7.24502 7.61958 6.75002 8.15512 6.19917C8.69207 5.64689 9.20641 5.04911 9.58321 4.48871C9.97516 3.90582 10.1613 3.44534 10.1613 3.15001C10.1613 2.35644 9.91783 1.80854 9.56343 1.45601C9.20339 1.0979 8.6868 0.899991 8.07793 0.899991C7.42655 0.899991 6.73914 1.40339 6.34154 2.04916C6.26433 2.17461 6.13409 2.25 5.99458 2.25C5.85508 2.25 5.72483 2.17461 5.64761 2.04916C5.25003 1.40339 4.56262 0.899991 3.91123 0.899991C3.3024 0.899991 2.78582 1.0979 2.42579 1.45601ZM1.86126 0.793992C2.40605 0.252088 3.13946 1.741e-07 3.91129 2.3675e-07C4.72332 3.02663e-07 5.47237 0.47439 5.99462 1.07837C6.51686 0.47439 7.26592 5.09047e-07 8.07795 5.7496e-07C8.84978 6.3761e-07 9.58319 0.252089 10.128 0.793993C10.6784 1.34147 10.9946 2.14357 10.9946 3.14999C10.9946 3.75466 10.6598 4.41918 10.2575 5.01753C9.84004 5.6384 9.28667 6.27811 8.72989 6.85084C8.1717 7.42498 7.59956 7.94249 7.13732 8.31873C6.90677 8.50638 6.69833 8.66316 6.52915 8.77531C6.44519 8.83098 6.36394 8.88026 6.29035 8.9172C6.23685 8.94408 6.1216 9 5.9946 9C5.86759 9 5.75234 8.94408 5.69884 8.9172C5.62526 8.88026 5.544 8.83098 5.46005 8.77531C5.29089 8.66316 5.08242 8.50638 4.8519 8.31873C4.38962 7.94249 3.81752 7.42498 3.25932 6.85084C2.70251 6.27811 2.14916 5.6384 1.73167 5.01753C1.32935 4.41918 0.994598 3.75466 0.994598 3.14999C0.994619 2.14356 1.31084 1.34147 1.86126 0.793992Z" fill="#B2B7BB"/>
</svg>
