<svg width="40" height="28" viewBox="0 0 40 28" fill="none" xmlns="http://www.w3.org/2000/svg">
<path d="M1.56756 2.46823C2.03728 1.71666 2.68962 1.09623 3.4638 0.664774C4.23797 0.233317 5.10878 0.00487273 5.99506 0.000732848L33.995 0.000735121C34.8813 0.00487515 35.7521 0.233319 36.5263 0.664777C37.3005 1.09623 37.9528 1.71666 38.4226 2.46824L19.9951 15.3657L1.56756 2.46823ZM39.245 6.16074L27.1701 14.6132L38.72 24.9907C39.0642 24.2941 39.2438 23.5277 39.245 22.7507L39.245 6.16074ZM0.745056 6.16073L0.745054 22.7507C0.746268 23.5277 0.925883 24.2941 1.27005 24.9907L12.8201 14.6132L0.745056 6.16073ZM24.23 16.6607L20.9926 18.9182C20.6996 19.1215 20.3516 19.2304 19.9951 19.2304C19.6385 19.2304 19.2905 19.1215 18.9976 18.9182L15.7601 16.6782L3.75505 27.4757C4.45168 27.8199 5.21804 27.9995 5.99505 28.0007L33.995 28.0007C34.7773 27.9961 35.5486 27.8167 36.2525 27.4757L24.23 16.6607Z" fill="#B2B7BB"/>
</svg>
