<svg width="32" height="44" viewBox="0 0 32 44" fill="none" xmlns="http://www.w3.org/2000/svg">
<path d="M21.6878 33.21H10.3134C9.46728 33.21 8.78027 33.8967 8.78027 34.7433C8.78027 35.5903 9.46728 36.2766 10.3134 36.2766H21.6878C22.5339 36.2766 23.2216 35.5903 23.2216 34.7433C23.2216 33.8967 22.5339 33.21 21.6878 33.21Z" fill="#34CE3A"/>
<path d="M13.019 40.9735V41.8088C13.019 42.7518 13.7823 43.516 14.7259 43.516H17.2744C18.2161 43.516 18.9813 42.7518 18.9813 41.8088V40.9735C20.9131 40.8362 22.4422 39.2424 22.4422 37.2764H9.55664C9.55673 39.2424 11.0874 40.8362 13.019 40.9735Z" fill="#34CE3A"/>
<path d="M16.0009 0C7.51342 0 0.632812 6.87995 0.632812 15.3672C0.632812 18.9485 1.86476 22.2359 3.92249 24.8461C5.74214 27.1527 7.46691 29.6743 8.95359 32.2101H23.0458C24.5477 29.6502 26.2413 27.1759 28.0788 24.8443C30.1346 22.2354 31.3672 18.9475 31.3672 15.367C31.3672 6.88004 24.4865 0 16.0009 0Z" fill="#34CE3A"/>
</svg>
