<?xml version="1.0" encoding="utf-8"?>
<!-- Generator: Adobe Illustrator 21.1.0, SVG Export Plug-In . SVG Version: 6.00 Build 0)  -->
<svg version="1.1" id="Слой_1" xmlns="http://www.w3.org/2000/svg" xmlns:xlink="http://www.w3.org/1999/xlink" x="0px" y="0px"
	 viewBox="0 0 29 28" style="enable-background:new 0 0 29 28;" xml:space="preserve">
<style type="text/css">
	.st0{fill:#272A31;}
</style>
<g id="Слой_2">
	<path class="st0" d="M15,0C7.3,0,1,6.3,1,14s6.3,14,14,14s14-6.3,14-14S22.7,0,15,0z M15,3.3c2.7,0,4.8,2.2,4.8,4.8
		c0,2.7-2.2,4.8-4.8,4.8s-4.8-2.2-4.8-4.8C10.2,5.5,12.3,3.3,15,3.3z M23.7,21.6c0,1.1-0.9,2-1.9,2H8.2c-1.1,0-1.9-0.9-1.9-2v-2
		c0-2.8,2.2-5.1,4.8-5.1h7.7c2.7,0,4.8,2.3,4.8,5.1V21.6z"/>
</g>
</svg>
