<svg width="19" height="18" viewBox="0 0 19 18" fill="none" xmlns="http://www.w3.org/2000/svg">
<path d="M17.8465 0.927736L1.14374 0.927734C0.532543 0.927734 0.0351562 1.42512 0.0351562 2.03632L0.0351553 13.0483C0.0351552 13.6595 0.532542 14.1569 1.14374 14.1569L17.8465 14.1569C18.4577 14.1569 18.9551 13.6595 18.9551 13.0483L18.9551 2.03632C18.9551 1.42512 18.4577 0.927736 17.8465 0.927736Z" fill="#F6C035"/>
<path d="M15.4076 16.8913L12.4144 16.8913L12.4144 15.2654L6.57583 15.2654L6.57583 16.8913L3.58265 16.8913C3.27667 16.8913 3.02835 17.1396 3.02835 17.4456C3.02835 17.7516 3.27667 17.9999 3.58264 17.9999L15.4076 17.9999C15.7136 17.9999 15.9619 17.7516 15.9619 17.4456C15.9619 17.1396 15.7136 16.8913 15.4076 16.8913Z" fill="#F6C035"/>
</svg>
