<svg width="71" height="41" viewBox="0 0 71 41" fill="none" xmlns="http://www.w3.org/2000/svg">
<path fill-rule="evenodd" clip-rule="evenodd" d="M4.1922 0C1.77838 0.663879 0 2.87817 0 5.5V35.1562C0 38.3009 2.55841 40.8594 5.70312 40.8594H65.0156C68.1603 40.8594 70.7188 38.3009 70.7188 35.1562V5.5C70.7188 2.87817 68.9404 0.663879 66.5266 0H4.1922ZM4.5625 24.8906V15.7656C4.5625 14.5076 5.58563 13.4844 6.84375 13.4844H9.125C10.3831 13.4844 11.4062 14.5076 11.4062 15.7656V24.8906C11.4062 26.1487 10.3831 27.1719 9.125 27.1719H6.84375C5.58563 27.1719 4.5625 26.1487 4.5625 24.8906ZM9.125 15.7656H6.84375V24.8906H9.12616L9.125 15.7656ZM63.875 13.4844V15.7656H66.1562V13.4844H63.875ZM59.3125 36.2969H15.9688C14.7106 36.2969 13.6875 35.2737 13.6875 34.0156V6.64062C13.6875 5.38257 14.7106 4.35938 15.9688 4.35938H59.3125C60.5706 4.35938 61.5938 5.38257 61.5938 6.64062V34.0156C61.5938 35.2737 60.5706 36.2969 59.3125 36.2969ZM59.3125 6.64062H15.9688V34.0156H59.3137L59.3125 6.64062ZM63.875 27.1719H66.1562V18.0469H63.875V27.1719ZM33.6804 11.2031C36.8422 11.2031 40.0074 10.4561 42.8339 9.04163L43.0746 8.92188H49.0469V24.8906H43.0746L42.8339 24.7709C41.1948 23.9508 39.4406 23.3633 37.6406 23.0074V25.3628C37.6406 25.4872 37.6908 25.6093 37.7786 25.697L39.1155 27.0338C39.6356 27.554 39.9219 28.2452 39.9219 28.981C39.9219 30.499 38.6866 31.7344 37.1684 31.7344H33.5504C32.0322 31.7344 30.7969 30.499 30.7969 28.981V22.4941C28.1974 21.9637 26.2344 19.6597 26.2344 16.9062C26.2344 13.7616 28.7928 11.2031 31.9375 11.2031H33.6804ZM31.9375 13.4844C30.0509 13.4844 28.5156 15.0197 28.5156 16.9062C28.5156 18.7928 30.0509 20.3281 31.9375 20.3281H33.6804C36.5912 20.3281 39.5033 20.903 42.2031 21.9923V11.8202C39.5033 12.9095 36.5912 13.4844 33.6804 13.4844H31.9375ZM37.5026 28.6467L36.1658 27.3099C35.6457 26.7898 35.3594 26.0985 35.3594 25.3628V22.6881C34.8005 22.6414 34.2404 22.6094 33.6804 22.6094H33.0781V28.981C33.0781 29.241 33.2903 29.4531 33.5504 29.4531H37.1684C37.4285 29.4531 37.6406 29.241 37.6406 28.981C37.6406 28.8566 37.5905 28.7345 37.5026 28.6467ZM44.4844 22.6094H46.7656V11.2031H44.4844V22.6094ZM68.4375 35.1562V5.5C68.4375 3.6134 66.9022 2.07812 65.0156 2.07812H5.70312C3.81653 2.07812 2.28125 3.6134 2.28125 5.5V35.1562C2.28125 37.0428 3.81653 38.5781 5.70312 38.5781H65.0156C66.9022 38.5781 68.4375 37.0428 68.4375 35.1562Z" fill="#F7C035"/>
</svg>
