<svg width="12" height="11" viewBox="0 0 12 11" fill="none" xmlns="http://www.w3.org/2000/svg">
<path d="M10.9307 0.223145L2.05856 0.223145C1.47191 0.223145 0.994598 0.765706 0.994598 1.43265L0.994598 7.32981C0.994598 7.99672 1.47187 8.53932 2.05856 8.53932L7.61303 8.53932L9.86339 10.0747C9.94868 10.1717 10.0627 10.2231 10.1787 10.2231C10.2361 10.2231 10.294 10.2105 10.3492 10.1845C10.5157 10.1061 10.6243 9.92138 10.6243 9.71641L10.6243 8.53928L10.9306 8.53928C11.5173 8.53928 11.9946 7.99672 11.9946 7.32977L11.9946 1.43261C11.9946 0.765707 11.5174 0.223145 10.9307 0.223145ZM11.1032 7.32981C11.1032 7.43792 11.0258 7.52589 10.9307 7.52589L10.1788 7.52589C9.94421 7.52589 9.75239 7.73196 9.73479 7.99353C9.73364 8.00461 9.73479 8.9854 9.73479 8.9854L8.11454 7.67617C8.11285 7.67423 8.11107 7.67243 8.10938 7.6705C8.10303 7.66345 8.09702 7.65733 8.09133 7.65183C8.01288 7.57364 7.9104 7.52585 7.79791 7.52585L2.05856 7.52585C1.96342 7.52585 1.88607 7.43788 1.88607 7.32977L1.88607 1.43261C1.88607 1.32446 1.96346 1.23653 2.05856 1.23653L10.9307 1.23653C11.0258 1.23653 11.1032 1.3245 11.1032 1.43261L11.1032 7.32981Z" fill="#B2B7BB"/>
</svg>
