<svg width="60" height="60" viewBox="0 0 60 60" fill="none" xmlns="http://www.w3.org/2000/svg">
<path d="M59.9158 33.3967C59.9156 33.3964 59.9156 33.3962 59.9155 33.3959L48.5873 4.95169C48.3468 4.34733 47.6618 4.05228 47.0574 4.29271C47.057 4.29285 47.0565 4.293 47.0561 4.29329L1.0989 22.593C0.911482 22.674 0.748944 22.8033 0.627776 22.9676C0.245575 23.1662 0.00412236 23.5593 0 23.9899V54.6131C0 55.2636 0.527367 55.7909 1.17782 55.7909H50.6461C51.2965 55.7909 51.8239 55.2636 51.8239 54.6131V37.8881L59.2583 34.9271C59.8625 34.6861 60.1568 34.0009 59.9158 33.3967ZM49.4683 53.4353H2.35563V25.1677H49.4683V53.4353ZM19.6519 22.818L39.3732 14.9596C41.1333 16.8097 43.5721 17.8611 46.1256 17.8712L48.0926 22.818H19.6519ZM51.8239 35.3582V23.9899C51.8239 23.3395 51.2965 22.8121 50.6461 22.8121H50.6272L48.1314 16.5438C48.1038 16.4915 48.0715 16.4417 48.0349 16.3954C47.9085 15.8281 47.3832 15.441 46.804 15.4884C44.4281 15.705 42.1038 14.7042 40.6288 12.8289C40.2617 12.3759 39.6166 12.2633 39.1176 12.5651C39.0617 12.5717 39.0062 12.582 38.9515 12.5957L14.8746 22.1831C14.5833 22.2974 14.3502 22.524 14.228 22.8121H6.91613L46.8347 6.91747L57.2925 33.1769L51.8239 35.3582Z" fill="#F7C035"/>
<path d="M5.5519 45.484C7.83863 46.1599 9.62803 47.9471 10.3067 50.2329C10.4556 50.7319 10.9145 51.0737 11.4351 51.0739C11.4962 51.07 11.5568 51.0609 11.6165 51.0468C11.6693 51.0618 11.7234 51.0728 11.7778 51.0798H40.0454C40.094 51.0734 40.142 51.0636 40.1891 51.0503C40.7776 51.1934 41.3706 50.8326 41.5139 50.2441C41.5143 50.2419 41.5149 50.2398 41.5153 50.2376C42.1923 47.9494 43.982 46.1597 46.2702 45.4828C46.8251 45.3132 47.1699 44.7602 47.0782 44.1872C47.0939 44.1301 47.1052 44.0718 47.1123 44.0129V34.5903C47.1054 34.5313 47.0936 34.473 47.077 34.416C47.1693 33.8429 46.8243 33.2896 46.269 33.1204C43.9808 32.4436 42.1915 30.6532 41.5165 28.3644C41.346 27.8057 40.7876 27.46 40.2115 27.5564C40.157 27.5413 40.1015 27.5302 40.0454 27.5234H11.7778C11.7185 27.5305 11.6598 27.5423 11.6023 27.5588C11.0295 27.4675 10.4768 27.8121 10.3067 28.3668C9.62935 30.6545 7.83981 32.4436 5.5519 33.1204C4.997 33.29 4.65219 33.843 4.74392 34.416C4.7286 34.4733 4.71756 34.5314 4.71094 34.5903V44.0129C4.71771 44.0682 4.72875 44.123 4.74392 44.1766C4.64734 44.7533 4.99288 45.3124 5.5519 45.484ZM7.06657 35.0685C9.43162 34.1186 11.3061 32.2441 12.256 29.8791H39.566C40.5164 32.2441 42.3913 34.1186 44.7567 35.0685V43.5347C42.3924 44.4856 40.5182 46.3598 39.5672 48.7241H12.256C11.3051 46.3598 9.43089 44.4856 7.06657 43.5347V35.0685Z" fill="#F7C035"/>
<path d="M25.9106 46.3682C29.8136 46.3682 32.9775 43.2043 32.9775 39.3013C32.9775 35.3983 29.8136 32.2344 25.9106 32.2344C22.0077 32.2344 18.8438 35.3983 18.8438 39.3013C18.8476 43.2026 22.0093 46.3643 25.9106 46.3682ZM25.9106 34.59C28.5126 34.59 30.6219 36.6993 30.6219 39.3013C30.6219 41.9032 28.5126 44.0125 25.9106 44.0125C23.3087 44.0125 21.1994 41.9032 21.1994 39.3013C21.1994 36.6993 23.3087 34.59 25.9106 34.59Z" fill="#F7C035"/>
<path d="M12.9542 41.0686C13.9299 41.0686 14.7209 40.2776 14.7209 39.3019C14.7209 38.3262 13.9299 37.5352 12.9542 37.5352C11.9786 37.5352 11.1875 38.3262 11.1875 39.3019C11.1875 40.2777 11.9786 41.0686 12.9542 41.0686ZM12.9542 38.713C13.2794 38.713 13.5431 38.9767 13.5431 39.3019C13.5431 39.6271 13.2794 39.8908 12.9542 39.8908C12.629 39.8908 12.3653 39.6271 12.3653 39.3019C12.3653 38.9767 12.629 38.713 12.9542 38.713Z" fill="#F7C035"/>
<path d="M38.8683 41.0686C39.844 41.0686 40.635 40.2776 40.635 39.3019C40.635 38.3262 39.844 37.5352 38.8683 37.5352C37.8926 37.5352 37.1016 38.3262 37.1016 39.3019C37.1016 40.2777 37.8926 41.0686 38.8683 41.0686ZM38.8683 38.713C39.1935 38.713 39.4572 38.9767 39.4572 39.3019C39.4572 39.6271 39.1935 39.8908 38.8683 39.8908C38.5431 39.8908 38.2794 39.6271 38.2794 39.3019C38.2794 38.9767 38.5431 38.713 38.8683 38.713Z" fill="#F7C035"/>
</svg>
