<svg width="25" height="24" viewBox="0 0 25 24" fill="none" xmlns="http://www.w3.org/2000/svg">
<path d="M20.9251 5.97102C18.592 4.11946 15.6769 3.01776 12.5786 2.9331C9.9026 2.85998 7.23524 1.87251 5.06788 0.152536C4.89112 0.01224 4.65787 -0.0346348 4.4407 0.0263493C4.22348 0.0873803 4.04878 0.248911 3.97092 0.460645L1.03829 8.43616C0.933571 8.72102 1.02338 9.04089 1.26113 9.22956C3.6247 11.1053 6.60552 12.1841 9.65454 12.2675C9.73887 12.2698 9.82305 12.273 9.90719 12.277C8.17629 12.7762 6.5331 13.6056 5.06493 14.7707C4.82821 14.9586 4.73803 15.2766 4.84082 15.5607L7.72658 23.5362C7.80359 23.749 7.9782 23.9117 8.19589 23.9734C8.41268 24.0349 8.64696 23.9889 8.82485 23.8478C10.9922 22.1278 13.6596 21.1403 16.3356 21.0672C19.3846 20.9839 22.3654 19.905 24.729 18.0293C24.9671 17.8403 25.0568 17.5197 24.9513 17.2346L22.0187 9.30597C21.9405 9.09461 21.7658 8.9335 21.5487 8.87275C21.3317 8.81205 21.0987 8.85907 20.9222 8.99913C20.6633 9.20463 20.3962 9.3993 20.1222 9.58319L21.1489 6.76222C21.2523 6.47783 21.1622 6.15912 20.9251 5.97102ZM9.69288 10.8617C7.11641 10.7913 4.59534 9.93292 2.53739 8.43382L4.96696 1.82658C7.21892 3.38029 9.87396 4.26599 12.5402 4.33883C15.0878 4.40844 17.5932 5.26733 19.6503 6.76765L18.2475 10.6217C16.9351 11.2105 15.5241 11.5772 14.0877 11.6952C12.6743 11.1836 11.1967 10.9028 9.69288 10.8617ZM21.0244 10.6715L23.4518 17.2341C21.3941 18.7327 18.8731 19.5911 16.2972 19.6614C13.6325 19.7342 10.9791 20.6188 8.72796 22.1708L6.33885 15.5679C9.5449 13.2293 12.4719 13.2182 14.0364 13.11C14.0425 13.1097 14.0485 13.1092 14.0546 13.1086C16.5667 12.9319 18.9732 12.0829 21.0244 10.6715Z" fill="#B2B7BB"/>
<path d="M11.8375 5.61815C10.742 5.21943 9.53258 5.78315 9.13377 6.8789C8.73603 7.97189 9.30158 9.18468 10.3945 9.58247C11.4942 9.98264 12.7008 9.41343 13.0982 8.32176C13.4969 7.22629 12.9331 6.01696 11.8375 5.61815ZM11.7767 7.84078C11.6441 8.20504 11.24 8.39371 10.8755 8.26101C10.5112 8.1284 10.3226 7.72415 10.4552 7.35984C10.5879 6.99543 10.9921 6.80699 11.3565 6.9396C11.7216 7.07249 11.9097 7.47557 11.7767 7.84078Z" fill="#B2B7BB"/>
<path d="M14.1513 14.4177C13.0558 14.8165 12.4918 16.0257 12.8905 17.1213C13.2893 18.2168 14.4985 18.7809 15.5941 18.3821C16.6871 17.9843 17.2527 16.7715 16.8549 15.6785C16.4571 14.5855 15.2441 14.02 14.1513 14.4177ZM15.1132 17.0606C14.749 17.1932 14.3446 17.0047 14.212 16.6404C14.0791 16.2752 14.267 15.8721 14.6323 15.7391C14.9965 15.6065 15.4008 15.7951 15.5335 16.1594C15.6661 16.5237 15.4775 16.928 15.1132 17.0606Z" fill="#B2B7BB"/>
</svg>
