<svg width="33" height="28" viewBox="0 0 33 28" fill="none" xmlns="http://www.w3.org/2000/svg">
<path d="M10.1471 13.8194L13.6765 0H6.61765L1.94118 12.8258C0.352941 16.9806 0 18.5161 0 20.5936C0 24.929 3 28 7.23529 28C11.2059 28 14.2941 25.0194 14.2941 20.5936C14.2941 17.2516 12.7059 14.9032 10.1471 13.8194ZM28.8529 13.8194L32.3824 0H25.3235L20.6471 12.8258C19.0588 16.9806 18.7059 18.5161 18.7059 20.5936C18.7059 24.929 21.7059 28 25.9412 28C29.9118 28 33 25.0194 33 20.5936C33 17.2516 31.4118 14.9032 28.8529 13.8194Z" fill="#F6C035"/>
</svg>
