<svg width="43" height="42" viewBox="0 0 43 42" fill="none" xmlns="http://www.w3.org/2000/svg">
<g clip-path="url(#clip0_243_2278)">
<path d="M41.5125 24.0544L39.9782 21.6965C39.7024 21.2735 39.7024 20.7264 39.9782 20.3025L41.5132 17.9437C42.9106 15.7923 41.9649 12.9105 39.5802 11.9991L36.9538 10.9928C36.4817 10.812 36.1595 10.3691 36.1335 9.86475L35.989 7.05585C35.8581 4.50182 33.4069 2.71765 30.9306 3.3803L28.2149 4.11078C27.7285 4.24154 27.2055 4.07329 26.8887 3.6802L25.1199 1.49244C23.5101 -0.499676 20.4723 -0.496395 18.8675 1.49384L17.0987 3.68037C16.7819 4.07354 16.2598 4.2426 15.7734 4.11095L13.0577 3.38095C10.5881 2.71577 8.12963 4.4987 7.99846 7.05601L7.85392 9.8654C7.82808 10.3696 7.50677 10.8123 7.03468 10.993L4.40822 11.9984C2.02055 12.9128 1.07793 15.7959 2.47606 17.9457L4.00922 20.3017C4.28501 20.7256 4.28501 21.2736 4.01012 21.6966L2.47606 24.0545C1.07859 26.1995 2.01907 29.0878 4.40822 30.0008L7.03468 31.0066C7.50676 31.1877 7.82808 31.6304 7.85392 32.1347L7.99846 34.9441C8.12938 37.4977 10.5826 39.283 13.0577 38.6192L15.7734 37.8883C16.259 37.7579 16.7801 37.9258 17.0996 38.3202L18.8675 40.5068C20.4741 42.4949 23.5071 42.5 25.1209 40.5077L26.8888 38.3202C27.2074 37.9258 27.7278 37.7588 28.2141 37.8883L30.9325 38.6201C33.3976 39.2808 35.8578 37.5049 35.989 34.944L36.1335 32.1355C36.1594 31.6305 36.4816 31.1877 36.9538 31.0065L39.5802 30.0017C41.9672 29.0877 42.9107 26.2042 41.5125 24.0544ZM16.4498 13.6128C17.9617 13.6128 19.1914 14.8426 19.1914 16.3544C19.1914 17.8662 17.9616 19.0959 16.4498 19.0959C14.938 19.0959 13.7083 17.8661 13.7083 16.3544C13.7083 14.8426 14.9381 13.6128 16.4498 13.6128ZM26.5023 29.1485C24.9905 29.1485 23.7607 27.9187 23.7607 26.4069C23.7607 24.8951 24.9906 23.6654 26.5023 23.6654C28.0141 23.6654 29.2439 24.8952 29.2439 26.4069C29.2439 27.9187 28.0141 29.1485 26.5023 29.1485ZM28.8424 15.9528L16.0483 28.7468C15.5128 29.2823 14.6454 29.2823 14.1099 28.7468C13.5745 28.2114 13.5745 27.3439 14.1099 26.8085L26.9039 14.0144C27.4393 13.479 28.3069 13.479 28.8423 14.0144C29.3778 14.5499 29.3778 15.4173 28.8424 15.9528Z" fill="#F05C44"/>
</g>
<defs>
<clipPath id="clip0_243_2278">
<rect width="42" height="42" fill="white" transform="translate(0.994141)"/>
</clipPath>
</defs>
</svg>
