<svg width="23" height="18" viewBox="0 0 23 18" fill="none" xmlns="http://www.w3.org/2000/svg">
<path d="M11.9951 8.39549C11.9429 8.39549 11.89 8.38922 11.839 8.37598L6.19434 6.96484L6.19434 11.5784C6.19434 13.4189 11.0264 13.512 11.9951 13.512C12.9638 13.512 17.7959 13.4189 17.7959 11.5784L17.7959 6.96484L12.1512 8.37594C12.1002 8.38917 12.0474 8.39549 11.9951 8.39549Z" fill="#F7C035"/>
<path d="M21.7061 12.7636L21.7061 4.66924L22.5067 4.46909C22.7937 4.39733 22.9951 4.1399 22.9951 3.84406C22.9951 3.54822 22.7937 3.2908 22.5067 3.21904L12.1512 0.640914C12.0493 0.614488 11.941 0.614488 11.839 0.640914L1.48354 3.21904C1.19655 3.2908 0.995117 3.54822 0.995117 3.84406C0.995117 4.1399 1.19655 4.39733 1.48354 4.46909L11.839 7.04721C11.89 7.06045 11.9429 7.06672 11.9951 7.06672C12.0474 7.06672 12.1002 7.06045 12.1512 7.04721L20.417 4.9915L20.417 12.7636L19.1613 16.5308C19.0274 16.9323 19.3459 17.3727 19.7725 17.3792L22.3506 17.3792C22.5307 17.3792 22.7248 17.2988 22.8648 17.1037C22.9584 16.9726 23.0418 16.7713 22.9618 16.5307L21.7061 12.7636Z" fill="#F7C035"/>
</svg>
