<svg width="21" height="20" viewBox="0 0 21 20" fill="none" xmlns="http://www.w3.org/2000/svg">
<path d="M12.4772 12.23C11.8087 12.769 10.9759 13.0629 10.1172 13.0629C9.2585 13.0629 8.42567 12.769 7.75719 12.23C7.55297 12.0603 7.28969 11.9786 7.02527 12.003C6.76084 12.0274 6.51693 12.1558 6.34719 12.36C6.17745 12.5642 6.09579 12.8275 6.12017 13.0919C6.14455 13.3563 6.27297 13.6003 6.47719 13.77C7.49853 14.6226 8.78675 15.0896 10.1172 15.0896C11.4476 15.0896 12.7359 14.6226 13.7572 13.77C13.9614 13.6003 14.0898 13.3563 14.1142 13.0919C14.1386 12.8275 14.0569 12.5642 13.8872 12.36C13.8031 12.2589 13.7 12.1753 13.5837 12.1141C13.4673 12.0528 13.34 12.0151 13.2091 12.003C12.9447 11.9786 12.6814 12.0603 12.4772 12.23ZM7.11719 9C7.31497 9 7.50831 8.94135 7.67276 8.83147C7.83721 8.72159 7.96538 8.56541 8.04107 8.38268C8.11676 8.19996 8.13656 7.99889 8.09798 7.80491C8.05939 7.61093 7.96415 7.43275 7.8243 7.29289C7.68444 7.15304 7.50626 7.0578 7.31228 7.01921C7.1183 6.98063 6.91723 7.00043 6.73451 7.07612C6.55178 7.15181 6.3956 7.27998 6.28572 7.44443C6.17584 7.60888 6.11719 7.80222 6.11719 8C6.11719 8.26522 6.22255 8.51957 6.41008 8.70711C6.59762 8.89464 6.85197 9 7.11719 9ZM13.1172 7C12.9194 7 12.7261 7.05865 12.5616 7.16853C12.3972 7.27841 12.269 7.43459 12.1933 7.61732C12.1176 7.80004 12.0978 8.00111 12.1364 8.19509C12.175 8.38907 12.2702 8.56725 12.4101 8.70711C12.5499 8.84696 12.7281 8.9422 12.9221 8.98079C13.1161 9.01937 13.3171 8.99957 13.4999 8.92388C13.6826 8.84819 13.8388 8.72002 13.9487 8.55557C14.0585 8.39112 14.1172 8.19778 14.1172 8C14.1172 7.73478 14.0118 7.48043 13.8243 7.29289C13.6368 7.10536 13.3824 7 13.1172 7ZM10.1172 0C8.13938 0 6.20598 0.58649 4.56149 1.6853C2.917 2.78412 1.63527 4.3459 0.878397 6.17317C0.12152 8.00043 -0.076513 10.0111 0.309339 11.9509C0.695191 13.8907 1.6476 15.6725 3.04612 17.0711C4.44465 18.4696 6.22648 19.422 8.16629 19.8079C10.1061 20.1937 12.1168 19.9957 13.944 19.2388C15.7713 18.4819 17.3331 17.2002 18.4319 15.5557C19.5307 13.9112 20.1172 11.9778 20.1172 10C20.1172 8.68678 19.8585 7.38642 19.356 6.17317C18.8534 4.95991 18.1168 3.85752 17.1883 2.92893C16.2597 2.00035 15.1573 1.26375 13.944 0.761205C12.7308 0.258658 11.4304 0 10.1172 0ZM10.1172 18C8.53494 18 6.98822 17.5308 5.67263 16.6518C4.35704 15.7727 3.33166 14.5233 2.72616 13.0615C2.12065 11.5997 1.96223 9.99113 2.27091 8.43928C2.57959 6.88743 3.34152 5.46197 4.46034 4.34315C5.57916 3.22433 7.00462 2.4624 8.55647 2.15372C10.1083 1.84504 11.7168 2.00346 13.1787 2.60896C14.6405 3.21447 15.8899 4.23984 16.7689 5.55544C17.648 6.87103 18.1172 8.41775 18.1172 10C18.1172 12.1217 17.2743 14.1566 15.774 15.6569C14.2738 17.1571 12.2389 18 10.1172 18Z" fill="#898D9C"/>
</svg>
