<?xml version="1.0" encoding="utf-8"?>
<!-- Generator: Adobe Illustrator 21.1.0, SVG Export Plug-In . SVG Version: 6.00 Build 0)  -->
<svg version="1.1" id="Слой_1" xmlns="http://www.w3.org/2000/svg" xmlns:xlink="http://www.w3.org/1999/xlink" x="0px" y="0px"
	 viewBox="0 0 19.6 15.6" style="enable-background:new 0 0 19.6 15.6;" xml:space="preserve">
<style type="text/css">
	.st0{fill:#FFFFFF;}
</style>
<path class="st0" d="M19.6,1.9c-0.7,0.3-1.5,0.5-2.3,0.6c0.8-0.5,1.5-1.3,1.8-2.2c-0.8,0.5-1.6,0.8-2.6,1C15.8,0.5,14.7,0,13.6,0
	c-2.2,0-4,1.8-4,4c0,0.3,0,0.6,0.1,0.9C6.4,4.7,3.4,3.1,1.4,0.7C1.1,1.3,0.9,2,0.9,2.7c0,1.4,0.7,2.6,1.8,3.3C2,6,1.4,5.8,0.9,5.5
	c0,1.9,1.4,3.6,3.2,3.9C3.8,9.5,3.4,9.5,3,9.5c-0.3,0-0.5,0-0.8-0.1c0.5,1.6,2,2.8,3.8,2.8c-1.4,1.1-3.1,1.7-5,1.7
	c-0.3,0-0.6,0-1-0.1c1.8,1.1,3.9,1.8,6.2,1.8c7.4,0,11.4-6.1,11.4-11.4V3.7C18.4,3.4,19.1,2.7,19.6,1.9z"/>
</svg>
