<svg width="16" height="18" viewBox="0 0 16 18" fill="none" xmlns="http://www.w3.org/2000/svg">
<path d="M0.300415 14.4176L0.300415 16.2089C0.300414 17.1983 1.06597 18.0003 2.01034 18.0003L13.9798 18.0003C14.9242 18.0003 15.6897 17.1983 15.6897 16.2089L15.6897 14.4176C15.6897 11.9443 13.7758 9.93921 11.4149 9.93921L4.57522 9.93921C2.21432 9.93921 0.300415 11.9443 0.300415 14.4176Z" fill="#F7C035"/>
<path d="M7.99506 8.51909C10.3475 8.51909 12.2546 6.61202 12.2546 4.25954C12.2546 1.90706 10.3475 5.36702e-07 7.99506 3.4575e-07C5.64258 1.54797e-07 3.73552 1.90706 3.73552 4.25954C3.73552 6.61202 5.64258 8.51909 7.99506 8.51909Z" fill="#F7C035"/>
</svg>
