<svg width="19" height="18" viewBox="0 0 19 18" fill="none" xmlns="http://www.w3.org/2000/svg">
<path d="M12.8922 9.23294C13.4925 8.74391 13.9739 8.13905 14.3039 7.45944C14.6339 6.77982 14.8047 6.04134 14.8047 5.29412C14.8047 3.89003 14.2121 2.54345 13.1572 1.55061C12.1023 0.557772 10.6715 0 9.17969 0C7.68784 0 6.2571 0.557772 5.20221 1.55061C4.14732 2.54345 3.55469 3.89003 3.55469 5.29412C3.55468 6.04134 3.72546 6.77982 4.05545 7.45944C4.38544 8.13905 4.86691 8.74391 5.46719 9.23294C3.89234 9.90411 2.55621 10.988 1.61854 12.3549C0.68087 13.7219 0.181343 15.3141 0.179688 16.9412C0.179688 17.222 0.298214 17.4913 0.509192 17.6899C0.720171 17.8884 1.00632 18 1.30469 18C1.60306 18 1.8892 17.8884 2.10018 17.6899C2.31116 17.4913 2.42969 17.222 2.42969 16.9412C2.42969 15.2563 3.14085 13.6404 4.40672 12.449C5.67259 11.2576 7.38948 10.5882 9.17969 10.5882C10.9699 10.5882 12.6868 11.2576 13.9527 12.449C15.2185 13.6404 15.9297 15.2563 15.9297 16.9412C15.9297 17.222 16.0482 17.4913 16.2592 17.6899C16.4702 17.8884 16.7563 18 17.0547 18C17.3531 18 17.6392 17.8884 17.8502 17.6899C18.0612 17.4913 18.1797 17.222 18.1797 16.9412C18.178 15.3141 17.6785 13.7219 16.7408 12.3549C15.8032 10.988 14.467 9.90411 12.8922 9.23294ZM9.17969 8.47059C8.51218 8.47059 7.85965 8.28429 7.30464 7.93526C6.74962 7.58622 6.31704 7.09012 6.06159 6.5097C5.80615 5.92928 5.73931 5.29059 5.86954 4.67442C5.99976 4.05824 6.3212 3.49225 6.7932 3.04801C7.2652 2.60378 7.86657 2.30125 8.52126 2.17868C9.17594 2.05612 9.85454 2.11902 10.4712 2.35944C11.0879 2.59986 11.615 3.007 11.9859 3.52936C12.3567 4.05173 12.5547 4.66587 12.5547 5.29412C12.5547 6.13657 12.1991 6.94452 11.5662 7.54022C10.9332 8.13593 10.0748 8.47059 9.17969 8.47059Z" fill="#F7C035"/>
</svg>
