<svg width="60" height="60" viewBox="0 0 60 60" fill="none" xmlns="http://www.w3.org/2000/svg">
<path d="M9.00014 48.5128C4.46742 43.4144 1.97506 36.8232 2.00019 30.0017C2.00369 14.5359 14.5452 2.00133 30.0124 2.00483C35.1155 2.00595 40.1212 3.40131 44.4889 6.04005L45.5259 4.33022C31.344 -4.24092 12.8984 0.306494 4.32642 14.4871C1.49707 19.1677 0.0010754 24.5326 0.000200407 30.0018C-0.0269244 37.3872 2.70031 44.5173 7.64915 49.9998H4.00017V51.9996H10.0001C10.5524 51.9996 11.0001 51.5519 11.0001 50.9997V45.0003H9.00014V48.5128Z" fill="white"/>
<path d="M52.3509 10.0032H55.9998V8.0034H49.9999C49.4476 8.0034 48.9999 8.45111 48.9999 9.0033V15.0027H50.9999V11.4901C55.5326 16.5884 58.0249 23.1796 57.9998 30.0012C57.9946 45.4675 45.4513 58.0012 29.9835 57.9959C24.8775 57.9942 19.8692 56.5968 15.5001 53.9548L14.4631 55.6646C28.6433 64.2408 47.0915 59.6989 55.6685 45.52C58.5002 40.8388 59.9981 35.4723 59.9998 30.0012C60.0269 22.6159 57.2997 15.4857 52.3509 10.0032Z" fill="white"/>
<path d="M30 52.9989C30.15 52.9989 30.3 52.9989 30.363 52.9889C30.381 52.9889 30.398 52.9889 30.415 52.9889H30.438C43.1351 52.7543 53.2377 42.2721 53.0031 29.5762C52.891 23.5078 50.3836 17.73 46.0279 13.5028C41.8562 9.42038 36.2747 7.09736 30.438 7.01449C30.1718 6.99349 29.9043 6.99349 29.638 7.01449C16.9371 7.21647 6.80478 17.6754 7.00678 30.375C7.10353 36.4597 9.60827 42.2578 13.9721 46.4995C18.1435 50.5828 23.7252 52.9063 29.562 52.9889C29.7 52.9989 29.85 52.9989 30 52.9989ZM32.722 50.7991C35.0587 48.6913 37.025 46.2065 38.539 43.4479C40.3369 44.077 42.0601 44.9026 43.6769 45.9096C40.5857 48.5813 36.7751 50.282 32.722 50.7991ZM45.1659 44.4888C43.3751 43.3269 41.4564 42.3747 39.448 41.651C40.9953 38.3064 41.8534 34.6845 41.9709 31.0011H50.9509C50.7268 36.0508 48.6701 40.8457 45.1659 44.4888ZM50.9509 29.0013H41.9709C41.8538 25.3183 40.9958 21.6965 39.448 18.3524C41.4566 17.6276 43.3754 16.6748 45.1669 15.5126C48.6701 19.1568 50.7261 23.9517 50.9509 29.0013ZM43.6769 14.0938C42.0604 15.1006 40.3377 15.9259 38.54 16.5545C37.0227 13.7922 35.0524 11.3042 32.711 9.19427C36.7692 9.71147 40.5842 11.4161 43.6769 14.0938ZM31 10.3472C33.2322 12.2823 35.1209 14.5812 36.586 17.1465C34.7586 17.6174 32.8857 17.8899 31 17.9594V10.3472ZM31 19.9652C33.207 19.8885 35.3972 19.5529 37.526 18.9653C39.0181 22.1085 39.8501 25.5241 39.971 29.0013H31V19.9652ZM31 31.0011H39.971C39.8502 34.4791 39.0177 37.8954 37.525 41.0391C35.3965 40.4523 33.2066 40.1167 31 40.0392V31.0011ZM31 42.043C32.8859 42.1126 34.7587 42.3856 36.586 42.8569C35.1209 45.421 33.2322 47.7186 31 49.6522V42.043ZM27.278 9.20327C24.9413 11.3111 22.9751 13.7959 21.4611 16.5545C19.6631 15.9255 17.94 15.0999 16.3231 14.0928C19.4142 11.4211 23.2249 9.72022 27.278 9.20327ZM14.8331 15.5126C16.6245 16.6747 18.5433 17.6272 20.5521 18.3514C19.0047 21.696 18.1466 25.3179 18.0291 29.0013H9.04915C9.27377 23.9517 11.3299 19.1568 14.8331 15.5126ZM9.04915 31.0011H18.0291C18.1462 34.6841 19.0042 38.3059 20.5521 41.65C18.5435 42.3748 16.6246 43.3276 14.8331 44.4898C11.3299 40.8457 9.27377 36.0507 9.04915 31.0011ZM16.3231 45.9086C17.9397 44.902 19.6625 44.0768 21.4601 43.4479C22.9769 46.2105 24.9474 48.6986 27.289 50.8081C23.2308 50.291 19.4157 48.5865 16.3231 45.9086ZM29 49.6552C26.7678 47.7201 24.8792 45.4212 23.4141 42.8559C25.2414 42.385 27.1143 42.1125 29 42.043V49.6552ZM29 40.0432C26.7935 40.1208 24.6035 40.4564 22.4751 41.0431C20.9814 37.8983 20.1489 34.4805 20.0291 31.0011H29V40.0432ZM29 29.0013H20.0291C20.1499 25.5234 20.9821 22.1072 22.4741 18.9633C24.6028 19.5505 26.793 19.8861 29 19.9632V29.0013ZM29 17.9594C27.1142 17.8898 25.2413 17.6168 23.4141 17.1455C24.8795 14.5816 26.7682 12.2841 29 10.3502V17.9594Z" fill="white"/>
</svg>
