<svg width="17" height="20" viewBox="0 0 17 20" fill="none" xmlns="http://www.w3.org/2000/svg">
<path d="M0.179688 10C0.179688 10.2652 0.285045 10.5196 0.472581 10.7071C0.660117 10.8946 0.914471 11 1.17969 11H8.76969L6.46969 13.29C6.37596 13.383 6.30157 13.4936 6.2508 13.6154C6.20003 13.7373 6.17389 13.868 6.17389 14C6.17389 14.132 6.20003 14.2627 6.2508 14.3846C6.30157 14.5064 6.37596 14.617 6.46969 14.71C6.56265 14.8037 6.67325 14.8781 6.79511 14.9289C6.91697 14.9797 7.04768 15.0058 7.17969 15.0058C7.3117 15.0058 7.44241 14.9797 7.56426 14.9289C7.68612 14.8781 7.79672 14.8037 7.88969 14.71L11.8897 10.71C11.9807 10.6149 12.0521 10.5028 12.0997 10.38C12.1997 10.1365 12.1997 9.86346 12.0997 9.62C12.0521 9.49725 11.9807 9.3851 11.8897 9.29L7.88969 5.29C7.79645 5.19676 7.68576 5.1228 7.56394 5.07234C7.44212 5.02188 7.31155 4.99591 7.17969 4.99591C7.04783 4.99591 6.91726 5.02188 6.79544 5.07234C6.67362 5.1228 6.56293 5.19676 6.46969 5.29C6.37645 5.38324 6.30249 5.49393 6.25203 5.61575C6.20157 5.73757 6.1756 5.86814 6.1756 6C6.1756 6.13186 6.20157 6.26243 6.25203 6.38425C6.30249 6.50607 6.37645 6.61676 6.46969 6.71L8.76969 9H1.17969C0.914471 9 0.660117 9.10536 0.472581 9.29289C0.285045 9.48043 0.179688 9.73478 0.179688 10ZM13.1797 0H3.17969C2.38404 0 1.62098 0.316071 1.05837 0.87868C0.495758 1.44129 0.179688 2.20435 0.179688 3V6C0.179688 6.26522 0.285045 6.51957 0.472581 6.70711C0.660117 6.89464 0.914471 7 1.17969 7C1.4449 7 1.69926 6.89464 1.88679 6.70711C2.07433 6.51957 2.17969 6.26522 2.17969 6V3C2.17969 2.73478 2.28504 2.48043 2.47258 2.29289C2.66012 2.10536 2.91447 2 3.17969 2H13.1797C13.4449 2 13.6993 2.10536 13.8868 2.29289C14.0743 2.48043 14.1797 2.73478 14.1797 3V17C14.1797 17.2652 14.0743 17.5196 13.8868 17.7071C13.6993 17.8946 13.4449 18 13.1797 18H3.17969C2.91447 18 2.66012 17.8946 2.47258 17.7071C2.28504 17.5196 2.17969 17.2652 2.17969 17V14C2.17969 13.7348 2.07433 13.4804 1.88679 13.2929C1.69926 13.1054 1.4449 13 1.17969 13C0.914471 13 0.660117 13.1054 0.472581 13.2929C0.285045 13.4804 0.179688 13.7348 0.179688 14V17C0.179688 17.7956 0.495758 18.5587 1.05837 19.1213C1.62098 19.6839 2.38404 20 3.17969 20H13.1797C13.9753 20 14.7384 19.6839 15.301 19.1213C15.8636 18.5587 16.1797 17.7956 16.1797 17V3C16.1797 2.20435 15.8636 1.44129 15.301 0.87868C14.7384 0.316071 13.9753 0 13.1797 0Z" fill="#F6C035"/>
</svg>
