<svg width="17" height="12" viewBox="0 0 17 12" fill="none" xmlns="http://www.w3.org/2000/svg">
<path d="M4.04439 0.854042C4.23966 0.658777 4.23966 0.342197 4.04439 0.146935C3.84913 -0.0483271 3.53255 -0.0483271 3.33729 0.146935C0.213092 3.27113 0.213091 8.33644 3.33729 11.4606C3.53255 11.6559 3.84913 11.6559 4.04439 11.4606C4.23966 11.2654 4.23966 10.9488 4.04439 10.7535C1.31072 8.01984 1.31072 3.58771 4.04439 0.854042Z" fill="#F7C035"/>
<path d="M14.651 0.146935C14.4557 -0.0483272 14.1391 -0.0483273 13.9439 0.146935C13.7486 0.342197 13.7486 0.658777 13.9439 0.854042C16.6775 3.58771 16.6775 8.01984 13.9439 10.7535C13.7486 10.9488 13.7486 11.2654 13.9439 11.4606C14.1391 11.6559 14.4557 11.6559 14.651 11.4606C17.7752 8.33644 17.7752 3.27113 14.651 0.146935Z" fill="#F7C035"/>
<path d="M6.45498 3.26469C5.05264 4.66702 5.05264 6.94064 6.45498 8.34299C6.65023 8.53824 6.65023 8.85484 6.45498 9.05009C6.25973 9.24534 5.94313 9.24534 5.74787 9.05009C3.95501 7.25724 3.95501 4.35044 5.74787 2.55758C5.94313 2.36232 6.25973 2.36232 6.45498 2.55758C6.65023 2.75284 6.65023 3.06942 6.45498 3.26469Z" fill="#F7C035"/>
<path d="M11.5333 2.55758C11.7285 2.36232 12.0451 2.36232 12.2404 2.55758C14.0333 4.35044 14.0333 7.25724 12.2404 9.05009C12.0451 9.24534 11.7285 9.24534 11.5333 9.05009C11.338 8.85484 11.338 8.53824 11.5333 8.34299C12.9356 6.94064 12.9356 4.66702 11.5333 3.26469C11.338 3.06942 11.338 2.75284 11.5333 2.55758Z" fill="#F7C035"/>
<path d="M9.9584 4.83958C10.4909 5.37212 10.4909 6.23552 9.9584 6.76807C9.42585 7.30057 8.56246 7.30057 8.02991 6.76807C7.49736 6.23552 7.49736 5.37212 8.02991 4.83958C8.56246 4.30705 9.42586 4.30705 9.9584 4.83958Z" fill="#F7C035"/>
</svg>
