<svg width="21" height="16" viewBox="0 0 21 16" fill="none" xmlns="http://www.w3.org/2000/svg">
<path d="M20.6652 6.10054C20.6652 5.65448 20.5909 5.13408 20.5909 4.53933C20.5165 3.94458 20.4422 3.34983 20.3678 2.82943C20.2191 2.23468 19.9961 1.78863 19.5501 1.41691C19.1783 1.04519 18.6579 0.822154 18.1375 0.74781C16.4276 0.52478 13.9 0.450441 10.4802 0.45044C7.06037 0.45044 4.45833 0.524779 2.82278 0.747809C2.30237 0.822152 1.78197 1.04519 1.41026 1.41691C1.03854 1.78862 0.741161 2.23468 0.592474 2.82943C0.443787 3.34983 0.369453 3.87024 0.369453 4.53933C0.295109 5.13408 0.295105 5.65447 0.295105 6.10053C0.295104 6.5466 0.295104 7.067 0.295104 7.81044C0.295104 8.55387 0.295104 9.14862 0.295104 9.52034C0.295104 9.9664 0.369452 10.4868 0.369452 11.0816C0.443795 11.6763 0.51813 12.271 0.592473 12.7914C0.74116 13.3862 0.964195 13.8323 1.41026 14.204C1.78197 14.5757 2.30237 14.7987 2.82278 14.8731C4.53268 15.0961 7.06037 15.1704 10.4802 15.1704C13.9 15.1704 16.502 15.0961 18.1375 14.8731C18.6579 14.7987 19.1783 14.5757 19.5501 14.204C19.9218 13.8323 20.2191 13.3862 20.3678 12.7914C20.5165 12.271 20.5909 11.7506 20.5909 11.0816C20.6652 10.4868 20.6652 9.9664 20.6652 9.52034C20.6652 9.07428 20.6652 8.55387 20.6652 7.81044C20.6652 7.067 20.6652 6.47225 20.6652 6.10054ZM14.4204 8.40519L8.54723 12.048C8.47289 12.1224 8.3242 12.1967 8.17551 12.1967C8.02683 12.1967 7.95248 12.1967 7.8038 12.1224C7.58077 11.9737 7.43208 11.7506 7.43208 11.4533L7.43208 4.09326C7.43208 3.79589 7.58077 3.57286 7.8038 3.42418C8.02683 3.27549 8.3242 3.27549 8.54723 3.42418L14.4204 7.067C14.6434 7.21569 14.7921 7.43872 14.7921 7.66175C14.7921 7.88478 14.6434 8.2565 14.4204 8.40519Z" fill="white"/>
</svg>
