<svg width="477" height="542" viewBox="0 0 477 542" fill="none" xmlns="http://www.w3.org/2000/svg">
<g clip-path="url(#clip0_243_12712)">
<path d="M222.893 588.019C222.656 580.553 222.413 573.08 222.075 565.614C221.396 550.509 220.342 535.408 218.224 520.431C214.676 495.356 205.342 473.044 198.813 448.837C196.225 439.243 194.192 429.502 192.644 419.69C189.748 401.383 188.597 382.983 188.755 364.496C188.912 346.377 190.221 328.081 196.578 310.953C200.031 301.641 203.86 289.97 211.424 283.135C212.621 282.054 214.747 280.864 215.733 279.854C215.733 279.847 215.733 279.835 215.733 279.828C216.108 279.543 216.472 279.246 216.817 278.935C217.076 277.26 217.391 275.59 217.639 273.893C217.661 273.766 217.676 273.634 217.695 273.507C213.787 273.191 209.474 276.018 206.039 277.512C197.853 281.078 189.448 284.122 181.288 287.767C177.534 289.445 173.72 291.202 170.056 292.985C166.475 294.726 163.662 297.662 160.066 299.415C156.046 301.374 152.018 303.315 147.93 305.143C144.84 306.528 141.739 307.898 138.66 309.317C140.861 315.259 143.726 320.961 147.18 326.272C147.071 326.655 146.963 327.038 146.843 327.421C143.809 337.079 137.891 345.42 133.852 354.631C132.862 356.891 132.03 359.199 131.208 361.493L131.216 361.497C133.065 362.506 133.143 364.762 133.77 366.71C138.982 382.877 130.436 392.217 128.088 407.344C126.205 419.457 130.732 430.41 130.229 442.234C129.903 449.865 125.673 456.401 123.712 463.608C122.834 466.836 122.223 470.12 121.762 473.435C117.381 504.999 110.29 536.403 104.113 567.716C102.632 575.215 101.353 583.32 99.418 591.244L99.4367 591.247C101.424 615.47 101.683 640.24 101.499 664.718H222.754C223.286 653.78 223.684 642.83 223.718 631.877C223.766 617.133 223.361 602.711 222.893 588.019ZM196.116 545.637C194.369 541.721 196.668 536.489 201.217 536.174C203.313 536.027 204.607 536.102 206.358 537.469C210.101 540.396 208.529 545.186 205.912 548.29C203.32 551.376 197.496 548.73 196.116 545.637ZM210.183 618.754C207.588 621.832 201.772 619.193 200.388 616.1C198.64 612.182 200.939 606.953 205.484 606.637C207.581 606.491 208.878 606.566 210.626 607.932C214.376 610.86 212.797 615.65 210.183 618.754Z" fill="#3582F6"/>
<path d="M132.039 112.117C133.216 112.852 133.276 114.542 132.26 115.364C131.056 116.34 129.676 116.49 128.21 116.291C126.196 116.017 124.096 115.882 122.075 115.784C119.689 115.664 117.297 115.653 114.908 115.57C113.172 115.51 110.115 115.837 108.72 114.564C106.95 112.946 108.465 111.366 110.329 110.976C112.028 110.63 113.794 110.987 115.478 111.054C116.704 111.103 117.957 111.163 119.198 111.205C121.85 111.295 124.505 111.253 127.152 111.276C128.78 111.291 130.606 111.212 132.039 112.117Z" fill="#FFBC3B"/>
<path d="M115.454 73.6286C117.712 73.7713 117.543 76.2525 116.171 77.3711C115.979 78.1255 114.794 78.3358 114.19 78.79C113.279 79.4694 108.31 83.3206 107.538 84.1465C106.844 84.8859 106.015 85.2576 105.19 85.8506C104.11 86.6239 100.521 89.3603 99.3697 87.2357C99.0284 86.6051 99.2647 85.7793 99.6022 85.2125C100.345 83.97 101.744 83.0729 102.996 82.4085C104.166 81.7929 105.486 80.9408 106.315 79.9048C107.106 78.9176 112.154 75.4116 113.118 74.6309C113.774 74.1054 114.562 73.5686 115.454 73.6286Z" fill="#FFBC3B"/>
<path d="M115.455 153.087C115.766 154.439 114.63 155.685 113.332 155.55C111.787 155.4 110.7 154.529 109.8 153.358C108.562 151.744 107.167 150.167 105.802 148.673C104.19 146.909 102.498 145.212 100.863 143.471C99.6744 142.202 97.2705 140.287 97.173 138.399C97.0492 136.005 99.2393 135.944 100.833 136.984C102.284 137.93 103.29 139.428 104.437 140.663C105.277 141.567 106.125 142.491 106.972 143.395C108.791 145.329 110.707 147.164 112.575 149.052C113.719 150.205 115.069 151.44 115.455 153.087Z" fill="#FFBC3B"/>
<path d="M90.3112 115.008C90.8625 118.462 86.8836 118.345 84.3672 118.199C85.1172 116.701 86.0698 115.32 87.3486 114.212C88.5861 113.139 90.0075 113.09 90.3112 115.008Z" fill="#FFBC3B"/>
<path d="M84.0653 160.896C84.0653 161.001 83.709 160.844 83.514 160.776C83.1428 160.656 82.7565 160.513 82.4002 160.367C81.5527 160.025 80.9489 159.759 80.0676 159.552C75.9762 158.584 71.9035 157.116 67.9021 155.84H67.7895C67.7858 154.695 67.8458 153.535 67.7708 152.405C67.722 151.681 67.452 150.859 67.4258 150.082L67.4858 150.078C67.4858 150.457 74.8474 152.972 75.5374 153.182C78.215 153.989 80.9414 154.515 83.4503 155.787C83.769 155.949 84.1891 156.366 84.5078 156.257H84.6466C84.6353 157.826 84.5566 159.395 84.2903 160.934L84.0653 160.896Z" fill="#DEDEDE"/>
<path d="M83.5136 160.776C83.7086 160.844 84.0648 160.998 84.0648 160.896L84.2861 160.934C84.2186 161.336 84.1398 161.741 84.0461 162.139C83.7536 163.348 83.5661 164.534 82.951 165.63C82.7748 165.941 82.5873 166.238 82.381 166.523L82.3398 166.493C81.2597 166.058 80.1534 165.431 79.0133 165.055C75.4469 163.888 71.8505 162.323 68.3966 160.855L68.0216 160.859C68.0066 159.819 68.0516 158.772 67.9091 157.736C67.8228 157.113 67.7966 156.478 67.7891 155.836H67.9016C71.903 157.113 75.9757 158.58 80.0671 159.549C80.9484 159.759 81.5522 160.022 82.3998 160.363C82.756 160.517 83.146 160.66 83.5136 160.776Z" fill="#DEDEDE"/>
<path d="M72.4767 148.184C72.458 148.184 72.4429 148.184 72.4242 148.184C72.1392 144.07 70.8491 140.088 70.2228 136C69.4391 130.865 68.9703 125.415 67.1777 120.505C66.8889 119.72 66.5664 118.947 66.1914 118.2C66.4952 118.181 66.7802 118.166 67.0314 118.151C67.999 118.102 69.0453 117.738 69.9603 117.415C71.0029 117.044 71.8654 116.338 72.6755 115.606C73.4405 114.927 74.3668 114.292 74.9331 113.437C74.9931 113.343 75.0568 113.241 75.1168 113.144C76.4294 115.081 78.3045 116.605 80.6071 117.415C81.5184 117.738 82.5647 118.102 83.536 118.151C83.7872 118.166 84.0685 118.181 84.3685 118.2C83.9935 118.951 83.671 119.724 83.386 120.505C81.5896 125.411 81.1209 130.865 80.3371 136C79.7745 139.701 78.447 143.485 78.417 147.242C78.417 147.587 78.4695 147.94 78.4732 148.286C76.4706 148.297 74.453 148.241 72.4767 148.184Z" fill="#FFBC3B"/>
<path d="M82.3454 166.493L82.3866 166.523C81.9178 167.184 81.3703 167.769 80.729 168.295C79.1915 169.541 76.7426 169.714 74.8638 169.474C72.5986 169.173 70.6298 167.784 69.4148 165.87C68.8035 164.902 68.3497 163.79 68.1622 162.661C68.0609 162.068 68.0347 161.463 68.0234 160.863L68.3985 160.859C71.8486 162.327 75.4488 163.892 79.0152 165.059C80.159 165.431 81.2616 166.058 82.3454 166.493Z" fill="#DEDEDE"/>
<path d="M76.4848 107.058C76.5261 109.123 76.1848 111.349 75.116 113.143C74.1635 111.739 73.5034 110.114 73.1922 108.387C72.9409 107.009 72.9409 104.483 74.3997 103.676C75.881 102.865 76.4736 106.281 76.4848 107.058Z" fill="#FFBC3B"/>
<path d="M76.2445 58.3391C76.717 58.951 76.1545 60.0133 76.1357 60.7753C76.1132 61.9126 76.0795 68.2 76.2557 69.3186C76.4133 70.3246 76.1957 71.2067 76.1507 72.224C76.0945 73.5528 76.0382 78.0647 73.6531 77.6668C72.9481 77.5467 72.4381 76.8523 72.2056 76.2367C71.6843 74.8853 71.8418 73.23 72.0931 71.8336C72.3256 70.5348 72.4681 68.9658 72.1643 67.6783C71.8756 66.4433 72.2318 60.2985 72.2131 59.0673C72.1981 58.219 72.2618 57.2693 72.8581 56.6012C74.3619 54.9045 76.207 56.5636 76.2445 58.3391Z" fill="#FFBC3B"/>
<path d="M72.4735 148.185C72.4587 148.237 72.4845 148.263 72.4329 148.314C72.4292 148.274 72.4292 148.226 72.4219 148.185C72.4403 148.185 72.455 148.185 72.4735 148.185Z" fill="#8CC295"/>
<path d="M68.5481 148.08L68.1056 148.301L67.9968 147.971C67.4231 146.424 66.8155 145.092 65.9042 143.696C63.7366 140.37 60.114 138.831 57.1626 136.406C50.056 130.58 45.642 121.372 45.1695 112.127C44.4007 97.1763 55.7975 83.0437 71.117 82.6946C77.8073 82.5445 85.3152 83.9821 90.7529 87.9873C95.9807 91.8311 100.012 97.2739 101.955 103.49C103.961 109.882 103.751 116.831 101.501 123.125C100.372 126.286 98.7446 129.263 96.712 131.924C94.5219 134.792 91.2705 136.534 89.0316 139.259C86.999 141.732 84.1564 144.221 83.8789 147.618L83.8413 147.978L83.6388 148.057C81.9475 148.207 80.2224 148.267 78.4823 148.275C78.4786 147.93 78.4261 147.577 78.4261 147.231C78.4561 143.474 79.7837 139.69 80.3462 135.989C81.13 130.854 81.5987 125.404 83.3951 120.494C83.6801 119.71 84.0026 118.936 84.3776 118.189C86.894 118.336 90.8729 118.456 90.3217 114.999C90.0179 113.081 88.5966 113.129 87.359 114.203C86.0802 115.31 85.1277 116.688 84.3776 118.189C84.0739 118.171 83.7963 118.156 83.5451 118.141C82.5738 118.092 81.5237 117.728 80.6162 117.405C78.3136 116.594 76.4385 115.07 75.1259 113.133C76.1985 111.339 76.5398 109.113 76.4948 107.048C76.4797 106.271 75.8872 102.852 74.4097 103.666C72.9508 104.473 72.9508 107.003 73.2021 108.377C73.5134 110.104 74.1734 111.729 75.1259 113.133C75.0659 113.234 75.0022 113.332 74.9422 113.426C74.3797 114.282 73.4496 114.916 72.6846 115.596C71.8745 116.328 71.012 117.033 69.9694 117.405C69.0544 117.728 68.0081 118.092 67.0406 118.141C66.7893 118.156 66.5043 118.171 66.2005 118.189C65.4505 116.692 64.4979 115.31 63.2191 114.203C61.9816 113.129 60.564 113.084 60.2565 114.999C59.7052 118.452 63.6841 118.336 66.2005 118.189C66.5755 118.94 66.898 119.713 67.1868 120.494C68.9794 125.4 69.4482 130.854 70.232 135.989C70.8582 140.081 72.1483 144.06 72.4333 148.174C71.1057 148.147 69.8119 148.102 68.5481 148.08Z" fill="#FFBC3B"/>
<path d="M67.4857 150.076L67.4257 150.08C67.3957 149.43 67.5345 148.807 68.1045 148.3L68.547 148.079C69.8146 148.101 71.1084 148.146 72.4209 148.184C72.4247 148.225 72.4247 148.274 72.4322 148.315C72.4847 148.263 72.4622 148.237 72.4734 148.184C74.4498 148.24 76.4711 148.297 78.4812 148.285C80.2213 148.274 81.9464 148.218 83.6377 148.068L83.8402 147.989C84.6165 148.488 84.654 149.625 84.654 150.451C84.6578 151.577 84.594 152.685 84.6165 153.822C84.6353 154.633 84.6503 155.451 84.6465 156.262H84.5078C84.189 156.371 83.769 155.954 83.4502 155.793C80.9413 154.52 78.215 153.995 75.5373 153.188C74.8473 152.974 67.4857 150.455 67.4857 150.076Z" fill="#DEDEDE"/>
<path d="M63.2019 114.212C64.4807 115.32 65.4333 116.697 66.1833 118.199C63.6669 118.345 59.688 118.465 60.2393 115.008C60.5468 113.09 61.9643 113.139 63.2019 114.212Z" fill="#FFBC3B"/>
<path d="M47.2241 136.981C48.8216 135.941 51.008 135.998 50.888 138.396C50.7942 140.284 48.3904 142.202 47.1978 143.467C45.559 145.209 43.8714 146.902 42.2513 148.67C40.89 150.164 39.4912 151.74 38.2536 153.355C37.3536 154.526 36.266 155.397 34.7247 155.547C33.4272 155.678 32.2834 154.436 32.5946 153.084C32.9771 151.436 34.3347 150.205 35.4785 149.049C37.3461 147.161 39.2624 145.325 41.0813 143.392C41.9288 142.488 42.7801 141.564 43.6164 140.66C44.7677 139.428 45.7765 137.927 47.2241 136.981Z" fill="#FFBC3B"/>
<path d="M43.8563 86.7204C45.1689 88.1018 45.5064 90.2639 43.1363 90.583C41.2649 90.8307 38.9398 88.8187 37.481 87.8766C35.4709 86.5815 33.4983 85.2302 31.4695 83.9615C29.7519 82.8879 27.9518 81.8031 26.1405 80.8835C24.8242 80.2078 23.7741 79.2994 23.3391 77.8092C22.9791 76.5555 23.9879 75.2079 25.3717 75.2717C27.0593 75.3468 28.5181 76.4541 29.8606 77.37C32.0545 78.864 34.2071 80.4105 36.4422 81.8482C37.4848 82.5238 38.5461 83.1882 39.5849 83.8451C41.0062 84.7535 42.6638 85.4667 43.8563 86.7204Z" fill="#FFBC3B"/>
<path d="M37.7305 110.973C39.5981 111.363 41.1095 112.943 39.3394 114.561C37.9443 115.834 34.8917 115.507 33.1553 115.567C30.7665 115.646 28.3701 115.661 25.9813 115.781C23.9599 115.882 21.8673 116.014 19.8497 116.288C18.3834 116.487 16.9996 116.34 15.7958 115.361C14.787 114.539 14.847 112.849 16.017 112.114C17.4496 111.209 19.2797 111.288 20.9035 111.273C23.5549 111.25 26.21 111.292 28.8576 111.202C30.0989 111.16 31.3478 111.096 32.5778 111.051C34.2691 110.984 36.0355 110.627 37.7305 110.973Z" fill="#FFBC3B"/>
<path d="M253.65 256.286L253.657 256.042C264.608 255.678 277.396 249.304 286.809 241.973L287.007 242.221C286.606 245.389 286.797 248.869 286.561 251.714C286.092 257.288 285.804 263.05 286.227 268.666C279.725 269.06 273.432 270.73 266.7 270.19C259.181 269.585 251.156 267.641 244.128 264.905C237.94 262.495 232.439 258.501 227.177 254.522C223.581 251.804 220.757 248.569 217.682 245.325C217.134 244.747 216.557 243.978 215.945 243.201C219.519 245.209 223.161 247.116 226.862 249.057C231.4 251.436 236.256 253.013 241.21 254.364C245.197 255.453 249.558 256.17 253.65 256.286Z" fill="#E39476"/>
<path d="M206.355 537.468C210.097 540.396 208.526 545.186 205.908 548.29C203.317 551.376 197.497 548.729 196.113 545.636C194.365 541.721 196.664 536.489 201.213 536.173C203.306 536.027 204.6 536.102 206.355 537.468Z" fill="#37628F"/>
<path d="M396.659 664.706H297.436C297.575 649.489 297.774 634.162 296.42 619.076C295.284 606.389 294.598 593.645 294.939 580.909C295.22 570.444 294.391 559.832 294.744 549.288C295.138 537.498 297.669 525.768 298.153 513.925C298.516 505.096 300.032 496.553 301.899 487.916C304.041 478.01 303.905 467.803 306.613 457.924C309.347 447.946 312.25 438.029 314.226 427.808C316.026 418.514 317.136 409.141 319.034 399.892C323.35 378.928 323.455 357.716 320.031 336.598C319.037 330.434 318.606 324.304 317.08 318.212C314.091 306.294 308.664 294.669 299.36 286.385C295.921 283.322 291.211 281.843 287.855 278.994C287.543 277.327 287.176 275.668 286.872 273.983C286.846 273.855 286.827 273.724 286.805 273.6C290.701 273.161 295.1 275.848 298.58 277.233C306.876 280.536 315.374 283.314 323.643 286.696C327.449 288.254 331.316 289.891 335.036 291.557C338.67 293.186 341.572 296.028 345.225 297.664C349.305 299.496 353.393 301.306 357.537 303.006C366.346 306.624 375.253 310.115 383.511 314.913C394.469 321.275 404.77 327.638 413.497 337.071C421.65 345.888 428.134 357.524 433.77 368.057C440.018 379.72 444.729 392.753 448.951 405.267C449.971 408.3 451.471 411.356 452.06 414.498C453.17 420.413 453.568 426.584 454.464 432.568C455.477 439.332 456.392 446.111 457.232 452.898C458.938 466.704 460.326 480.543 461.522 494.398C463.048 512.067 462.857 529.844 464.751 547.483C466.6 564.765 473.335 580.267 476.245 597.223C478.128 608.221 475.934 619.253 475.217 630.247C474.831 636.171 477.01 641.895 476.939 647.788C476.871 653.464 475.349 659.012 475.195 664.706H396.659Z" fill="#3582F6"/>
<path d="M75.1141 348.498C74.5215 345.694 74.1578 342.868 73.629 340.011C73.074 336.993 72.3952 333.998 71.7164 331.01C68.8813 318.514 66.7437 306.855 70.6813 294.336C74.2178 283.094 80.3493 272.783 83.0344 261.252C84.8758 253.346 84.437 245.4 84.182 237.344C83.8632 227.469 84.377 217.559 84.4333 207.683C84.4745 200.769 83.6645 190.72 90.516 186.52C92.4586 185.33 93.6399 185.307 95.7138 186.246C101.635 188.926 102.749 197.687 103.004 203.299C103.72 219.019 103.132 234.679 103.068 250.411C103.064 251.263 103.225 251.792 103.259 252.566C105.431 252.483 107.598 252.727 109.646 253.346C118.804 256.109 125.029 264.255 130.654 271.615C131.933 266.24 134.911 259.735 140.525 257.843C142.231 257.269 143.694 256.867 145.389 257.49C147.969 258.44 150.339 260.043 151.569 262.569C154.224 268.004 151.479 274.776 150.283 280.238C149.458 284.01 148.449 287.715 148.471 291.641C148.486 295.924 149.199 300.162 149.308 304.441C149.39 307.917 149.375 311.423 149.113 314.907C148.798 319.148 148.119 323.349 146.84 327.414C143.806 337.072 137.888 345.413 133.849 354.624C132.859 356.884 132.027 359.192 131.205 361.486C128.82 368.126 126.492 374.597 120.431 379.248C112.447 385.378 101.767 383.366 93.6587 378.603C89.2447 376.013 85.2958 372.563 82.1381 368.528C80.3718 366.276 79.7718 364.684 79.2693 361.966C78.6092 358.415 76.8879 355.014 75.8753 351.55C75.5791 350.536 75.3278 349.519 75.1141 348.498Z" fill="#F5B49B"/>
<path d="M275.19 192.935C277.069 197.567 272.985 202.777 269.928 205.926C264.854 211.144 258.224 214.169 250.847 213.216C246.696 212.675 243.392 211.748 239.859 209.425C236.66 207.319 233.641 204.8 231.358 201.707C229.569 199.286 228.159 194.879 230.165 192.165C231.826 189.913 235.014 189.132 237.684 189.41C240.144 189.662 242.676 189.703 245.143 189.879C247.461 190.044 249.76 189.951 252.07 189.846C255.092 189.707 258.134 189.857 261.141 189.466C263.887 189.106 266.572 187.969 269.366 188.577C271.935 189.129 274.147 190.375 275.19 192.935Z" fill="white"/>
<path d="M157.719 156.668C157.292 153.677 156.958 150.677 156.602 147.701C156.215 144.446 155.942 141.106 154.933 137.945C152.904 131.594 148.985 126.065 146.829 119.766C145.816 116.808 145.239 114.117 145.284 110.975C145.332 107.563 145.786 104.169 146.079 100.769C146.566 95.0818 147.755 89.4775 149.083 83.9371C150.83 76.64 153.459 69.0951 152.668 61.5127C152.574 60.6343 152.462 59.7635 152.353 58.8851C151.629 53.1645 153.557 48.9229 156.17 44.0093C160.206 36.4119 166.217 29.3663 173.931 25.316C182.407 20.8642 192.761 19.3627 201.615 15.5152C205.422 13.8598 209.078 11.8741 212.569 9.6257C213.998 8.70229 215.086 7.51238 216.59 6.73162C218.858 5.55296 221.259 4.59578 223.591 3.5973C226.385 2.39988 229.366 1.46146 232.359 0.928442C241.498 -0.704405 251.391 -0.141354 260.294 2.41865C269.032 4.92986 278.107 10.2826 280.268 19.8019C280.823 22.2493 282.653 22.0166 284.873 22.0166C291.436 20.5226 298.478 22.0203 304.317 25.2222C312.815 29.8805 315.684 37.9659 320.259 45.8561C324.317 52.8642 329.999 58.72 334.975 65.0562C341.302 73.1228 346.121 82.233 344.553 92.7958C343.826 97.7206 343.068 102.338 343.222 107.277C343.372 112.304 340.979 117.994 339.727 122.81C338.913 125.929 338.613 129.312 337.394 132.251C334.473 139.285 333.996 146.695 334.33 154.18C334.353 154.724 334.375 155.268 334.409 155.816C334.514 157.595 334.379 160.013 334.24 161.818C334.128 163.278 334 164.619 333.501 166C333.074 167.179 332.087 168.988 330.655 169.202C325.971 169.892 326.871 156.278 326.8 153.774C326.563 145.501 325.101 136.248 320.342 129.244C317.871 125.607 316.355 121.008 315.343 116.74C314.218 112.007 313.922 107.548 313.925 102.72C313.933 95.2056 314.477 87.6195 310.456 80.7915C306.781 74.5492 299.232 71.7902 292.339 71.2722C290.686 71.1446 289.639 71.2497 288.019 71.1559C276.874 70.484 265.901 71.2535 255.535 75.6115C252.269 76.9853 248.691 77.5484 245.158 77.4808C236.075 77.3157 227.48 73.6821 218.686 71.8353C214.347 70.9194 210.244 70.7092 205.868 71.0095C201.334 71.321 196.785 71.6026 193.016 74.5079C189.618 77.1242 187.297 80.8967 185.981 84.9356C185.066 87.7321 184.559 90.6524 184.267 93.5728C183.899 97.2401 184.957 100.727 184.653 104.361C184.128 110.69 182.962 116.759 179.902 122.378C179.11 123.842 178.567 125.408 177.895 126.928C177.288 128.298 176.373 129.311 175.555 130.558C173.763 133.287 171.775 135.937 170.53 138.981C167.699 145.929 169.484 153.541 169.585 160.771C169.626 163.729 169.6 166.942 167.657 169.374C165.651 171.882 162.97 171.187 161.057 168.935C159.058 166.593 158.841 163.613 158.334 160.711C158.113 159.363 157.903 158.016 157.719 156.668Z" fill="#304493"/>
<path d="M286.811 273.598C286.833 273.725 286.852 273.857 286.878 273.981C286.747 273.902 286.619 273.917 286.578 273.628C286.653 273.613 286.732 273.605 286.811 273.598Z" fill="#8CC295"/>
<path d="M290.277 146.129C290.787 148.764 289.935 151.576 288.48 153.776C286.868 156.216 283.305 156.531 280.657 155.799C274.747 154.177 273.007 147.154 277.143 142.762C279.352 140.413 283.095 138.742 286.185 140.379C288.086 141.389 289.875 144.042 290.277 146.129Z" fill="#2B1A0F"/>
<path d="M133.764 366.705C138.977 382.872 130.43 392.211 128.083 407.339C126.2 419.452 130.726 430.405 130.224 442.229C129.898 449.86 125.667 456.395 123.706 463.602C122.829 466.831 122.217 470.115 121.756 473.429C117.376 504.994 110.284 536.397 104.108 567.71C102.626 575.21 101.347 583.314 99.4124 591.238C96.9635 601.287 93.4684 611.047 87.2131 618.918C72.3624 637.604 36.6607 644.856 17.8048 627.638C6.55052 617.357 2.22281 600.994 0.688988 586.347C-2.71617 553.874 7.04929 519.093 17.9173 488.872C21.72 478.298 26.8502 468.264 30.7167 457.717C34.3693 447.743 36.7807 437.908 37.8532 427.331C38.607 419.887 40.3734 412.597 43.9398 405.98C48.1212 398.217 55.3478 392.635 57.9054 383.953C61.3781 372.144 59.143 358.458 71.1698 350.838C72.5161 349.986 74.0612 349.558 75.115 348.503C75.3288 349.524 75.58 350.542 75.8726 351.555C76.8851 355.02 78.6027 358.421 79.2665 361.972C79.7727 364.689 80.369 366.281 82.1353 368.533C85.293 372.564 89.2419 376.018 93.6559 378.608C101.764 383.371 112.444 385.383 120.428 379.254C126.489 374.603 128.818 368.131 131.203 361.491L131.21 361.495C133.059 362.497 133.134 364.753 133.764 366.705Z" fill="#3582F6"/>
<path d="M215.628 274.212C215.628 273.946 215.636 273.687 215.651 273.424C215.891 268.12 215.985 262.797 215.673 257.493C215.516 254.839 215.261 252.193 214.867 249.569C214.698 248.454 214.342 247.347 214.143 246.289C213.963 245.298 214.237 243.77 213.551 242.952L214.038 242.103C214.672 242.471 215.306 242.831 215.947 243.196C216.558 243.976 217.136 244.742 217.683 245.32C220.759 248.563 223.586 251.799 227.179 254.517C232.444 258.496 237.946 262.489 244.13 264.899C251.158 267.636 259.183 269.584 266.702 270.185C273.434 270.725 279.726 269.055 286.229 268.661C286.297 269.633 286.39 270.597 286.507 271.555C286.589 272.242 286.698 272.917 286.814 273.593C286.739 273.6 286.657 273.608 286.582 273.623C286.623 273.916 286.75 273.897 286.882 273.976C287.185 275.665 287.553 277.32 287.864 278.987C288.284 281.262 288.599 283.551 288.472 285.954C288.239 290.368 287.013 294.7 285.048 298.649C281.159 306.475 274.349 312.965 266.181 316.141C264.572 316.768 262.978 317.492 261.347 318.059C258.433 319.08 255.065 319.485 251.99 319.32C248.866 319.155 245.559 318.536 242.536 317.729C237.511 316.392 233.318 315.015 229.054 311.88C222.615 307.151 217.627 300.24 215.617 292.463C214.826 289.418 214.773 287.072 215.373 284.084C215.651 282.699 215.726 281.28 215.726 279.843C215.722 277.966 215.595 276.067 215.628 274.212Z" fill="#F5B49B"/>
<path d="M297.27 116.505C298.527 118.551 297.364 120.75 295.103 121.081C292.995 121.396 290.94 120.476 288.994 119.801C288.109 119.489 287.156 119.121 286.26 118.903C285.146 118.629 284.051 118.978 282.93 118.945C279.697 118.843 276.839 120.09 273.821 121.05C273.018 121.302 271.99 121.396 271.18 120.934C268.417 119.339 270.577 116.636 272.242 115.15C273.404 114.114 274.443 113.476 275.902 112.924C277.777 112.214 279.926 111.437 281.898 111.133C283.605 110.867 285.386 110.747 287.104 110.934C290.644 111.325 295.335 113.367 297.27 116.505Z" fill="#304493"/>
<path d="M225.841 116.505C227.101 118.551 225.935 120.751 223.674 121.081C221.566 121.396 219.515 120.477 217.572 119.801C216.687 119.489 215.734 119.122 214.838 118.904C213.724 118.63 212.629 118.979 211.504 118.945C208.272 118.844 205.418 120.09 202.395 121.051C201.6 121.302 200.569 121.396 199.762 120.935C196.999 119.339 199.159 116.637 200.824 115.15C201.986 114.114 203.021 113.476 204.484 112.924C206.359 112.215 208.508 111.438 210.477 111.134C212.187 110.867 213.968 110.747 215.682 110.935C219.215 111.325 223.91 113.367 225.841 116.505Z" fill="#304493"/>
<path d="M219.946 146.129C220.456 148.764 219.601 151.576 218.146 153.776C216.533 156.216 212.97 156.531 210.323 155.799C204.416 154.177 202.676 147.154 206.809 142.762C209.021 140.413 212.76 138.742 215.85 140.379C217.748 141.389 219.541 144.042 219.946 146.129Z" fill="#2B1A0F"/>
<path d="M215.941 243.191C215.299 242.827 214.662 242.467 214.032 242.099C210.372 239.997 206.783 237.763 203.261 235.267C196.327 230.354 188.902 224.734 183.783 217.865C180.753 213.804 177.617 209.911 174.445 205.94C171.625 202.404 169.806 198.192 167.072 194.6C164.169 190.767 160.895 190.163 156.864 187.873C152.754 185.538 148.899 182.352 146.138 178.493C145.058 176.991 143.926 175.865 143.172 174.157C142.355 172.311 141.548 170.509 141.034 168.546C140.007 164.623 139.951 160.4 141.522 156.605C142.816 153.486 146.018 151.136 149.375 150.798C153.853 150.352 155.39 153.595 157.715 156.658C157.899 158.009 158.109 159.353 158.342 160.7C158.848 163.598 159.065 166.582 161.064 168.925C162.977 171.177 165.658 171.871 167.664 169.364C169.607 166.935 169.633 163.718 169.592 160.76C169.491 153.531 167.702 145.918 170.537 138.97C171.782 135.926 173.77 133.276 175.562 130.547C176.38 129.301 177.295 128.291 177.902 126.917C178.574 125.397 179.118 123.832 179.909 122.368C182.969 116.749 184.132 110.679 184.66 104.35C184.964 100.717 183.906 97.2296 184.274 93.5623C184.57 90.6419 185.077 87.7216 185.988 84.9251C187.304 80.8824 189.626 77.11 193.023 74.4974C196.792 71.5958 201.341 71.3105 205.875 70.999C210.252 70.6987 214.354 70.9089 218.693 71.8248C227.491 73.6716 236.083 77.3052 245.166 77.4703C248.698 77.5379 252.276 76.9748 255.542 75.601C265.908 71.243 276.881 70.4735 288.026 71.1454C289.647 71.243 290.693 71.1379 292.347 71.2617C299.24 71.776 306.789 74.5349 310.464 80.7811C314.484 87.6127 313.94 95.1951 313.933 102.71C313.929 107.537 314.225 111.997 315.35 116.73C316.363 120.998 317.878 125.6 320.349 129.233C325.108 136.238 326.571 145.491 326.807 153.764C326.878 156.271 325.982 169.886 330.662 169.191C332.095 168.977 333.081 167.168 333.509 165.989C334.007 164.608 334.131 163.268 334.247 161.808C334.386 160.002 334.521 157.585 334.416 155.806C334.382 155.258 334.356 154.713 334.337 154.169L334.555 154.162C338.526 148.216 347.081 151.294 349.443 156.977C351.067 160.892 351.007 165.25 349.946 169.3C349.413 171.323 348.584 173.185 347.741 175.092C346.961 176.86 345.79 178.02 344.68 179.574C341.827 183.553 337.844 186.848 333.599 189.251C330.471 191.026 327.167 192.456 323.964 194.086L323.736 193.984C319.678 203.256 314.664 212.869 308.446 220.376C303.582 226.258 297.653 232.058 292.144 237.362C290.539 238.904 288.747 240.455 286.808 241.964C277.395 249.294 264.607 255.672 253.656 256.032L253.649 256.276C249.561 256.16 245.199 255.439 241.205 254.347C236.252 252.996 231.399 251.419 226.857 249.039C223.156 247.11 219.514 245.199 215.941 243.191ZM295.107 121.08C297.364 120.746 298.531 118.55 297.274 116.505C295.339 113.367 290.648 111.325 287.111 110.934C285.39 110.743 283.613 110.867 281.906 111.133C279.934 111.437 277.785 112.214 275.91 112.924C274.451 113.476 273.416 114.114 272.249 115.15C270.584 116.636 268.421 119.339 271.188 120.934C271.998 121.399 273.026 121.306 273.828 121.05C276.847 120.089 279.705 118.843 282.937 118.945C284.059 118.978 285.154 118.629 286.268 118.903C287.164 119.121 288.116 119.489 289.002 119.8C290.94 120.48 292.999 121.4 295.107 121.08ZM288.476 153.775C289.932 151.575 290.783 148.767 290.273 146.129C289.868 144.042 288.083 141.388 286.181 140.378C283.091 138.741 279.349 140.412 277.14 142.762C273.003 147.153 274.747 154.177 280.654 155.798C283.298 156.53 286.86 156.211 288.476 153.775ZM269.928 205.925C272.985 202.779 277.068 197.565 275.19 192.933C274.147 190.373 271.934 189.127 269.366 188.571C266.572 187.963 263.887 189.104 261.141 189.461C258.138 189.855 255.092 189.701 252.07 189.84C249.76 189.945 247.465 190.039 245.143 189.874C242.672 189.698 240.144 189.66 237.684 189.405C235.01 189.127 231.826 189.908 230.165 192.16C228.159 194.878 229.572 199.281 231.358 201.702C233.641 204.795 236.66 207.313 239.859 209.419C243.392 211.743 246.696 212.674 250.847 213.21C258.224 214.168 264.854 211.142 269.928 205.925ZM223.67 121.08C225.927 120.746 227.097 118.55 225.837 116.505C223.906 113.367 219.211 111.325 215.674 110.934C213.96 110.743 212.179 110.867 210.469 111.133C208.5 111.437 206.351 112.214 204.476 112.924C203.014 113.476 201.982 114.114 200.816 115.15C199.151 116.636 196.987 119.339 199.755 120.934C200.565 121.399 201.592 121.306 202.387 121.05C205.41 120.089 208.264 118.843 211.497 118.945C212.622 118.978 213.717 118.629 214.83 118.903C215.727 119.121 216.679 119.489 217.564 119.8C219.511 120.48 221.562 121.4 223.67 121.08ZM218.146 153.775C219.601 151.575 220.456 148.767 219.946 146.129C219.541 144.042 217.748 141.388 215.851 140.378C212.76 138.741 209.021 140.412 206.809 142.762C202.68 147.153 204.42 154.177 210.323 155.798C212.97 156.53 216.529 156.211 218.146 153.775Z" fill="#F5B49B"/>
<path d="M63.6082 96.636C61.6768 97.4543 59.5917 99.0008 59.2205 100.697C59.0217 101.613 59.2992 102.589 59.0592 103.494C58.6542 105.007 57.0191 105.757 55.8491 106.797C53.8802 108.546 53.1452 111.557 54.0865 114.019C54.8365 115.986 56.5354 117.6 56.7529 119.695C56.9404 121.47 56.0891 123.561 57.2891 124.882C58.3054 126.005 60.1093 125.746 61.5268 126.271C63.3494 126.943 64.4407 128.888 66.2108 129.691C68.7797 130.854 71.7048 129.293 74.5175 129.165C76.2238 129.09 77.9039 129.552 79.5989 129.758C81.294 129.965 83.1504 129.867 84.5079 128.835C85.9967 127.701 86.5405 125.731 87.6506 124.222C88.7381 122.739 90.3432 121.741 91.7608 120.566C93.1783 119.391 94.4984 117.867 94.6372 116.035C94.8247 113.543 92.8258 111.463 92.1095 109.068C91.6408 107.503 91.7345 105.829 91.562 104.203C91.397 102.679 90.8945 100.675 89.3157 100.078C88.4569 99.7516 87.5118 99.7403 86.6193 99.5113C83.7954 98.7906 81.9091 96.0767 79.2202 94.9506C77.4913 94.2262 75.5337 94.2149 73.6962 94.579C71.9636 94.9206 70.2122 96.0467 68.4647 96.0767C66.7358 96.0993 65.277 95.9303 63.6082 96.636Z" fill="white"/>
<path d="M235.366 639.972C234.039 635.982 234.133 631.943 233.424 627.784C231.729 617.784 230.611 607.698 229.719 597.597C229.295 592.777 229.554 587.394 228.477 582.683C227.622 578.948 227.371 575.394 227.146 571.523C226.066 552.913 222.848 534.433 217.613 516.543C217.827 517.831 218.03 519.126 218.217 520.428C220.253 534.813 221.303 549.317 221.986 563.821C222.012 564.418 222.042 565.015 222.068 565.611C222.406 573.078 222.65 580.551 222.886 588.017C223.355 602.709 223.76 617.131 223.707 631.864C223.674 642.817 223.272 653.763 222.743 664.705H238.719C238.475 661.413 238.025 658.117 237.572 654.863C236.912 650.095 236.889 644.54 235.366 639.972Z" fill="#EDEDED"/>
<path d="M320.042 336.597C319.048 330.433 318.617 324.303 317.091 318.211C314.102 306.293 308.675 294.668 299.371 286.384C295.932 283.321 291.222 281.842 287.866 278.993C288.286 281.267 288.601 283.557 288.473 285.959C288.241 290.374 287.014 294.706 285.049 298.654C281.16 306.481 274.35 312.967 266.182 316.147C264.573 316.773 262.98 317.498 261.348 318.065C258.434 319.086 255.067 319.491 251.992 319.326C248.868 319.161 245.56 318.541 242.537 317.734C237.512 316.398 233.319 315.02 229.055 311.886C222.616 307.156 217.629 300.246 215.619 292.468C214.827 289.424 214.775 287.078 215.375 284.09C215.652 282.705 215.727 281.286 215.727 279.849C214.741 280.862 212.618 282.052 211.418 283.129C203.858 289.965 200.025 301.639 196.571 310.948C190.215 328.076 188.906 346.371 188.748 364.49C188.591 382.977 189.742 401.381 192.637 419.684C194.19 429.496 196.219 439.237 198.806 448.831C204.994 471.781 213.702 493.031 217.614 516.54C222.849 534.43 226.067 552.909 227.147 571.52C227.372 575.39 227.623 578.945 228.478 582.68C229.554 587.391 229.295 592.773 229.719 597.593C230.608 607.694 231.726 617.78 233.424 627.78C234.129 631.939 234.036 635.978 235.367 639.968C236.89 644.533 236.912 650.092 237.576 654.859C238.03 658.113 238.476 661.409 238.723 664.701H254.159H297.44C297.579 649.484 297.777 634.158 296.424 619.072C295.287 606.384 294.601 593.64 294.942 580.904C295.224 570.439 294.395 559.827 294.747 549.283C295.141 537.493 297.672 525.763 298.156 513.92C298.52 505.091 300.035 496.548 301.903 487.911C304.044 478.005 303.909 467.799 306.617 457.919C309.351 447.942 312.253 438.024 314.23 427.803C316.03 418.509 317.14 409.136 319.037 399.887C323.357 378.93 323.462 357.718 320.042 336.597Z" fill="#FFFBF2"/>
<path d="M262.439 66.8853C262.173 66.8853 261.903 66.7839 261.7 66.5812C261.288 66.1721 261.28 65.5039 261.689 65.091C269.354 57.3134 272.887 47.0884 275.329 38.1134C275.482 37.5504 276.064 37.22 276.622 37.3739C277.185 37.5278 277.515 38.1059 277.361 38.669C272.88 55.1363 267.682 62.0168 263.185 66.5737C262.983 66.7802 262.713 66.8853 262.439 66.8853Z" fill="black"/>
<path d="M279.369 67.2939C278.934 67.2939 278.525 67.0236 278.375 66.5882C278.184 66.0401 278.473 65.4358 279.02 65.2444C284.62 63.2812 289.645 60.3646 293.961 56.5771C294.4 56.1942 295.064 56.2355 295.45 56.6747C295.833 57.1139 295.791 57.7783 295.353 58.1649C290.834 62.1326 285.572 65.1881 279.718 67.2376C279.602 67.2751 279.482 67.2939 279.369 67.2939Z" fill="black"/>
<path d="M230.997 57.0754C230.513 57.0754 230.074 56.7376 229.969 56.2421C227.603 45.2626 221.449 36.9557 213.093 33.4536C212.557 33.2284 212.302 32.609 212.527 32.0722C212.752 31.5354 213.371 31.284 213.907 31.5054C222.908 35.2779 229.515 44.1328 232.028 55.7954C232.152 56.366 231.788 56.9253 231.222 57.0491C231.147 57.0679 231.072 57.0754 230.997 57.0754Z" fill="black"/>
<path d="M195.525 56.5726C195.353 56.5726 195.176 56.5313 195.015 56.4412C188.655 52.9015 182.553 51.5088 176.879 52.3084C176.302 52.391 175.769 51.9893 175.69 51.4113C175.608 50.8332 176.009 50.3002 176.587 50.2213C182.726 49.358 189.27 50.8294 196.039 54.6019C196.549 54.8834 196.729 55.529 196.448 56.0358C196.256 56.3774 195.896 56.5726 195.525 56.5726Z" fill="black"/>
<path d="M253.984 175.6C252.874 175.6 251.7 175.334 250.485 174.801C248.4 173.888 246.863 172.913 245.651 171.738C245.235 171.332 245.224 170.664 245.629 170.247C246.034 169.831 246.701 169.819 247.118 170.225C248.145 171.22 249.48 172.06 251.329 172.871C252.559 173.408 253.692 173.599 254.693 173.438C255.462 173.314 256.238 173.074 256.999 172.721C257.997 172.259 261.031 170.856 259.04 164.305C258.383 162.143 257.603 159.97 256.853 157.872C256.167 155.953 255.458 153.968 254.836 151.982C254.476 150.83 254.378 149.715 254.284 148.634C254.239 148.116 254.198 147.628 254.127 147.129C253.587 143.285 253.924 139.321 254.367 135.609C254.434 135.031 254.959 134.618 255.537 134.685C256.114 134.753 256.527 135.278 256.459 135.856C256.032 139.426 255.709 143.229 256.216 146.832C256.294 147.384 256.339 147.924 256.384 148.446C256.471 149.456 256.553 150.413 256.846 151.344C257.457 153.292 258.158 155.255 258.837 157.155C259.595 159.279 260.382 161.475 261.053 163.686C263.142 170.555 260.483 173.427 257.885 174.628C256.947 175.063 255.987 175.36 255.023 175.514C254.682 175.574 254.337 175.6 253.984 175.6Z" fill="#AB684D"/>
<path d="M160.905 182.04C160.518 182.04 160.147 181.826 159.963 181.458C159.42 180.37 158.385 179.671 157.286 178.928C156.015 178.069 154.571 177.093 153.888 175.381C153.183 173.613 153.667 172.055 154.094 170.678C154.278 170.081 154.454 169.518 154.537 168.955C154.619 168.395 154.436 167.889 154.199 167.247C154.087 166.939 153.971 166.62 153.877 166.271C153.569 165.141 153.292 164.469 152.639 163.932C150.959 162.555 149.459 161.875 148.417 162.014C147.865 162.089 147.404 162.401 147.003 162.971C146.669 163.448 146.009 163.561 145.533 163.226C145.056 162.892 144.944 162.232 145.278 161.755C146.024 160.697 146.984 160.081 148.132 159.923C149.812 159.698 151.777 160.494 153.974 162.299C155.167 163.279 155.583 164.522 155.909 165.711C155.984 165.978 156.078 166.244 156.18 166.522C156.461 167.295 156.78 168.17 156.622 169.259C156.517 169.987 156.307 170.655 156.108 171.304C155.722 172.547 155.418 173.527 155.846 174.6C156.288 175.707 157.297 176.391 158.467 177.183C159.682 178.005 161.058 178.936 161.85 180.516C162.112 181.038 161.899 181.672 161.381 181.931C161.224 182.006 161.062 182.04 160.905 182.04Z" fill="#AB684D"/>
<path d="M331.179 183.299C331.022 183.299 330.861 183.261 330.707 183.186C330.186 182.924 329.976 182.293 330.238 181.771C331.052 180.15 332.469 179.189 333.718 178.344C334.93 177.526 335.976 176.816 336.437 175.664C336.883 174.545 336.55 173.476 336.167 172.241C335.961 171.573 335.747 170.886 335.638 170.135C335.477 169.02 335.803 168.123 336.092 167.327C336.197 167.038 336.298 166.764 336.373 166.486C336.707 165.263 337.135 163.986 338.361 162.98C340.622 161.122 342.644 160.3 344.369 160.537C345.543 160.694 346.525 161.329 347.29 162.414C347.624 162.89 347.511 163.547 347.035 163.885C346.559 164.219 345.903 164.106 345.569 163.63C345.149 163.033 344.665 162.706 344.084 162.628C342.996 162.481 341.436 163.187 339.696 164.613C339.014 165.173 338.725 165.871 338.406 167.042C338.308 167.406 338.188 167.733 338.072 168.048C337.828 168.716 337.637 169.242 337.723 169.827C337.81 170.413 337.99 170.994 338.181 171.61C338.62 173.025 339.119 174.628 338.395 176.441C337.693 178.198 336.272 179.159 334.9 180.09C333.763 180.859 332.691 181.584 332.124 182.713C331.937 183.085 331.566 183.299 331.179 183.299Z" fill="#AB684D"/>
<path d="M127.125 305.808C126.885 305.808 126.701 305.756 126.544 305.699C126.48 305.677 126.472 305.677 126.42 305.669C125.839 305.624 125.407 305.114 125.452 304.536C125.497 303.954 126.007 303.522 126.585 303.567C126.84 303.586 127.02 303.635 127.166 303.684C127.268 303.661 127.373 303.654 127.474 303.661C130.271 303.871 132.705 300.38 133.587 298.136C135.049 294.408 135.458 290.088 134.802 285.302C134.247 281.252 133.523 277.055 131.321 274.21C130.909 273.677 130.496 273.136 130.076 272.588C129.724 272.127 129.81 271.462 130.271 271.109C130.733 270.756 131.396 270.843 131.749 271.304C132.165 271.849 132.578 272.386 132.987 272.915C135.503 276.173 136.294 280.677 136.887 285.009C137.592 290.159 137.142 294.832 135.544 298.901C134.888 300.579 133.8 302.246 132.563 303.473C130.976 305.05 129.221 305.838 127.481 305.767C127.35 305.797 127.23 305.808 127.125 305.808Z" fill="#AB684D"/>
<path d="M90.6053 258.088C90.2865 258.088 89.9678 257.942 89.7615 257.668C89.4128 257.202 89.5065 256.542 89.9715 256.193C93.4217 253.595 97.7381 251.955 102.13 251.576C102.707 251.523 103.221 251.955 103.27 252.537C103.318 253.118 102.891 253.629 102.31 253.678C98.3082 254.027 94.3742 255.517 91.2391 257.878C91.0478 258.021 90.8266 258.088 90.6053 258.088Z" fill="#AB684D"/>
<path d="M112.057 321.836C110.628 321.836 109.289 321.453 108.329 320.424C108.262 320.357 108.003 320.236 107.834 320.158C107.264 319.895 106.308 319.452 106.214 318.348C106.165 317.767 106.597 317.256 107.174 317.207C107.711 317.166 108.179 317.523 108.292 318.029C108.393 318.093 108.584 318.183 108.719 318.247C109.098 318.423 109.529 318.622 109.871 318.987C111.453 320.679 115.908 319.144 117.855 317.842C123.296 314.208 127.226 305.188 123.791 295.631C123.383 294.486 122.58 293.36 121.804 292.268C121.5 291.84 121.185 291.397 120.896 290.958C116.317 283.972 111.791 279.963 107.448 279.04C102.787 278.045 97.5738 278.837 94.885 279.397C94.3149 279.513 93.7562 279.149 93.6399 278.578C93.5199 278.008 93.8874 277.448 94.4574 277.332C97.3113 276.739 102.847 275.906 107.887 276.976C112.863 278.034 117.694 282.231 122.659 289.798C122.925 290.203 123.214 290.613 123.521 291.044C124.38 292.253 125.265 293.499 125.775 294.914C128.607 302.801 127.204 314.129 119.025 319.595C117.592 320.552 114.675 321.836 112.057 321.836Z" fill="#AB684D"/>
<path d="M97.897 333.037C95.9844 333.037 94.1693 332.14 92.8417 330.406C91.7654 328.998 91.0529 327.238 90.9404 325.703C90.8916 325.038 90.9516 324.374 91.0116 323.732C91.1016 322.737 91.1879 321.799 90.8466 321.067C89.9953 319.228 88.4277 317.959 86.7664 316.619L86.2151 316.172C85.7651 315.804 85.6976 315.14 86.0651 314.689C86.4326 314.239 87.0964 314.171 87.5464 314.539L88.0902 314.978C89.8641 316.412 91.6979 317.899 92.7592 320.181C93.3367 321.427 93.2167 322.756 93.1117 323.927C93.0592 324.509 93.0105 325.061 93.0442 325.552C93.1267 326.679 93.693 328.049 94.518 329.13C96.0744 331.168 98.422 331.51 100.646 330.027C104.512 327.448 106.072 322.047 106.245 317.854C106.331 315.699 106.001 313.383 105.262 310.973C104.49 308.451 102.423 306.356 100.425 304.325L99.9446 303.837C97.6007 301.443 95.0093 299.705 92.2417 298.672C91.6979 298.47 91.4204 297.862 91.6229 297.314C91.8254 296.769 92.4329 296.492 92.9805 296.694C96.0369 297.839 98.887 299.742 101.448 302.359L101.925 302.843C104.002 304.949 106.354 307.336 107.28 310.35C108.09 312.993 108.45 315.545 108.353 317.936C108.105 324.04 105.66 329.216 101.816 331.78C100.545 332.621 99.1983 333.037 97.897 333.037Z" fill="#AB684D"/>
<path d="M110.555 335.196C110.453 335.196 110.352 335.181 110.247 335.151C109.688 334.982 109.377 334.393 109.546 333.838C111.091 328.744 112.921 324.941 115.49 321.511C115.947 320.899 116.364 320.332 116.772 319.776C117.369 318.962 117.935 318.192 118.606 317.314C118.959 316.852 119.623 316.762 120.084 317.115C120.545 317.468 120.635 318.132 120.283 318.594C119.623 319.457 119.064 320.219 118.475 321.023C118.062 321.586 117.646 322.156 117.181 322.776C114.766 326.004 113.033 329.603 111.567 334.453C111.425 334.904 111.008 335.196 110.555 335.196Z" fill="#AB684D"/>
<path d="M99.6075 591.492C99.525 591.492 99.4425 591.48 99.3638 591.462C98.7975 591.326 98.4487 590.756 98.5837 590.193C99.8175 585.005 100.793 579.731 101.734 574.63C102.191 572.16 102.619 569.825 103.08 567.498C104.607 559.751 106.219 551.868 107.775 544.24C112.519 521.016 117.425 497.004 120.717 473.277C121.227 469.595 121.876 466.337 122.697 463.319C123.436 460.601 124.497 457.962 125.521 455.41C127.299 450.988 128.979 446.814 129.174 442.182C129.388 437.088 128.634 432.024 127.903 427.13C126.95 420.737 125.964 414.123 127.044 407.175C127.846 401.995 129.35 397.532 130.805 393.211C133.655 384.739 136.119 377.42 132.767 367.026C132.609 366.538 132.485 366.046 132.369 365.569C132.024 364.173 131.724 362.964 130.708 362.413C130.198 362.135 130.006 361.493 130.288 360.982C130.565 360.472 131.207 360.28 131.717 360.562C133.547 361.557 134.008 363.422 134.413 365.063C134.529 365.524 134.634 365.963 134.769 366.38C138.336 377.435 135.647 385.426 132.8 393.887C131.375 398.121 129.901 402.498 129.125 407.498C128.094 414.131 129.058 420.579 129.988 426.818C130.734 431.81 131.503 436.975 131.278 442.272C131.068 447.268 129.241 451.806 127.475 456.198C126.47 458.694 125.435 461.273 124.73 463.874C123.935 466.806 123.305 469.978 122.806 473.57C119.502 497.361 114.589 521.411 109.842 544.665C108.285 552.284 106.677 560.167 105.15 567.907C104.693 570.223 104.265 572.551 103.808 575.017C102.863 580.144 101.884 585.444 100.635 590.685C100.519 591.165 100.084 591.492 99.6075 591.492Z" fill="#2E5378"/>
<path d="M97.7067 432.452C97.4367 432.452 97.1667 432.347 96.9604 432.14C87.9937 423.131 79.9983 413.181 70.7541 401.007C70.4016 400.542 70.4916 399.881 70.9567 399.529C71.4217 399.176 72.0817 399.266 72.4342 399.731C81.6297 411.837 89.5726 421.728 98.4568 430.654C98.8693 431.067 98.8655 431.735 98.453 432.144C98.243 432.35 97.973 432.452 97.7067 432.452Z" fill="#2E5378"/>
<path d="M80.652 456.341C75.698 456.341 70.4403 455.406 64.59 453.518C64.035 453.338 63.7312 452.745 63.9112 452.189C64.0912 451.634 64.6838 451.329 65.2388 451.51C74.153 454.389 81.5971 454.963 88.6736 453.315C89.2399 453.184 89.8062 453.537 89.9375 454.104C90.0687 454.67 89.7162 455.237 89.1499 455.369C86.386 456.018 83.5734 456.341 80.652 456.341Z" fill="#2E5378"/>
<path d="M396.66 666.145C396.657 666.145 396.653 666.145 396.649 666.145C396.068 666.141 395.599 665.664 395.607 665.082C395.67 657.834 395.036 650.353 394.421 643.12C393.889 636.836 393.334 630.338 393.244 624.029C393.079 612.407 392.494 600.587 391.924 589.157C391.717 585.039 391.507 580.782 391.32 576.597C390.202 551.812 388.511 528.235 386.148 504.527C383.658 479.535 381.547 455.087 383.058 430.752C384.15 413.143 388.027 394.345 394.905 373.291C395.085 372.735 395.681 372.435 396.233 372.615C396.788 372.795 397.088 373.392 396.908 373.944C390.086 394.829 386.242 413.451 385.162 430.88C383.662 455.061 385.766 479.415 388.245 504.316C390.611 528.066 392.306 551.676 393.424 576.503C393.611 580.685 393.825 584.942 394.028 589.056C394.598 600.504 395.186 612.343 395.351 624.002C395.441 630.237 395.989 636.697 396.522 642.943C397.14 650.225 397.782 657.759 397.714 665.105C397.71 665.679 397.238 666.145 396.66 666.145Z" fill="#2E5378"/>
<path d="M82.3393 167.685C82.1931 167.685 82.0431 167.659 81.8968 167.599C81.4318 167.411 80.9705 167.194 80.5242 166.983C79.8754 166.679 79.2604 166.39 78.6416 166.188C75.3452 165.107 72.0451 163.703 68.8537 162.344L67.9311 161.954C67.3273 161.698 67.0461 161 67.3011 160.4C67.5561 159.795 68.2499 159.514 68.8537 159.769L69.7762 160.163C72.9226 161.499 76.1778 162.884 79.3767 163.935C80.1305 164.183 80.8392 164.517 81.5255 164.84C81.9606 165.047 82.3731 165.238 82.7743 165.399C83.3819 165.643 83.6744 166.334 83.4306 166.942C83.2544 167.404 82.8081 167.685 82.3393 167.685Z" fill="#A19086"/>
<path d="M84.0371 162.112C83.7183 162.112 83.4296 162.006 83.2458 161.939L83.1483 161.905C82.6908 161.751 82.3008 161.609 81.9557 161.47L81.6857 161.361C80.9957 161.076 80.4932 160.873 79.7994 160.708C76.668 159.968 73.5366 158.936 70.5102 157.941C69.5164 157.615 68.5301 157.288 67.5438 156.973C66.9212 156.774 66.5762 156.106 66.775 155.483C66.9737 154.859 67.6413 154.514 68.2638 154.713C69.2539 155.028 70.2514 155.359 71.2527 155.689C74.2304 156.669 77.3093 157.686 80.3432 158.403C81.2207 158.609 81.8545 158.868 82.5858 159.172L82.8483 159.281C83.1408 159.401 83.4858 159.525 83.8946 159.664C83.9246 159.675 83.9583 159.687 83.9958 159.698C84.5096 159.672 85.0046 159.979 85.1846 160.494C85.3422 160.952 85.2296 161.44 84.8921 161.774C84.6221 162.029 84.3184 162.112 84.0371 162.112Z" fill="#A19086"/>
<path d="M84.401 157.457C83.8347 157.457 83.3659 157.142 83.0884 156.954C83.0284 156.913 82.9722 156.872 82.9159 156.845C81.1946 155.971 79.3532 155.472 77.3994 154.939C76.6794 154.743 75.9331 154.541 75.1943 154.315C74.6768 154.158 69.884 152.532 67.8477 151.643C67.2477 151.38 66.9739 150.682 67.2364 150.081C67.4989 149.481 68.1965 149.207 68.7965 149.469C70.7128 150.307 75.4006 151.898 75.8806 152.044C76.5856 152.258 77.3169 152.457 78.0219 152.649C80.002 153.189 82.0496 153.745 83.9885 154.728C84.146 154.807 84.2885 154.905 84.4122 154.987C84.446 155.01 84.491 155.04 84.5322 155.066C85.016 155.077 85.466 155.385 85.631 155.869C85.8411 156.489 85.511 157.165 84.8923 157.375C84.7235 157.435 84.5585 157.457 84.401 157.457Z" fill="#A19086"/>
<path d="M78.4239 149.631C78.4202 149.631 78.4164 149.631 78.4164 149.631C77.7601 149.628 77.2351 149.091 77.2389 148.438C77.2576 145.923 77.8202 143.434 78.3639 141.024C78.6752 139.643 78.9715 138.337 79.1702 137.027C79.3315 135.979 79.4777 134.921 79.624 133.859C80.2053 129.666 80.8053 125.326 82.2754 121.306C82.3841 121.01 82.4929 120.721 82.6091 120.443C81.7541 120.285 80.9215 119.992 80.2128 119.745C78.2064 119.039 76.4663 117.845 75.0975 116.284C74.7562 116.622 74.3962 116.918 74.0587 117.2C73.8562 117.369 73.6574 117.534 73.4699 117.703C72.6261 118.457 71.6211 119.298 70.3535 119.745C69.6485 119.992 68.8122 120.285 67.9572 120.443C68.0697 120.724 68.1822 121.01 68.2909 121.306C69.761 125.326 70.361 129.666 70.9423 133.859C71.0886 134.925 71.2348 135.983 71.3961 137.027C71.6398 138.626 71.9961 140.251 72.3449 141.824C72.8062 143.926 73.2862 146.103 73.5187 148.303C73.5862 148.956 73.1174 149.538 72.4649 149.609C71.8161 149.677 71.2311 149.207 71.1598 148.554C70.9423 146.486 70.4773 144.376 70.0273 142.334C69.6747 140.724 69.3072 139.061 69.0522 137.387C68.891 136.332 68.741 135.259 68.5947 134.185C68.0322 130.112 67.4471 125.905 66.0633 122.121C65.8721 121.595 65.6696 121.1 65.4633 120.634C63.5245 120.709 61.1543 120.608 59.8643 119.182C59.3655 118.63 58.8217 117.635 59.0767 116.032C59.3392 114.392 60.2505 113.825 60.7718 113.638C61.7469 113.281 62.9207 113.604 63.9857 114.52C65.1108 115.492 66.0596 116.685 66.8884 118.179C66.9146 118.179 66.9446 118.176 66.9709 118.176C67.7697 118.134 68.726 117.8 69.566 117.504C70.4248 117.204 71.1861 116.562 71.8874 115.931C72.0974 115.743 72.3186 115.559 72.5436 115.372C72.9674 115.019 73.3724 114.681 73.6837 114.328C72.8924 112.981 72.3261 111.457 72.0261 109.813C71.6436 107.733 71.8874 104.918 73.8337 103.848C74.4825 103.491 75.2025 103.488 75.81 103.84C77.5051 104.82 77.6739 108.217 77.6776 108.251C77.7114 109.914 77.5201 112.207 76.5151 114.272C77.6739 115.751 79.2077 116.877 81.0041 117.508C81.8441 117.804 82.8004 118.138 83.5992 118.179C83.6254 118.179 83.6554 118.183 83.6817 118.183C84.5067 116.693 85.4593 115.496 86.5843 114.527C87.6494 113.607 88.8194 113.285 89.7982 113.641C90.3195 113.833 91.2346 114.396 91.4933 116.036C91.7483 117.639 91.2045 118.634 90.7058 119.185C89.4157 120.612 87.0456 120.713 85.1068 120.638C84.9005 121.104 84.698 121.599 84.5067 122.125C83.1229 125.908 82.5416 130.116 81.9753 134.189C81.8253 135.266 81.6791 136.336 81.5178 137.391C81.3041 138.783 80.9891 140.191 80.6815 141.554C80.164 143.84 79.6315 146.201 79.6165 148.46C79.6015 149.106 79.0727 149.631 78.4239 149.631ZM88.9507 115.852C88.8907 115.852 88.5569 115.946 88.1257 116.318C87.4919 116.866 86.9218 117.508 86.4006 118.27C87.4656 118.24 88.5007 118.078 88.9432 117.586C89.0257 117.496 89.2732 117.219 89.1457 116.408C89.0744 115.969 88.9544 115.852 88.9507 115.852C88.9544 115.852 88.9544 115.852 88.9507 115.852ZM61.5819 115.867C61.5894 115.875 61.4806 116.006 61.4169 116.408C61.2856 117.222 61.5369 117.496 61.6194 117.586C62.0619 118.078 63.0969 118.236 64.162 118.27C63.6407 117.508 63.0707 116.866 62.4369 116.318C62.0056 115.946 61.6756 115.852 61.5819 115.867ZM74.7562 106.108C74.2537 106.693 74.1337 108.176 74.355 109.385C74.4937 110.147 74.7 110.875 74.97 111.562C75.2588 110.398 75.3188 109.231 75.3 108.296C75.2925 107.756 75.0338 106.629 74.7562 106.108Z" fill="#A84216"/>
<path d="M203.036 522.819C202.522 522.819 202.072 522.443 201.993 521.918C200.362 510.829 197.144 500.229 194.208 491.321C193.191 488.236 191.965 485.06 190.776 481.99C188.219 475.376 185.575 468.537 184.577 461.57C184.495 460.992 184.896 460.459 185.47 460.376C186.047 460.293 186.58 460.695 186.662 461.269C187.626 467.996 190.225 474.723 192.741 481.228C193.938 484.325 195.175 487.523 196.21 490.661C199.173 499.655 202.424 510.364 204.078 521.61C204.164 522.188 203.763 522.721 203.189 522.807C203.137 522.815 203.084 522.819 203.036 522.819Z" fill="#2E5378"/>
<path d="M400.867 366.264C400.735 366.264 400.6 366.238 400.469 366.186C399.929 365.964 399.67 365.349 399.892 364.812C401.602 360.619 404.032 356.79 406.383 353.089C407.973 350.586 409.62 347.995 410.989 345.357C411.259 344.839 411.896 344.64 412.41 344.906C412.927 345.176 413.126 345.811 412.86 346.329C411.446 349.047 409.777 351.678 408.165 354.219C405.866 357.841 403.488 361.587 401.846 365.608C401.673 366.017 401.279 366.264 400.867 366.264Z" fill="#2E5378"/>
</g>
<defs>
<clipPath id="clip0_243_12712">
<rect width="477" height="542" fill="white"/>
</clipPath>
</defs>
</svg>
