<svg width="87" height="25" viewBox="0 0 87 25" fill="none" xmlns="http://www.w3.org/2000/svg">
<path d="M9.95801 9.17383V10.5361L8.41992 10.9316C8.70117 11.3711 8.8418 11.8633 8.8418 12.4082C8.8418 13.4629 8.47266 14.2861 7.73438 14.8779C7.00195 15.4639 5.98242 15.7568 4.67578 15.7568L4.19238 15.7305L3.79688 15.6865C3.52148 15.8975 3.38379 16.1318 3.38379 16.3896C3.38379 16.7764 3.87598 16.9697 4.86035 16.9697H6.53027C7.6084 16.9697 8.42871 17.2012 8.99121 17.6641C9.55957 18.127 9.84375 18.8066 9.84375 19.7031C9.84375 20.8516 9.36328 21.7422 8.40234 22.375C7.44727 23.0078 6.07324 23.3242 4.28027 23.3242C2.90918 23.3242 1.86035 23.084 1.13379 22.6035C0.413086 22.1289 0.0527344 21.4609 0.0527344 20.5996C0.0527344 20.0078 0.237305 19.5127 0.606445 19.1143C0.975586 18.7158 1.51758 18.4316 2.23242 18.2617C1.95703 18.1445 1.7168 17.9541 1.51172 17.6904C1.30664 17.4209 1.2041 17.1367 1.2041 16.8379C1.2041 16.4629 1.3125 16.1523 1.5293 15.9062C1.74609 15.6543 2.05957 15.4082 2.46973 15.168C1.9541 14.9453 1.54395 14.5879 1.23926 14.0957C0.94043 13.6035 0.791016 13.0234 0.791016 12.3555C0.791016 11.2832 1.13965 10.4541 1.83691 9.86816C2.53418 9.28223 3.53027 8.98926 4.8252 8.98926C5.10059 8.98926 5.42578 9.01562 5.80078 9.06836C6.18164 9.11523 6.4248 9.15039 6.53027 9.17383H9.95801ZM2.37305 20.3887C2.37305 20.7578 2.54883 21.0479 2.90039 21.2588C3.25781 21.4697 3.75586 21.5752 4.39453 21.5752C5.35547 21.5752 6.1084 21.4434 6.65332 21.1797C7.19824 20.916 7.4707 20.5557 7.4707 20.0986C7.4707 19.7295 7.30957 19.4746 6.9873 19.334C6.66504 19.1934 6.16699 19.123 5.49316 19.123H4.10449C3.6123 19.123 3.19922 19.2373 2.86523 19.4658C2.53711 19.7002 2.37305 20.0078 2.37305 20.3887ZM3.34863 12.3906C3.34863 12.9238 3.46875 13.3457 3.70898 13.6562C3.95508 13.9668 4.32715 14.1221 4.8252 14.1221C5.3291 14.1221 5.69824 13.9668 5.93262 13.6562C6.16699 13.3457 6.28418 12.9238 6.28418 12.3906C6.28418 11.207 5.79785 10.6152 4.8252 10.6152C3.84082 10.6152 3.34863 11.207 3.34863 12.3906ZM20.3818 19H17.7012V13.2607C17.7012 12.5518 17.5811 12.0215 17.3408 11.6699C17.1064 11.3125 16.7344 11.1338 16.2246 11.1338C15.5391 11.1338 15.041 11.3857 14.7305 11.8896C14.4199 12.3936 14.2646 13.2227 14.2646 14.377V19H11.584V9.17383H13.6318L13.9922 10.4307H14.1416C14.4053 9.97949 14.7861 9.62793 15.2842 9.37598C15.7822 9.11816 16.3535 8.98926 16.998 8.98926C18.4688 8.98926 19.4648 9.46973 19.9863 10.4307H20.2236C20.4873 9.97363 20.874 9.61914 21.3838 9.36719C21.8994 9.11523 22.4795 8.98926 23.124 8.98926C24.2373 8.98926 25.0781 9.27637 25.6465 9.85059C26.2207 10.4189 26.5078 11.333 26.5078 12.5928V19H23.8184V13.2607C23.8184 12.5518 23.6982 12.0215 23.458 11.6699C23.2236 11.3125 22.8516 11.1338 22.3418 11.1338C21.6855 11.1338 21.1934 11.3682 20.8652 11.8369C20.543 12.3057 20.3818 13.0498 20.3818 14.0693V19ZM35.5078 19L34.9893 17.6641H34.9189C34.4678 18.2324 34.002 18.6279 33.5215 18.8506C33.0469 19.0674 32.4258 19.1758 31.6582 19.1758C30.7148 19.1758 29.9707 18.9062 29.4258 18.3672C28.8867 17.8281 28.6172 17.0605 28.6172 16.0645C28.6172 15.0215 28.9805 14.2539 29.707 13.7617C30.4395 13.2637 31.541 12.9883 33.0117 12.9355L34.7168 12.8828V12.4521C34.7168 11.4561 34.207 10.958 33.1875 10.958C32.4023 10.958 31.4795 11.1953 30.4189 11.6699L29.5312 9.85938C30.6621 9.26758 31.916 8.97168 33.293 8.97168C34.6113 8.97168 35.6221 9.25879 36.3252 9.83301C37.0283 10.4072 37.3799 11.2803 37.3799 12.4521V19H35.5078ZM34.7168 14.4473L33.6797 14.4824C32.9004 14.5059 32.3203 14.6465 31.9395 14.9043C31.5586 15.1621 31.3682 15.5547 31.3682 16.082C31.3682 16.8379 31.8018 17.2158 32.6689 17.2158C33.29 17.2158 33.7852 17.0371 34.1543 16.6797C34.5293 16.3223 34.7168 15.8477 34.7168 15.2559V14.4473ZM40.0342 6.63379C40.0342 5.76074 40.5205 5.32422 41.4932 5.32422C42.4658 5.32422 42.9521 5.76074 42.9521 6.63379C42.9521 7.0498 42.8291 7.375 42.583 7.60938C42.3428 7.83789 41.9795 7.95215 41.4932 7.95215C40.5205 7.95215 40.0342 7.5127 40.0342 6.63379ZM42.8291 19H40.1484V9.17383H42.8291V19ZM48.3311 19H45.6504V5.32422H48.3311V19Z" fill="white"/>
<g clip-path="url(#clip0_362_440)">
<path d="M61.8409 22.5001H66.1364V12.1971L60 7.65161V20.6819C60 21.688 60.8253 22.5001 61.8409 22.5001Z" fill="white"/>
<path d="M80.8633 22.5001H85.1587C86.1774 22.5001 86.9996 21.6849 86.9996 20.6819V7.65161L80.8633 12.1971" fill="white"/>
<path d="M80.8633 4.31821V12.197L86.9996 7.65155V5.2273C86.9996 2.97882 84.4009 1.697 82.5815 3.04549" fill="white"/>
<path d="M66.1367 12.1969V4.31812L73.5004 9.77266L80.864 4.31812V12.1969L73.5004 17.6514" fill="white"/>
<path d="M60 5.22804V7.65228L66.1364 12.1977V4.31895L64.4182 3.04622C62.5957 1.69773 60 2.97955 60 5.22804Z" fill="white"/>
</g>
<defs>
<clipPath id="clip0_362_440">
<rect width="27" height="20" fill="white" transform="translate(60 2.5)"/>
</clipPath>
</defs>
</svg>
