<svg width="134" height="134" viewBox="0 0 134 134" fill="none" xmlns="http://www.w3.org/2000/svg">
<circle cx="57.0322" cy="76.9912" r="57.0088" fill="white"/>
<g clip-path="url(#clip0_301_11731)">
<path d="M32.8363 58.4239C12.7815 95.2062 29.7424 110.036 46.9719 114.064C66.5263 118.628 83.1406 110.025 93.2219 88.8479C103.303 67.6712 102.063 44.1971 83.9344 35.6129C65.8062 27.0288 44.0796 37.7961 32.8363 58.4239Z" fill="#F5B49B"/>
<path d="M57.6438 55.9019C57.7131 55.646 57.8403 55.4094 58.0154 55.2103C58.1905 55.0112 58.409 54.8549 58.6541 54.7535C59.2116 54.5149 59.825 54.4379 60.4242 54.5313C60.8966 54.6293 61.3432 54.8251 61.7353 55.1061C62.1274 55.3871 62.4564 55.7471 62.701 56.1629C62.9457 56.5787 63.1006 57.0411 63.1558 57.5203C63.211 57.9996 63.1652 58.4851 63.0215 58.9456C62.8813 59.2796 62.6542 59.5699 62.3638 59.7864C62.0734 60.0029 61.7303 60.1376 61.3702 60.1766C61.01 60.2155 60.646 60.1573 60.3161 60.0079C59.9861 59.8585 59.7021 59.6234 59.4938 59.3271C59.017 58.7842 58.7111 58.1381 58.2545 57.5927C58.0162 57.3869 57.8348 57.1233 57.7279 56.8272C57.6209 56.5311 57.592 56.2125 57.6438 55.9019Z" fill="#304493"/>
<path d="M48.7739 52.8686C48.8887 52.6536 48.9536 52.4154 48.9637 52.1718C48.9738 51.9283 48.9289 51.6855 48.8322 51.4617C48.6202 50.9438 48.2666 50.4961 47.8119 50.1698C47.4349 49.9317 47.0124 49.7748 46.5714 49.7089C46.1304 49.643 45.6805 49.6696 45.2504 49.787C44.8202 49.9044 44.4192 50.11 44.0728 50.3909C43.7265 50.6717 43.4423 51.0215 43.2385 51.4181C43.1307 51.7296 43.1047 52.0635 43.1629 52.3879C43.221 52.7123 43.3615 53.0164 43.5708 53.271C43.7801 53.5256 44.0513 53.7222 44.3583 53.8421C44.6653 53.9619 44.998 54.001 45.3244 53.9555C45.9882 53.8721 46.618 53.6807 47.3259 53.6225C47.6112 53.6291 47.8936 53.5635 48.1467 53.4317C48.3999 53.2999 48.6156 53.1062 48.7739 52.8686Z" fill="#304493"/>
<path d="M36.0281 97.9073C34.3992 96.4057 32.9522 94.3193 33.3496 92.1139C33.4885 91.3737 33.8482 90.6928 34.3813 90.1609C34.9145 89.629 35.5961 89.2709 36.3366 89.1338C38.4462 88.7668 40.2538 90.4708 42.194 90.9526C43.3942 91.2669 44.6692 91.1068 45.7544 90.5057C47.856 89.3428 49.9776 87.9323 52.4424 89.0123C53.2454 89.3603 53.9277 89.938 54.4034 90.6726C54.8791 91.4072 55.1272 92.266 55.1163 93.1411C55.0585 94.467 54.5686 95.7376 53.7213 96.759C52.7296 98.0031 51.4996 99.0367 50.1035 99.7995C48.7073 100.562 47.173 101.039 45.5903 101.201C44.0077 101.364 42.4086 101.209 40.8865 100.746C39.3645 100.283 37.9501 99.5207 36.7262 98.5042C36.4885 98.3195 36.2583 98.1134 36.0281 97.9073Z" fill="white"/>
<path d="M34.1799 67.4795C35.1935 66.3291 36.542 65.5252 38.036 65.1804C39.5299 64.8357 41.0943 64.9675 42.5095 65.5574C43.9247 66.1472 45.1196 67.1655 45.9265 68.4692C46.7334 69.7729 47.1117 71.2966 47.0083 72.8264C46.9623 73.0992 47.0213 73.3794 47.1735 73.6104C47.3257 73.8415 47.5598 74.0064 47.8286 74.0719C47.9653 74.1055 48.1074 74.1104 48.246 74.0861C48.3847 74.0618 48.5167 74.0089 48.6337 73.9308C48.7508 73.8526 48.8503 73.751 48.9259 73.6323C49.0015 73.5137 49.0516 73.3805 49.0729 73.2414C49.2573 71.2597 48.8103 69.2705 47.7961 67.5581C46.7818 65.8457 45.2521 64.4978 43.4257 63.7071C41.5993 62.9163 39.5696 62.7233 37.6269 63.1555C35.6841 63.5878 33.9277 64.6231 32.6088 66.1136C32.5165 66.2171 32.4455 66.3378 32.3998 66.4687C32.3541 66.5997 32.3346 66.7383 32.3425 66.8768C32.3504 67.0152 32.3855 67.1508 32.4458 67.2757C32.5061 67.4006 32.5904 67.5124 32.6939 67.6047C32.7973 67.697 32.918 67.7681 33.049 67.8138C33.1799 67.8595 33.3186 67.8789 33.457 67.871C33.5955 67.8631 33.731 67.828 33.8559 67.7678C33.9808 67.7075 34.0926 67.6232 34.185 67.5197L34.1799 67.4795Z" fill="#304493"/>
<path d="M39.4222 69.5088C37.0317 75.9385 31.396 79.7108 26.8463 78.0548C22.2965 76.3988 20.5467 69.7838 22.9587 63.3616C25.3706 56.9394 30.9786 53.1093 35.5334 54.8056C40.0881 56.5018 41.814 63.0891 39.4222 69.5088Z" fill="#282A31"/>
<mask id="mask0_301_11731" style="mask-type:alpha" maskUnits="userSpaceOnUse" x="21" y="54" width="20" height="25">
<path d="M39.4222 69.5097C37.0317 75.9395 31.396 79.7117 26.8462 78.0557C22.2965 76.3997 20.5467 69.7848 22.9587 63.3626C25.3706 56.9404 30.9786 53.1103 35.5334 54.8065C40.0881 56.5028 41.814 63.09 39.4222 69.5097Z" fill="#282A31"/>
</mask>
<g mask="url(#mask0_301_11731)">
<path d="M40.7509 57.1178L12.2617 74.2188L14.8545 78.5382L43.3437 61.4373L40.7509 57.1178Z" fill="white"/>
<path d="M39.4697 52.9919L10.9805 70.0928L11.5961 71.1183L40.0853 54.0174L39.4697 52.9919Z" fill="white"/>
</g>
<path d="M69.2288 76.8223C68.7353 79.2532 67.532 81.4831 65.771 83.2299C64.01 84.9767 61.7705 86.162 59.3357 86.6359C56.901 87.1097 54.3804 86.8507 52.0928 85.8918C49.8052 84.9328 47.8535 83.3169 46.4845 81.2485C45.1154 79.1801 44.3906 76.7521 44.4017 74.2717C44.4128 71.7913 45.1593 69.3699 46.5468 67.3139C47.9343 65.2578 49.9004 63.6594 52.1965 62.721C54.4925 61.7825 57.0153 61.5461 59.4457 62.0417C62.7024 62.7058 65.5621 64.6356 67.3965 67.4071C69.231 70.1787 69.89 73.5651 69.2288 76.8223Z" fill="#282A31"/>
<mask id="mask1_301_11731" style="mask-type:alpha" maskUnits="userSpaceOnUse" x="44" y="61" width="26" height="26">
<path d="M69.221 76.8223C68.7275 79.2532 67.5242 81.4831 65.7632 83.2299C64.0022 84.9768 61.7626 86.162 59.3279 86.6359C56.8931 87.1097 54.3726 86.8507 52.085 85.8918C49.7974 84.9328 47.8457 83.3169 46.4767 81.2485C45.1076 79.1801 44.3828 76.7521 44.3939 74.2717C44.405 71.7913 45.1515 69.3699 46.539 67.3139C47.9265 65.2578 49.8926 63.6594 52.1886 62.721C54.4847 61.7825 57.0075 61.5461 59.4379 62.0417C62.6945 62.7058 65.5543 64.6356 67.3887 67.4071C69.2231 70.1787 69.8822 73.5651 69.221 76.8223Z" fill="#282A31"/>
</mask>
<g mask="url(#mask1_301_11731)">
<path d="M71.0535 65.8744L41.7656 81.5684L44.1451 86.0089L73.4329 70.315L71.0535 65.8744Z" fill="white"/>
<path d="M68.189 60.5133L38.8984 76.2021L39.7599 77.8105L69.0505 62.1217L68.189 60.5133Z" fill="white"/>
</g>
<path d="M31.27 84.6522C30.0079 83.9732 29.0327 82.8622 28.5231 81.5228C28.0135 80.1833 28.0035 78.7051 28.4951 77.3589C29.3082 75.7386 30.4889 74.3309 31.943 73.2483L40.3429 65.9416C40.3429 65.9416 42.7062 74.8395 40.7689 79.9966C38.8315 85.1537 31.27 84.6522 31.27 84.6522Z" fill="#F5B49B"/>
<path d="M39.9365 65.4098L32.3019 72.0585C30.7172 73.4323 28.9502 74.8187 28.0497 76.7605C27.3886 78.2896 27.3256 80.0112 27.8731 81.5845C28.4206 83.1579 29.5387 84.4685 31.0062 85.2569C31.7445 85.6853 32.2556 84.4667 31.5286 84.0471C30.6048 83.5215 29.8554 82.7364 29.3733 81.7891C28.8913 80.8418 28.6976 79.7739 28.8164 78.7177C29.0882 76.7323 30.6339 75.2919 32.049 74.0313C34.9168 71.4851 37.8412 68.9829 40.743 66.463C41.3789 65.9132 40.541 64.8538 39.9365 65.4098Z" fill="#AB684D"/>
<path d="M33.8904 83.4028C34.2719 83.3075 34.6741 83.3396 35.0358 83.494C35.5574 83.6836 36.0011 84.0412 36.2974 84.5105C36.3672 84.6305 36.4083 84.765 36.4176 84.9035C36.4269 85.042 36.4041 85.1807 36.351 85.309C36.2979 85.4372 36.2159 85.5515 36.1115 85.6429C36.007 85.7343 35.8828 85.8004 35.7486 85.8359C35.5643 85.879 35.3724 85.8773 35.1888 85.831C35.0053 85.7848 34.8355 85.6952 34.6936 85.5699C34.1918 85.2345 33.1883 84.9722 33.2081 84.2342C33.2006 84.0362 33.2659 83.8423 33.3916 83.6891C33.5173 83.5359 33.6947 83.4341 33.8904 83.4028Z" fill="#AB684D"/>
<path d="M120.481 59.2509C120.53 58.9927 120.569 58.7324 120.597 58.4701C121.048 53.9185 118.162 50.7051 114.287 48.8928C114.143 48.8216 113.995 48.7583 113.844 48.7032C115.902 45.9726 116.396 42.2533 114.146 39.4708C110.941 35.5007 105.035 34.1886 100.058 35.3957C100.633 35.2621 100.169 32.5416 100.011 32.0916C99.5591 30.943 98.8606 29.9076 97.9647 29.0588C96.5396 27.7258 94.7735 26.8133 92.8617 26.4222C90.95 26.031 88.9674 26.1766 87.1333 26.8428C87.9252 26.5595 86.9751 22.4901 86.7976 21.971C86.3262 20.6816 85.5756 19.5125 84.5997 18.547C83.6237 17.5816 82.4464 16.8439 81.152 16.3865C79.4265 15.8235 77.5807 15.7385 75.8107 16.1405C74.0408 16.5426 72.4128 17.4167 71.0999 18.6699C70.5133 19.223 69.9979 19.8471 69.5657 20.5277C69.8748 20.0599 66.1631 17.1851 65.6927 16.8559C60.8453 13.4801 54.1458 12.0327 48.4991 14.09C43.3025 15.9887 39.4352 21.2348 37.8802 26.4257C37.3004 28.1837 37.0949 30.0436 37.2769 31.8857C37.4589 33.7279 38.0243 35.5116 38.9368 37.1222C41.4045 41.3177 46.1946 43.5054 50.8758 44.0927C50.9698 44.4767 51.0889 44.8542 51.2322 45.2228C54.0572 52.2646 63.4756 54.7806 70.3736 53.4141C72.5645 52.935 74.6773 52.1505 76.65 51.0836C76.5354 51.8751 76.482 52.6742 76.4903 53.4738C76.5242 58.2201 79.1386 63.9909 84.0352 65.399C84.3957 65.5004 84.7636 65.5738 85.1354 65.6185C83.0375 67.8693 81.7594 70.7614 81.5074 73.8279C81.1999 77.3243 82.1114 80.8194 84.0874 83.7202C85.0726 85.2213 86.5082 86.3715 88.1879 87.0059C89.2126 87.3423 90.2905 87.4875 91.3678 87.4342C91.5775 87.6939 91.7926 87.9428 92.0132 88.1807C94.085 90.3623 97.1679 90.3431 99.6956 88.994C102.03 87.7249 103.962 85.8259 105.27 83.5131C105.713 82.6863 105.998 81.7844 106.111 80.8535C107.116 80.6839 108.111 80.4567 109.09 80.173C110.266 79.7182 111.296 78.9534 112.072 77.9599C113.75 75.706 113.477 72.8797 112.163 70.5519C111.543 69.7319 111.008 68.8509 110.566 67.9225C110.7 68.4165 116.322 65.4326 116.791 65.0979C118.687 63.6586 119.998 61.5816 120.481 59.2509Z" fill="#304493"/>
<path d="M79.0196 85.0523C79.0196 85.0523 92.4151 73.5123 101.307 82.2546C110.2 90.9969 93.7562 104.38 79.8011 100.963C70.6519 98.7196 73.4229 88.8094 79.0196 85.0523Z" fill="#F5B49B"/>
<path d="M97.0884 89.0153C94.2184 82.4286 86.7039 85.4764 83.0661 89.4576C82.9798 89.5746 82.9293 89.7141 82.9208 89.8593C82.9124 90.0044 82.9462 90.1489 83.0184 90.2751C83.0905 90.4014 83.1978 90.5039 83.3271 90.5703C83.4565 90.6367 83.6023 90.6641 83.7469 90.6491C86.1859 90.3838 86.8528 91.3013 85.7475 93.4015C85.9051 96.6645 84.6142 96.6359 81.875 93.3155C81.6771 92.3903 80.2074 92.5645 80.3965 93.5011C81.1061 96.957 85.3894 98.7691 87.7326 95.5429C90.0757 92.3168 87.1054 88.7564 83.5626 89.1807L84.212 90.366C87.0607 87.2603 93.2964 84.1176 95.6981 89.578C96.0833 90.4491 97.4623 89.8776 97.067 89.0078L97.0884 89.0153Z" fill="#AB684D"/>
</g>
<defs>
<clipPath id="clip0_301_11731">
<rect width="112.017" height="115.077" fill="white" transform="translate(8.25 13.9512) rotate(-7.15469)"/>
</clipPath>
</defs>
</svg>
