<svg width="126" height="129" viewBox="0 0 126 129" fill="none" xmlns="http://www.w3.org/2000/svg">
<path d="M24.5883 58.4239C4.53348 95.2062 21.4944 110.036 38.7238 114.064C58.2782 118.628 74.8926 110.025 84.9739 88.8479C95.0551 67.6712 93.8146 44.1971 75.6864 35.6129C57.5582 27.0288 35.8315 37.7961 24.5883 58.4239Z" fill="#F5B49B"/>
<path d="M49.3938 55.9019C49.4631 55.646 49.5903 55.4094 49.7654 55.2103C49.9405 55.0112 50.159 54.8549 50.4041 54.7535C50.9616 54.5149 51.575 54.4379 52.1742 54.5313C52.6466 54.6293 53.0932 54.8251 53.4853 55.1061C53.8774 55.3871 54.2064 55.7471 54.451 56.1629C54.6957 56.5787 54.8506 57.0411 54.9058 57.5203C54.961 57.9996 54.9152 58.4851 54.7715 58.9456C54.6313 59.2796 54.4042 59.5699 54.1138 59.7864C53.8234 60.0029 53.4803 60.1376 53.1202 60.1766C52.76 60.2155 52.396 60.1573 52.0661 60.0079C51.7361 59.8585 51.4521 59.6234 51.2438 59.3271C50.767 58.7842 50.4611 58.1381 50.0045 57.5927C49.7662 57.3869 49.5848 57.1233 49.4779 56.8272C49.3709 56.5311 49.342 56.2125 49.3938 55.9019Z" fill="#304493"/>
<path d="M40.5258 52.8686C40.6407 52.6536 40.7056 52.4154 40.7157 52.1718C40.7258 51.9283 40.6808 51.6855 40.5842 51.4617C40.3721 50.9438 40.0185 50.4961 39.5639 50.1698C39.1868 49.9317 38.7644 49.7748 38.3234 49.7089C37.8824 49.643 37.4325 49.6696 37.0023 49.787C36.5722 49.9044 36.1711 50.11 35.8248 50.3909C35.4784 50.6717 35.1943 51.0215 34.9905 51.4181C34.8827 51.7296 34.8566 52.0635 34.9148 52.3879C34.973 52.7123 35.1135 53.0164 35.3228 53.271C35.5321 53.5256 35.8032 53.7222 36.1103 53.8421C36.4173 53.9619 36.7499 54.001 37.0764 53.9555C37.7402 53.8721 38.37 53.6807 39.0778 53.6225C39.3632 53.6291 39.6455 53.5635 39.8987 53.4317C40.1519 53.2999 40.3676 53.1062 40.5258 52.8686Z" fill="#304493"/>
<path d="M44.7127 91.9836C46.2644 93.565 47.6049 94.7213 47.0974 96.9041C46.9217 97.6364 46.5283 98.2983 45.9692 98.8028C45.41 99.3073 44.7113 99.6308 43.9648 99.7306C41.8395 99.9914 40.1196 98.199 38.2059 97.6205C37.0231 97.2465 35.7416 97.3424 34.6276 97.8884C32.4704 98.9444 30.2808 100.247 27.8732 99.0446C27.0886 98.6568 26.4362 98.0457 25.9979 97.2882C25.5596 96.5306 25.3549 95.6605 25.4096 94.787C25.5338 93.4657 26.0868 93.2212 26.9842 92.2435C28.0371 91.0508 29.3173 90.0801 30.75 89.3882C32.1826 88.6964 33.7389 88.2973 35.3277 88.2143C36.9165 88.1313 38.5058 88.3661 40.0028 88.905C41.4997 89.4439 42.874 90.276 44.0454 91.3525C44.2736 91.5489 44.4932 91.7663 44.7127 91.9836Z" fill="white"/>
<path d="M23.0195 84.6522C21.7574 83.9732 20.7822 82.8622 20.2726 81.5228C19.763 80.1833 19.753 78.7051 20.2446 77.3589C21.0577 75.7386 22.2385 74.3309 23.6925 73.2483L32.0924 65.9416C32.0924 65.9416 34.4557 74.8395 32.5184 79.9966C30.581 85.1537 23.0195 84.6522 23.0195 84.6522Z" fill="#F5B49B"/>
<path d="M31.6875 65.4098L24.0529 72.0585C22.4682 73.4323 20.7012 74.8187 19.8007 76.7605C19.1396 78.2896 19.0766 80.0112 19.6241 81.5845C20.1716 83.1579 21.2897 84.4685 22.7572 85.2569C23.4954 85.6853 24.0065 84.4667 23.2796 84.0471C22.3558 83.5215 21.6064 82.7364 21.1243 81.7891C20.6422 80.8418 20.4486 79.7739 20.5674 78.7177C20.8392 76.7323 22.3849 75.2919 23.8 74.0313C26.6678 71.4851 29.5922 68.9829 32.4939 66.463C33.1298 65.9132 32.2919 64.8538 31.6875 65.4098Z" fill="#AB684D"/>
<path d="M25.6394 83.4028C26.0209 83.3075 26.4232 83.3396 26.7848 83.494C27.3064 83.6836 27.7502 84.0412 28.0464 84.5105C28.1162 84.6305 28.1573 84.765 28.1666 84.9035C28.1759 85.042 28.1531 85.1807 28.1 85.309C28.0469 85.4372 27.965 85.5515 27.8605 85.6429C27.756 85.7343 27.6318 85.8004 27.4977 85.8359C27.3133 85.879 27.1214 85.8773 26.9378 85.831C26.7543 85.7848 26.5845 85.6952 26.4427 85.5699C25.9408 85.2345 24.9374 84.9722 24.9571 84.2342C24.9496 84.0362 25.0149 83.8423 25.1406 83.6891C25.2663 83.5359 25.4437 83.4341 25.6394 83.4028Z" fill="#AB684D"/>
<path d="M112.232 59.2509C112.281 58.9927 112.32 58.7324 112.348 58.4701C112.798 53.9185 109.913 50.7051 106.038 48.8928C105.894 48.8216 105.746 48.7583 105.595 48.7032C107.653 45.9726 108.147 42.2533 105.897 39.4708C102.692 35.5007 96.7855 34.1886 91.8086 35.3957C92.3843 35.2621 91.9203 32.5416 91.7616 32.0916C91.31 30.943 90.6116 29.9076 89.7157 29.0588C88.2906 27.7258 86.5244 26.8133 84.6127 26.4222C82.701 26.031 80.7184 26.1766 78.8843 26.8428C79.6762 26.5595 78.7261 22.4901 78.5486 21.971C78.0772 20.6816 77.3266 19.5125 76.3506 18.547C75.3746 17.5816 74.1974 16.8439 72.903 16.3865C71.1775 15.8235 69.3317 15.7385 67.5617 16.1405C65.7918 16.5426 64.1638 17.4167 62.8509 18.6699C62.2643 19.223 61.7489 19.8471 61.3167 20.5277C61.6258 20.0599 57.914 17.1851 57.4436 16.8559C52.5963 13.4801 45.8967 12.0327 40.2501 14.09C35.0534 15.9887 31.1862 21.2348 29.6311 26.4257C29.0514 28.1837 28.8459 30.0436 29.0279 31.8857C29.2098 33.7279 29.7753 35.5116 30.6878 37.1222C33.1555 41.3177 37.9456 43.5054 42.6268 44.0927C42.7208 44.4767 42.8399 44.8542 42.9832 45.2228C45.8082 52.2646 55.2266 54.7806 62.1246 53.4141C64.3155 52.935 66.4283 52.1505 68.401 51.0836C68.2863 51.8751 68.233 52.6742 68.2413 53.4738C68.2752 58.2201 70.8896 63.9909 75.7862 65.399C76.1467 65.5004 76.5146 65.5738 76.8864 65.6185C74.7885 67.8693 73.5104 70.7614 73.2584 73.8279C72.9508 77.3243 73.8624 80.8194 75.8384 83.7202C76.8236 85.2213 78.2591 86.3715 79.9389 87.0059C80.9636 87.3423 82.0415 87.4875 83.1188 87.4342C83.3284 87.6939 83.5436 87.9428 83.7641 88.1807C85.836 90.3623 88.9189 90.3431 91.4466 88.994C93.7812 87.7249 95.7127 85.8259 97.0211 83.5131C97.4637 82.6863 97.7488 81.7844 97.8621 80.8535C98.8674 80.6839 99.8622 80.4567 100.841 80.173C102.017 79.7182 103.047 78.9534 103.823 77.9599C105.501 75.706 105.228 72.8797 103.914 70.5519C103.294 69.7319 102.759 68.8509 102.317 67.9225C102.451 68.4165 108.073 65.4326 108.542 65.0979C110.438 63.6586 111.748 61.5816 112.232 59.2509Z" fill="#304493"/>
<path d="M70.7677 85.0523C70.7677 85.0523 84.1631 73.5123 93.0554 82.2546C101.948 90.9969 85.5043 104.38 71.5492 100.963C62.4 98.7196 65.1709 88.8094 70.7677 85.0523Z" fill="#F5B49B"/>
<path d="M88.8384 89.0153C85.9684 82.4286 78.4539 85.4764 74.8161 89.4576C74.7298 89.5746 74.6793 89.7141 74.6708 89.8593C74.6624 90.0044 74.6962 90.1489 74.7684 90.2751C74.8405 90.4014 74.9478 90.5039 75.0771 90.5703C75.2065 90.6367 75.3523 90.6641 75.4969 90.6491C77.9359 90.3838 78.6028 91.3013 77.4975 93.4015C77.6551 96.6645 76.3642 96.6359 73.625 93.3155C73.4271 92.3903 71.9574 92.5645 72.1465 93.5011C72.8561 96.957 77.1394 98.7691 79.4826 95.5429C81.8257 92.3168 78.8554 88.7564 75.3126 89.1807L75.962 90.366C78.8107 87.2603 85.0464 84.1176 87.4481 89.578C87.8333 90.4491 89.2123 89.8776 88.817 89.0078L88.8384 89.0153Z" fill="#AB684D"/>
<ellipse cx="44.3217" cy="70.6761" rx="3.53263" ry="4" transform="rotate(12.6407 44.3217 70.6761)" fill="#282A31"/>
<ellipse cx="24.3217" cy="61.6761" rx="3.53263" ry="4" transform="rotate(12.6407 24.3217 61.6761)" fill="#282A31"/>
</svg>
