<svg width="884" height="384" viewBox="0 0 884 384" fill="none" xmlns="http://www.w3.org/2000/svg">
<path d="M507.1 110.1L507 178.7L594.5 141.3L507.1 110.1Z" fill="#272A31"/>
<path d="M348 53.4L201 0.900024L0.100098 149L100.3 181.6C100.3 181.6 135.9 91.5 258.5 112.3C289.2 117.5 319.7 124.4 348.1 131.9L348 53.4Z" fill="#272A31"/>
<path d="M181.9 212.6V334.5H153.7V284.5H98.3001V334.5H70.1001V212.6H98.3001V260.6H153.7V212.6H181.9Z" fill="#282A31"/>
<path d="M283.4 334.5L259.9 300.5H258.5H234V334.5H205.8V212.6H258.6C291.1 212.6 311.5 229.5 311.5 256.8C311.5 275.1 302.3 288.5 286.4 295.3L313.7 334.5H283.4ZM256.9 235.6H233.9V278.1H256.9C274.1 278.1 282.8 270.1 282.8 256.9C282.9 243.4 274.2 235.6 256.9 235.6Z" fill="#272A31"/>
<path d="M517.1 287.6C517.1 259.4 538.9 239.4 568.6 239.4C598.4 239.4 619.9 259.4 619.9 287.6C619.9 315.8 598.3 335.8 568.6 335.8C538.8 335.8 517.1 315.8 517.1 287.6ZM592.5 287.6C592.5 271.4 582.2 261.7 568.7 261.7C555.1 261.7 544.7 271.5 544.7 287.6C544.7 303.7 555.1 313.5 568.7 313.5C582.2 313.6 592.5 303.8 592.5 287.6Z" fill="#282A31"/>
<path d="M634.8 212.6C634.8 204.1 641.6 197.5 651.7 197.5C661.8 197.5 668.6 203.8 668.6 212.1C668.6 221.1 661.8 227.8 651.7 227.8C641.6 227.7 634.8 221.1 634.8 212.6ZM638.1 240.8H665.3V334.5H638.1V240.8Z" fill="#282A31"/>
<path d="M683.5 287.6C683.5 259.4 705.3 239.4 735.7 239.4C755.4 239.4 770.9 247.9 777.7 263.2L756.6 274.5C751.6 265.6 744.1 261.6 735.5 261.6C721.7 261.6 711 271.2 711 287.5C711 303.8 721.8 313.4 735.5 313.4C744 313.4 751.5 309.6 756.6 300.5L777.7 312C770.9 327 755.4 335.7 735.7 335.7C705.3 335.8 683.5 315.8 683.5 287.6Z" fill="#282A31"/>
<path d="M883.4 295.3H812.6C815.2 307 825.1 314.1 839.4 314.1C849.3 314.1 856.5 311.1 862.9 305.1L877.4 320.8C868.7 330.7 855.6 336 838.7 336C806.3 336 785.3 315.6 785.3 287.8C785.3 259.8 806.7 239.6 835.3 239.6C862.8 239.6 884 258.1 884 288.2C883.9 290.1 883.5 293 883.4 295.3ZM812.2 279.5H858.3C856.4 267.7 847.5 260 835.3 260C823 260 814.1 267.4 812.2 279.5Z" fill="#282A31"/>
<path d="M494.8 211.8L441.9 334.1H413.9L361.1 211.8H391.7L428.9 299.1L466.6 211.8H494.8Z" fill="white"/>
<path d="M354.3 54.9L354.6 334.3L461.7 383.1L500.4 357L500.6 108.3L354.3 54.9ZM441.8 334.1H413.8L361 211.8H391.6L428.8 299.1L466.5 211.8H494.6L441.8 334.1Z" fill="#F6C035"/>
</svg>
