<svg width="884" height="383" viewBox="0 0 884 383" fill="none" xmlns="http://www.w3.org/2000/svg">
<path d="M507 109.2L506.9 177.8L594.4 140.4L507 109.2Z" fill="white"/>
<path d="M347.9 52.5L200.9 0L0 148.1L100.2 180.7C100.2 180.7 135.8 90.6 258.4 111.4C289.1 116.6 319.6 123.5 348 131L347.9 52.5Z" fill="white"/>
<path d="M181.8 211.7V333.6H153.6V283.6H98.2V333.6H70V211.7H98.2V259.7H153.6V211.7H181.8Z" fill="white"/>
<path d="M283.3 333.6L259.8 299.6H258.4H233.9V333.6H205.7V211.7H258.5C291 211.7 311.4 228.6 311.4 255.9C311.4 274.2 302.2 287.6 286.3 294.4L313.6 333.6H283.3ZM256.8 234.7H233.8V277.2H256.8C274 277.2 282.7 269.2 282.7 256C282.8 242.5 274.1 234.7 256.8 234.7Z" fill="white"/>
<path d="M517 286.7C517 258.5 538.8 238.5 568.5 238.5C598.3 238.5 619.8 258.5 619.8 286.7C619.8 314.9 598.2 334.9 568.5 334.9C538.7 334.9 517 314.9 517 286.7ZM592.4 286.7C592.4 270.5 582.1 260.8 568.6 260.8C555 260.8 544.6 270.6 544.6 286.7C544.6 302.8 555 312.6 568.6 312.6C582.1 312.7 592.4 302.9 592.4 286.7Z" fill="white"/>
<path d="M634.7 211.7C634.7 203.2 641.5 196.6 651.6 196.6C661.7 196.6 668.5 202.9 668.5 211.2C668.5 220.2 661.7 226.9 651.6 226.9C641.5 226.8 634.7 220.2 634.7 211.7ZM638 239.9H665.2V333.6H638V239.9Z" fill="white"/>
<path d="M683.4 286.7C683.4 258.5 705.2 238.5 735.6 238.5C755.3 238.5 770.8 247 777.6 262.3L756.5 273.6C751.5 264.7 744 260.7 735.4 260.7C721.6 260.7 710.9 270.3 710.9 286.6C710.9 302.9 721.7 312.5 735.4 312.5C743.9 312.5 751.4 308.7 756.5 299.6L777.6 311.1C770.8 326.1 755.3 334.8 735.6 334.8C705.2 334.9 683.4 314.9 683.4 286.7Z" fill="white"/>
<path d="M883.3 294.4H812.5C815.1 306.1 825 313.2 839.3 313.2C849.2 313.2 856.4 310.2 862.8 304.2L877.3 319.9C868.6 329.8 855.5 335.1 838.6 335.1C806.2 335.1 785.2 314.7 785.2 286.9C785.2 258.9 806.6 238.7 835.2 238.7C862.7 238.7 883.9 257.2 883.9 287.3C883.8 289.2 883.4 292.1 883.3 294.4ZM812.1 278.6H858.2C856.3 266.8 847.4 259.1 835.2 259.1C822.9 259.1 814 266.5 812.1 278.6Z" fill="white"/>
<path d="M494.7 210.9L441.8 333.2H413.8L361 210.9H391.6L428.8 298.2L466.5 210.9H494.7Z" fill="white"/>
<path d="M354.2 54L354.5 333.4L461.6 382.2L500.3 356.1L500.5 107.4L354.2 54ZM441.7 333.2H413.7L360.9 210.9H391.5L428.7 298.2L466.4 210.9H494.5L441.7 333.2Z" fill="#F6C035"/>
</svg>
