<svg width="44" height="44" viewBox="0 0 44 44" fill="none" xmlns="http://www.w3.org/2000/svg">
<rect width="44" height="44" rx="22" fill="#B3B8BE"/>
<path d="M10 30.228V33.114C10 34.7079 11.2437 36 12.7778 36H32.2222C33.7564 36 35 34.7079 35 33.114V30.228C35 26.2432 31.8908 23.0129 28.0556 23.0129H16.9444C13.1091 23.0129 10 26.2432 10 30.228Z" fill="white"/>
<path d="M22.5002 20.7249C26.3218 20.7249 29.4199 17.6525 29.4199 13.8625C29.4199 10.0724 26.3218 7 22.5002 7C18.6786 7 15.5806 10.0724 15.5806 13.8625C15.5806 17.6525 18.6786 20.7249 22.5002 20.7249Z" fill="white"/>
</svg>
