<svg width="84" height="15" viewBox="0 0 84 15" fill="none" xmlns="http://www.w3.org/2000/svg">
<path d="M5.89062 3.98926C6.25391 3.98926 6.55566 4.01562 6.7959 4.06836L6.59375 6.58203C6.37695 6.52344 6.11328 6.49414 5.80273 6.49414C4.94727 6.49414 4.2793 6.71387 3.79883 7.15332C3.32422 7.59277 3.08691 8.20801 3.08691 8.99902V14H0.40625V4.17383H2.43652L2.83203 5.82617H2.96387C3.26855 5.27539 3.67871 4.83301 4.19434 4.49902C4.71582 4.15918 5.28125 3.98926 5.89062 3.98926ZM14.8203 14L14.3018 12.6641H14.2314C13.7803 13.2324 13.3145 13.6279 12.834 13.8506C12.3594 14.0674 11.7383 14.1758 10.9707 14.1758C10.0273 14.1758 9.2832 13.9062 8.73828 13.3672C8.19922 12.8281 7.92969 12.0605 7.92969 11.0645C7.92969 10.0215 8.29297 9.25391 9.01953 8.76172C9.75195 8.26367 10.8535 7.98828 12.3242 7.93555L14.0293 7.88281V7.45215C14.0293 6.45605 13.5195 5.95801 12.5 5.95801C11.7148 5.95801 10.792 6.19531 9.73145 6.66992L8.84375 4.85938C9.97461 4.26758 11.2285 3.97168 12.6055 3.97168C13.9238 3.97168 14.9346 4.25879 15.6377 4.83301C16.3408 5.40723 16.6924 6.28027 16.6924 7.45215V14H14.8203ZM14.0293 9.44727L12.9922 9.48242C12.2129 9.50586 11.6328 9.64648 11.252 9.9043C10.8711 10.1621 10.6807 10.5547 10.6807 11.082C10.6807 11.8379 11.1143 12.2158 11.9814 12.2158C12.6025 12.2158 13.0977 12.0371 13.4668 11.6797C13.8418 11.3223 14.0293 10.8477 14.0293 10.2559V9.44727ZM28.2588 14H25.5781V8.26074C25.5781 7.55176 25.458 7.02148 25.2178 6.66992C24.9834 6.3125 24.6113 6.13379 24.1016 6.13379C23.416 6.13379 22.918 6.38574 22.6074 6.88965C22.2969 7.39355 22.1416 8.22266 22.1416 9.37695V14H19.4609V4.17383H21.5088L21.8691 5.43066H22.0186C22.2822 4.97949 22.6631 4.62793 23.1611 4.37598C23.6592 4.11816 24.2305 3.98926 24.875 3.98926C26.3457 3.98926 27.3418 4.46973 27.8633 5.43066H28.1006C28.3643 4.97363 28.751 4.61914 29.2607 4.36719C29.7764 4.11523 30.3564 3.98926 31.001 3.98926C32.1143 3.98926 32.9551 4.27637 33.5234 4.85059C34.0977 5.41895 34.3848 6.33301 34.3848 7.59277V14H31.6953V8.26074C31.6953 7.55176 31.5752 7.02148 31.335 6.66992C31.1006 6.3125 30.7285 6.13379 30.2188 6.13379C29.5625 6.13379 29.0703 6.36816 28.7422 6.83691C28.4199 7.30566 28.2588 8.0498 28.2588 9.06934V14ZM42.6113 3.98926C43.7715 3.98926 44.6797 4.44336 45.3359 5.35156C45.9922 6.25391 46.3203 7.49316 46.3203 9.06934C46.3203 10.6924 45.9805 11.9492 45.3008 12.8398C44.627 13.7305 43.707 14.1758 42.541 14.1758C41.3867 14.1758 40.4814 13.7568 39.8252 12.9189H39.6406L39.1924 14H37.1445V0.324219H39.8252V3.50586C39.8252 3.91016 39.79 4.55762 39.7197 5.44824H39.8252C40.4521 4.47559 41.3809 3.98926 42.6113 3.98926ZM41.75 6.13379C41.0879 6.13379 40.6045 6.33887 40.2998 6.74902C39.9951 7.15332 39.8369 7.82422 39.8252 8.76172V9.05176C39.8252 10.1064 39.9805 10.8623 40.291 11.3193C40.6074 11.7764 41.1055 12.0049 41.7852 12.0049C42.3359 12.0049 42.7725 11.7529 43.0947 11.249C43.4229 10.7393 43.5869 10.001 43.5869 9.03418C43.5869 8.06738 43.4229 7.34375 43.0947 6.86328C42.7666 6.37695 42.3184 6.13379 41.75 6.13379ZM51.2158 14H48.5352V0.324219H51.2158V14ZM58.1064 5.89648C57.5381 5.89648 57.0928 6.07812 56.7705 6.44141C56.4482 6.79883 56.2637 7.30859 56.2168 7.9707H59.9785C59.9668 7.30859 59.7939 6.79883 59.46 6.44141C59.126 6.07812 58.6748 5.89648 58.1064 5.89648ZM58.4844 14.1758C56.9023 14.1758 55.666 13.7393 54.7754 12.8662C53.8848 11.9932 53.4395 10.7568 53.4395 9.15723C53.4395 7.51074 53.8496 6.23926 54.6699 5.34277C55.4961 4.44043 56.6357 3.98926 58.0889 3.98926C59.4775 3.98926 60.5586 4.38477 61.332 5.17578C62.1055 5.9668 62.4922 7.05957 62.4922 8.4541V9.75488H56.1553C56.1846 10.5166 56.4102 11.1113 56.832 11.5391C57.2539 11.9668 57.8457 12.1807 58.6074 12.1807C59.1992 12.1807 59.7588 12.1191 60.2861 11.9961C60.8135 11.873 61.3643 11.6768 61.9385 11.4072V13.4814C61.4697 13.7158 60.9688 13.8887 60.4355 14C59.9023 14.1172 59.252 14.1758 58.4844 14.1758ZM70.1562 3.98926C70.5195 3.98926 70.8213 4.01562 71.0615 4.06836L70.8594 6.58203C70.6426 6.52344 70.3789 6.49414 70.0684 6.49414C69.2129 6.49414 68.5449 6.71387 68.0645 7.15332C67.5898 7.59277 67.3525 8.20801 67.3525 8.99902V14H64.6719V4.17383H66.7021L67.0977 5.82617H67.2295C67.5342 5.27539 67.9443 4.83301 68.46 4.49902C68.9814 4.15918 69.5469 3.98926 70.1562 3.98926ZM83.4629 1.15039L78.6729 14H76.2383L81.0283 1.15039H83.4629Z" fill="white"/>
</svg>
