<svg aria-hidden="true" style="position: absolute; width: 0; height: 0; overflow: hidden;" version="1.1" xmlns="http://www.w3.org/2000/svg" xmlns:xlink="http://www.w3.org/1999/xlink">
<defs>
<symbol id="icon-arrow-down" viewBox="0 0 26 32">
<path d="M14.384 3.2c0-0.884-0.716-1.6-1.6-1.6s-1.6 0.716-1.6 1.6h3.2zM11.652 29.931c0.625 0.625 1.638 0.625 2.263 0l10.182-10.182c0.625-0.625 0.625-1.638 0-2.263s-1.638-0.625-2.263 0l-9.051 9.051-9.051-9.051c-0.625-0.625-1.638-0.625-2.263 0s-0.625 1.638 0 2.263l10.182 10.182zM11.184 3.2v25.6h3.2v-25.6h-3.2z"></path>
</symbol>
<symbol id="icon-arrow-right" viewBox="0 0 64 32">
<path d="M3.979 14c-1.105 0-2 0.895-2 2s0.895 2 2 2v-4zM61.394 17.414c0.781-0.781 0.781-2.047 0-2.828l-12.728-12.728c-0.781-0.781-2.047-0.781-2.828 0s-0.781 2.047 0 2.828l11.314 11.314-11.314 11.314c-0.781 0.781-0.781 2.047 0 2.828s2.048 0.781 2.828 0l12.728-12.728zM3.979 18h56v-4h-56v4z"></path>
</symbol>
<symbol id="icon-arrow-right-bold" viewBox="0 0 38 32">
<path d="M4.254 13.867c-1.178 0-2.133 0.955-2.133 2.133s0.955 2.133 2.133 2.133v-4.267zM37.763 17.509c0.833-0.833 0.833-2.184 0-3.017l-13.576-13.576c-0.833-0.833-2.184-0.833-3.017 0s-0.833 2.184 0 3.017l12.068 12.068-12.068 12.068c-0.833 0.833-0.833 2.184 0 3.017s2.184 0.833 3.017 0l13.576-13.577zM4.254 18.134h32v-4.267h-32v4.267z"></path>
</symbol>
<symbol id="icon-bell" viewBox="0 0 33 32">
<path d="M28.358 25.466c-0.094-0.061-0.802-0.557-1.511-2.057-1.302-2.755-1.575-6.636-1.575-9.407 0-0.012-0-0.024-0.001-0.036-0.014-3.662-2.207-6.818-5.345-8.235v-2.166c0-1.966-1.596-3.565-3.559-3.565h-0.295c-1.962 0-3.559 1.599-3.559 3.565v2.166c-3.148 1.421-5.345 4.594-5.345 8.271 0 2.771-0.273 6.652-1.575 9.407-0.709 1.5-1.417 1.996-1.511 2.057-0.396 0.183-0.592 0.607-0.501 1.037 0.092 0.434 0.497 0.733 0.94 0.733h6.872c0.038 2.634 2.188 4.765 4.826 4.765s4.788-2.131 4.826-4.765h6.872c0.443 0 0.848-0.299 0.94-0.733 0.091-0.429-0.104-0.853-0.501-1.037zM14.389 3.565c0-0.93 0.755-1.687 1.684-1.687h0.295c0.928 0 1.684 0.757 1.684 1.687v1.557c-0.592-0.122-1.204-0.187-1.832-0.187s-1.239 0.064-1.831 0.186v-1.557zM16.22 30.122c-1.605 0-2.913-1.289-2.951-2.887h5.903c-0.038 1.598-1.347 2.887-2.951 2.887zM19.995 25.357c-0 0-13.337 0-13.337 0 0.162-0.253 0.327-0.539 0.491-0.862 1.256-2.478 1.894-6.008 1.894-10.493 0-3.964 3.219-7.188 7.176-7.188s7.176 3.225 7.176 7.191c0 0.012 0 0.023 0.001 0.035 0.004 4.467 0.641 7.985 1.894 10.455 0.164 0.323 0.329 0.61 0.491 0.862h-5.787z"></path>
</symbol>
<symbol id="icon-blank" viewBox="0 0 33 32">
<path d="M10.091 17.333v1.333h1.334l-0.001-1.333h-1.333z"></path>
<path d="M26.091 3.333h-2v0.667c-0.001 0.707-0.282 1.385-0.782 1.885s-1.178 0.781-1.885 0.782h-9.333c-0.707-0.001-1.385-0.282-1.885-0.782s-0.781-1.178-0.782-1.885v-0.667h-2c-0.707 0.001-1.385 0.282-1.885 0.782s-0.781 1.178-0.782 1.885v22c0.001 0.707 0.282 1.385 0.782 1.885s1.178 0.781 1.885 0.782l18.667 0c0.707-0.001 1.385-0.282 1.885-0.782s0.781-1.178 0.782-1.885v-22c-0.001-0.707-0.282-1.385-0.782-1.885s-1.178-0.781-1.885-0.782zM12.757 24.667c-0 0.353-0.141 0.692-0.391 0.942s-0.589 0.391-0.942 0.391h-1.333c-0.354-0-0.692-0.141-0.942-0.391s-0.391-0.589-0.391-0.942v-1.333c0-0.354 0.141-0.692 0.391-0.942s0.589-0.391 0.942-0.391h1.333c0.354 0 0.692 0.141 0.942 0.391s0.391 0.589 0.391 0.942v1.333zM12.757 18.667c-0 0.353-0.141 0.692-0.391 0.942s-0.589 0.391-0.942 0.391h-1.333c-0.354-0-0.692-0.141-0.942-0.391s-0.391-0.589-0.391-0.942v-1.333c0-0.354 0.141-0.692 0.391-0.942s0.589-0.391 0.942-0.391h1.333c0.354 0 0.692 0.141 0.942 0.391s0.391 0.589 0.391 0.942v1.333zM12.757 12.667c-0 0.353-0.141 0.692-0.391 0.942s-0.589 0.391-0.942 0.391h-1.333c-0.354-0-0.692-0.141-0.942-0.391s-0.391-0.589-0.391-0.942v-1.333c0-0.354 0.141-0.692 0.391-0.942s0.589-0.391 0.942-0.391h1.333c0.354 0 0.692 0.141 0.942 0.391s0.391 0.589 0.391 0.942v1.333zM24.091 24.667h-9.333c-0.088 0.001-0.175-0.016-0.257-0.049s-0.156-0.082-0.219-0.144c-0.063-0.062-0.112-0.136-0.146-0.217s-0.051-0.169-0.051-0.257c0-0.088 0.018-0.175 0.051-0.257s0.084-0.155 0.146-0.217c0.063-0.062 0.137-0.111 0.219-0.144s0.169-0.050 0.257-0.049h9.333c0.176 0.002 0.344 0.073 0.467 0.198s0.193 0.294 0.193 0.469-0.069 0.344-0.193 0.469c-0.124 0.125-0.292 0.196-0.467 0.198zM24.091 18.667h-9.333c-0.088 0.001-0.175-0.016-0.257-0.049s-0.156-0.082-0.219-0.144c-0.063-0.062-0.112-0.136-0.146-0.217s-0.051-0.169-0.051-0.257c0-0.088 0.018-0.175 0.051-0.257s0.084-0.155 0.146-0.217c0.063-0.062 0.137-0.111 0.219-0.144s0.169-0.050 0.257-0.049h9.333c0.088-0.001 0.175 0.016 0.257 0.049s0.156 0.082 0.218 0.144c0.063 0.062 0.112 0.136 0.146 0.217s0.051 0.168 0.051 0.257c0 0.088-0.017 0.175-0.051 0.257s-0.084 0.155-0.146 0.217c-0.063 0.062-0.137 0.111-0.218 0.144s-0.169 0.050-0.257 0.049zM24.091 12.667h-9.333c-0.088 0.001-0.175-0.016-0.257-0.049s-0.156-0.082-0.219-0.144c-0.063-0.062-0.112-0.136-0.146-0.217s-0.051-0.169-0.051-0.257c0-0.088 0.018-0.175 0.051-0.257s0.084-0.155 0.146-0.217c0.063-0.062 0.137-0.111 0.219-0.144s0.169-0.050 0.257-0.049h9.333c0.088-0.001 0.175 0.016 0.257 0.049s0.156 0.082 0.218 0.144c0.063 0.062 0.112 0.136 0.146 0.217s0.051 0.168 0.051 0.257c0 0.088-0.017 0.175-0.051 0.257s-0.084 0.155-0.146 0.217c-0.063 0.062-0.137 0.111-0.218 0.144s-0.169 0.050-0.257 0.049z"></path>
<path d="M10.091 11.333v1.333h1.334l-0.001-1.333h-1.333z"></path>
<path d="M10.091 23.333v1.333h1.334l-0.001-1.333h-1.333z"></path>
<path d="M21.424 1.333h-9.333c-0.736 0-1.333 0.597-1.333 1.333v1.333c0 0.736 0.597 1.333 1.333 1.333h9.333c0.736 0 1.333-0.597 1.333-1.333v-1.333c0-0.736-0.597-1.333-1.333-1.333z"></path>
</symbol>
<symbol id="icon-book" viewBox="0 0 40 32">
<path d="M6.983 0.9c-0.001 0-0.002 0-0.003 0-0.374 0-0.726 0.146-0.991 0.411-0.268 0.268-0.416 0.624-0.416 1.004v21.211c0 0.778 0.635 1.412 1.416 1.414 3.292 0.008 8.809 0.694 12.614 4.677v-22.198c0-0.264-0.067-0.511-0.194-0.716-3.123-5.030-9.125-5.794-12.425-5.802z"></path>
<path d="M35.83 23.526v-21.211c0-0.38-0.148-0.736-0.416-1.004-0.266-0.265-0.617-0.411-0.991-0.411-0.001 0-0.002 0-0.003 0-3.3 0.008-9.302 0.772-12.425 5.802-0.127 0.205-0.194 0.453-0.194 0.716v22.198c3.805-3.982 9.322-4.669 12.614-4.677 0.781-0.002 1.416-0.636 1.416-1.414z"></path>
<path d="M39.051 5.792h-1.026v17.734c0 1.986-1.618 3.605-3.607 3.61-2.793 0.007-7.398 0.553-10.659 3.639 5.64-1.381 11.586-0.483 14.975 0.289 0.423 0.096 0.86-0.003 1.199-0.273 0.338-0.27 0.532-0.672 0.532-1.105v-22.48c0-0.78-0.634-1.414-1.414-1.414z"></path>
<path d="M3.376 23.526v-17.734h-1.026c-0.78 0-1.414 0.634-1.414 1.414v22.48c0 0.433 0.194 0.835 0.532 1.105s0.776 0.37 1.199 0.273c3.389-0.772 9.335-1.67 14.975-0.289-3.261-3.087-7.866-3.632-10.659-3.639-1.989-0.005-3.607-1.624-3.607-3.61z"></path>
</symbol>
<symbol id="icon-book2" viewBox="0 0 27 32">
<path d="M26.813 29.61v-28.523c0-0.868-0.866-1.086-1.088-1.086s-21.854 0-21.854 0c-3.263 0-3.265 3.019-3.265 3.019v27.823c0 0.638 0.519 1.158 1.162 1.158h20.867c0.638 0 1.156-0.52 1.156-1.158l1.86-0.005c1.248 0.001 1.161-1.228 1.161-1.228zM18.272 9.639h-11.967v-2.261h11.967v2.261zM24.362 28.494c-0.445 0-0.571 0.002-0.571 0.002v-24.266c0-0.643-0.519-1.161-1.156-1.161l-19.745-0.006c0-0.796 0.816-1.201 1.196-1.201 0.259 0 19.705 0 19.705 0 1.234 0 1.198 1.086 1.198 1.086l0.001 24.843c-0 0.162 0.059 0.702-0.627 0.702z"></path>
</symbol>
<symbol id="icon-bookmark" viewBox="0 0 24 32">
<path d="M0 0h24.471v31.686l-11.865-5.647-12.606 5.647v-31.686z"></path>
</symbol>
<symbol id="icon-bookmark2" viewBox="0 0 24 32">
<path d="M0 0h23.784v32l-11.892-9.143-11.892 9.143v-32z"></path>
</symbol>
<symbol id="icon-calendar" viewBox="0 0 32 32">
<path d="M26.362 5.63h-1.482v-2.963c0-0.393-0.156-0.77-0.434-1.048s-0.655-0.434-1.048-0.434-0.77 0.156-1.048 0.434c-0.278 0.278-0.434 0.655-0.434 1.048v2.963h-11.852v-2.963c0-0.393-0.156-0.77-0.434-1.048s-0.655-0.434-1.048-0.434c-0.393 0-0.77 0.156-1.048 0.434s-0.434 0.655-0.434 1.048v2.963h-1.482c-1.179 0-2.309 0.468-3.143 1.302s-1.302 1.964-1.302 3.143v1.481h29.63v-1.481c0-1.179-0.468-2.309-1.302-3.143s-1.964-1.302-3.143-1.302z"></path>
<path d="M1.177 26.37c0 1.179 0.468 2.309 1.302 3.143s1.964 1.302 3.143 1.302h20.741c1.179 0 2.309-0.468 3.143-1.302s1.302-1.964 1.302-3.143v-11.852h-29.63v11.852z"></path>
</symbol>
<symbol id="icon-case" viewBox="0 0 33 32">
<path d="M28.655 18.256h-8.615v4.103h-6.564v-4.103h-8.615c-1.577 0-3.012-0.601-4.103-1.58v9.375c0 2.257 1.846 4.103 4.103 4.103h23.795c2.257 0 4.103-1.846 4.103-4.103v-9.376c-1.090 0.98-2.526 1.581-4.103 1.581z"></path>
<path d="M22.502 7.179v-1.231c0-2.257-1.846-4.103-4.103-4.103h-3.282c-2.257 0-4.103 1.846-4.103 4.103v1.231h-10.256v4.923c0 2.257 1.846 4.103 4.103 4.103h23.795c2.257 0 4.103-1.846 4.103-4.103v-4.923h-10.256zM19.63 7.179h-5.743v-1.231c0-0.667 0.564-1.231 1.231-1.231h3.282c0.667 0 1.231 0.564 1.231 1.231v1.231z"></path>
</symbol>
<symbol id="icon-chart" viewBox="0 0 32 32">
<path d="M8 17.333h-5.333c-0.8 0-1.333 0.533-1.333 1.333v10.667c0 0.8 0.533 1.333 1.333 1.333h5.333c0.8 0 1.333-0.533 1.333-1.333v-10.667c0-0.8-0.533-1.333-1.333-1.333zM29.333 12h-5.333c-0.8 0-1.333 0.533-1.333 1.333v16c0 0.8 0.533 1.333 1.333 1.333h5.333c0.8 0 1.333-0.533 1.333-1.333v-16c0-0.8-0.533-1.333-1.333-1.333zM18.667 1.333h-5.333c-0.8 0-1.333 0.533-1.333 1.333v26.667c0 0.8 0.533 1.333 1.333 1.333h5.333c0.8 0 1.333-0.533 1.333-1.333v-26.667c0-0.8-0.533-1.333-1.333-1.333z"></path>
</symbol>
<symbol id="icon-chat" viewBox="0 0 33 32">
<path d="M24.994 1.333h-16c-1.767 0.002-3.462 0.705-4.712 1.955s-1.953 2.944-1.955 4.712v10.667c0.002 1.536 0.533 3.025 1.505 4.215s2.324 2.009 3.828 2.318v4.133c-0 0.241 0.065 0.478 0.189 0.685s0.302 0.377 0.515 0.491c0.213 0.114 0.453 0.168 0.694 0.156s0.475-0.089 0.675-0.223l7.66-5.109h7.6c1.767-0.002 3.462-0.705 4.712-1.955s1.953-2.944 1.955-4.712v-10.667c-0.002-1.767-0.705-3.462-1.955-4.712s-2.944-1.953-4.712-1.955zM22.328 17.333h-10.667c-0.354 0-0.693-0.14-0.943-0.39s-0.39-0.589-0.39-0.943 0.14-0.693 0.39-0.943c0.25-0.25 0.589-0.39 0.943-0.39h10.667c0.354 0 0.693 0.14 0.943 0.39s0.39 0.589 0.39 0.943-0.14 0.693-0.39 0.943c-0.25 0.25-0.589 0.39-0.943 0.39zM24.994 12h-16c-0.354 0-0.693-0.14-0.943-0.39s-0.391-0.589-0.391-0.943c0-0.354 0.14-0.693 0.391-0.943s0.589-0.391 0.943-0.391h16c0.354 0 0.693 0.14 0.943 0.391s0.391 0.589 0.391 0.943c0 0.354-0.14 0.693-0.391 0.943s-0.589 0.39-0.943 0.39z"></path>
</symbol>
<symbol id="icon-check" viewBox="0 0 32 32">
<path d="M30.81 3.614c-1.339-1.088-3.266-0.931-4.304 0.348l-13.69 16.878-7.145-9.285c-1.066-1.384-3.052-1.643-4.436-0.578-1.385 1.065-1.644 3.052-0.578 4.438l9.591 12.463c1.066 1.384 3.053 1.644 4.437 0.578 0.395-0.304 0.687-0.687 0.894-1.106l15.778-19.451c1.038-1.28 0.793-3.198-0.547-4.284z"></path>
</symbol>
<symbol id="icon-checked" viewBox="0 0 32 32">
<path d="M16 0c-8.822 0-16 7.178-16 16s7.178 16 16 16c8.822 0 16-7.178 16-16s-7.178-16-16-16zM24.942 11.789l-10.226 10.145c-0.601 0.602-1.564 0.642-2.206 0.040l-5.413-4.932c-0.642-0.602-0.682-1.604-0.12-2.246 0.601-0.642 1.604-0.682 2.246-0.080l4.291 3.93 9.143-9.143c0.642-0.642 1.644-0.642 2.286 0s0.642 1.644 0 2.286z"></path>
</symbol>
<symbol id="icon-clip" viewBox="0 0 32 32">
<path d="M20.009 6.715c-0.305 0-0.58 0.114-0.796 0.296l-0.011-0.011-9.719 9.685c-1.101 1.101-1.553 2.175-1.559 3.709 0 1.199 0.443 2.279 1.248 3.038 0.831 0.784 1.985 1.199 3.338 1.199h0.028c1.408-0.006 2.726-0.56 3.709-1.559l11.277-11.274c2.856-2.856 2.931-6.927 0.178-9.681-1.366-1.365-3.183-2.117-5.119-2.117s-3.753 0.752-5.117 2.117l-14.124 14.122c-3.601 3.601-3.601 9.46 0 13.061 1.742 1.741 4.061 2.7 6.53 2.7s4.788-0.959 6.531-2.7l14.622-14.674c0 0 0.322-0.317 0.322-0.851 0-0.685-0.555-1.24-1.24-1.24-0.325 0-0.619 0.128-0.84 0.333l-0.004-0.004-14.622 14.674c-1.272 1.271-2.966 1.971-4.769 1.971s-3.497-0.7-4.768-1.971c-2.63-2.631-2.63-6.91 0-9.538l14.124-14.122c0.895-0.895 2.087-1.388 3.356-1.388s2.462 0.493 3.358 1.388c0.893 0.893 1.342 1.954 1.299 3.069-0.043 1.097-0.554 2.165-1.477 3.088l-11.301 11.298c-0.517 0.517-1.203 0.803-1.933 0.805-1.388 0-2.114-0.874-2.114-1.737 0.003-0.729 0.289-1.415 0.805-1.933l9.742-9.709-0.011-0.011c0.182-0.216 0.296-0.491 0.296-0.796 0-0.685-0.555-1.24-1.24-1.24z"></path>
</symbol>
<symbol id="icon-close" viewBox="0 0 32 32">
<path d="M19.756 15.995l11.456-11.429c0.502-0.502 0.783-1.182 0.783-1.891s-0.282-1.39-0.783-1.891c-0.502-0.502-1.182-0.783-1.892-0.783s-1.39 0.282-1.891 0.783l-11.429 11.456-11.429-11.456c-0.502-0.502-1.182-0.783-1.891-0.783s-1.39 0.282-1.891 0.783c-0.502 0.502-0.783 1.182-0.783 1.891s0.282 1.39 0.783 1.891l11.456 11.429-11.456 11.429c-0.25 0.248-0.448 0.542-0.583 0.867s-0.205 0.673-0.205 1.025c0 0.352 0.070 0.7 0.205 1.025s0.333 0.619 0.583 0.867c0.248 0.25 0.542 0.448 0.867 0.583s0.673 0.205 1.025 0.205c0.352 0 0.7-0.070 1.025-0.205s0.619-0.333 0.867-0.583l11.429-11.456 11.429 11.456c0.248 0.25 0.542 0.448 0.867 0.583s0.673 0.205 1.025 0.205c0.352 0 0.7-0.070 1.025-0.205s0.619-0.333 0.867-0.583c0.25-0.248 0.448-0.542 0.583-0.867s0.205-0.673 0.205-1.025c0-0.352-0.070-0.7-0.205-1.025s-0.333-0.619-0.583-0.867l-11.456-11.429z"></path>
</symbol>
<symbol id="icon-exit" viewBox="0 0 27 32">
<path d="M0.287 16c0 0.424 0.169 0.831 0.469 1.131s0.707 0.469 1.131 0.469h12.144l-3.68 3.664c-0.15 0.149-0.269 0.326-0.35 0.521s-0.123 0.404-0.123 0.615 0.042 0.42 0.123 0.615c0.081 0.195 0.2 0.372 0.35 0.521 0.149 0.15 0.326 0.269 0.521 0.35s0.404 0.123 0.615 0.123c0.211 0 0.42-0.042 0.615-0.123s0.372-0.2 0.521-0.35l6.4-6.4c0.146-0.152 0.26-0.332 0.336-0.528 0.16-0.39 0.16-0.826 0-1.216-0.076-0.196-0.19-0.376-0.336-0.528l-6.4-6.4c-0.149-0.149-0.326-0.268-0.521-0.348s-0.404-0.122-0.615-0.122c-0.211 0-0.42 0.042-0.615 0.122s-0.372 0.199-0.521 0.348c-0.149 0.149-0.268 0.326-0.348 0.521s-0.122 0.404-0.122 0.615c0 0.211 0.042 0.42 0.122 0.615s0.199 0.372 0.348 0.521l3.68 3.664h-12.144c-0.424 0-0.831 0.169-1.131 0.469s-0.469 0.707-0.469 1.131zM21.088 0h-16c-1.273 0-2.494 0.506-3.394 1.406s-1.406 2.121-1.406 3.394v4.8c0 0.424 0.169 0.831 0.469 1.131s0.707 0.469 1.131 0.469c0.424 0 0.831-0.169 1.131-0.469s0.469-0.707 0.469-1.131v-4.8c0-0.424 0.169-0.831 0.469-1.131s0.707-0.469 1.131-0.469h16c0.424 0 0.831 0.169 1.131 0.469s0.469 0.707 0.469 1.131v22.4c0 0.424-0.169 0.831-0.469 1.131s-0.707 0.469-1.131 0.469h-16c-0.424 0-0.831-0.169-1.131-0.469s-0.469-0.707-0.469-1.131v-4.8c0-0.424-0.169-0.831-0.469-1.131s-0.707-0.469-1.131-0.469c-0.424 0-0.831 0.169-1.131 0.469s-0.469 0.707-0.469 1.131v4.8c0 1.273 0.506 2.494 1.406 3.394s2.121 1.406 3.394 1.406h16c1.273 0 2.494-0.506 3.394-1.406s1.406-2.121 1.406-3.394v-22.4c0-1.273-0.506-2.494-1.406-3.394s-2.121-1.406-3.394-1.406z"></path>
</symbol>
<symbol id="icon-eye" viewBox="0 0 49 32">
<path d="M0.753 18.447c3.388 4.141 12.424 13.553 23.718 13.553s20.329-9.788 23.718-13.929c1.129-1.129 1.129-3.012 0-4.518-3.388-3.765-12.424-13.553-23.718-13.553s-20.329 9.788-23.718 13.929c-1.129 1.129-1.129 3.012 0 4.518zM3.388 16.188c2.259-3.012 10.918-12.424 21.082-12.424 9.788 0 18.447 9.412 21.082 12.424-2.635 2.635-11.294 12.424-21.082 12.424s-18.447-9.788-21.082-12.424zM16.565 16.188c0 4.518 3.765 7.906 7.906 7.906 4.518 0 7.906-3.765 7.906-7.906 0-4.518-3.765-7.906-7.906-7.906-4.518-0.376-7.906 3.388-7.906 7.906zM19.953 16.188c0-2.635 1.882-4.518 4.518-4.518s4.518 1.882 4.518 4.518-1.882 4.141-4.518 4.141-4.518-1.882-4.518-4.141z"></path>
</symbol>
<symbol id="icon-eye-fill" viewBox="0 0 44 32">
<path d="M22.221 1.441c-9.966 0-18.477 6.199-21.926 14.95 3.448 8.75 11.96 14.95 21.926 14.95s18.478-6.199 21.926-14.95c-3.448-8.75-11.96-14.95-21.926-14.95zM22.221 26.357c-5.501 0-9.966-4.465-9.966-9.966s4.465-9.966 9.966-9.966c5.502 0 9.966 4.465 9.966 9.966s-4.465 9.966-9.966 9.966zM22.221 10.411c-3.309 0-5.98 2.671-5.98 5.98s2.671 5.98 5.98 5.98c3.309 0 5.98-2.671 5.98-5.98s-2.671-5.98-5.98-5.98z"></path>
</symbol>
<symbol id="icon-fb-square" viewBox="0 0 32 32">
<path d="M32 5.389c0-2.863-2.526-5.389-5.389-5.389h-21.221c-2.863 0-5.389 2.526-5.389 5.389v21.389c0 2.695 2.526 5.221 5.389 5.221h10.779v-12.126h-4.042v-5.221h4.042v-2.189c0-3.705 2.695-6.737 5.895-6.737h4.379v5.389h-4.379c-0.505 0-1.011 0.505-1.011 1.516v2.189h5.389v5.389h-5.389v11.789h5.558c2.863 0 5.389-2.526 5.389-5.389v-21.221z"></path>
</symbol>
<symbol id="icon-fire" viewBox="0 0 32 32">
<path d="M15.993 0.783c-3.010 0-5.952 0.892-8.454 2.565s-4.453 4.049-5.605 6.829c-1.152 2.781-1.453 5.84-0.866 8.792s2.036 5.663 4.165 7.792c2.128 2.128 4.84 3.577 7.792 4.165s6.012 0.286 8.792-0.866c2.781-1.152 5.157-3.102 6.829-5.605s2.565-5.445 2.565-8.454c-0.001-4.036-1.604-7.906-4.458-10.759s-6.724-4.457-10.759-4.458zM23.205 21.25c-0.57 1.106-1.387 2.065-2.388 2.803s-2.159 1.235-3.384 1.453c-0.064 0.009-0.13-0.001-0.189-0.029s-0.108-0.072-0.142-0.127c-0.034-0.055-0.051-0.119-0.049-0.184s0.022-0.128 0.059-0.181c0.335-0.549 0.579-1.15 0.723-1.777 0.114-0.503 0.104-1.025-0.028-1.523s-0.384-0.956-0.732-1.336c-0.788-0.864-1.663-2.103-1.723-3.413-1.033 0.75-3.054 2.565-2.332 4.859 0 0.011 0.005 0.022 0.005 0.038 0.338 1.157 0.932 2.224 1.739 3.12 0.041 0.050 0.067 0.11 0.075 0.174s-0.002 0.129-0.029 0.188-0.071 0.108-0.125 0.143c-0.054 0.035-0.117 0.054-0.182 0.055-0.026-0.001-0.051-0.004-0.076-0.011-0.234-0.054-5.685-1.386-6.163-5.837-0.065-0.761 0.024-1.527 0.262-2.253s0.62-1.396 1.123-1.97c0.884-1.023 1.855-1.966 2.902-2.821 0.813-0.676 1.413-1.573 1.729-2.583s0.332-2.089 0.048-3.107c-0.018-0.060-0.018-0.124-0.002-0.184s0.049-0.115 0.094-0.158c0.044-0.044 0.099-0.075 0.159-0.090s0.124-0.012 0.183 0.008c0.060 0.022 5.299 1.886 4.799 7.207 0.279-0.227 0.469-0.544 0.538-0.897 0.013-0.060 0.041-0.116 0.082-0.161s0.093-0.080 0.151-0.1c0.059-0.019 0.123-0.021 0.184-0.006s0.115 0.048 0.159 0.093c0.19 0.196 4.587 4.766 2.527 8.609z"></path>
</symbol>
<symbol id="icon-globe" viewBox="0 0 32 32">
<path d="M4.8 25.873c-2.417-2.719-3.747-6.234-3.733-9.873 0.002-8.248 6.691-14.934 14.94-14.932 2.722 0.001 5.391 0.745 7.721 2.152l0.553-0.912c-7.564-4.571-17.401-2.146-21.973 5.417-1.509 2.496-2.307 5.358-2.307 8.274-0.014 3.939 1.44 7.742 4.079 10.666h-1.946v1.067h3.2c0.295 0 0.533-0.239 0.533-0.533v-3.2h-1.067v1.873z"></path>
<path d="M27.92 5.335h1.946v-1.067h-3.2c-0.295 0-0.533 0.239-0.533 0.533v3.2h1.067v-1.873c2.417 2.719 3.747 6.234 3.733 9.873-0.003 8.249-6.693 14.933-14.942 14.931-2.723-0.001-5.394-0.746-7.724-2.155l-0.553 0.912c7.563 4.574 17.402 2.152 21.976-5.41 1.51-2.497 2.309-5.359 2.31-8.277 0.014-3.939-1.44-7.742-4.079-10.666z"></path>
<path d="M16 28.266c0.080 0 0.16 0 0.194-0.005 0.010 0 0.019 0 0.028 0h0.012c6.772-0.125 12.16-5.716 12.035-12.487-0.060-3.236-1.397-6.318-3.72-8.572-2.225-2.177-5.202-3.416-8.315-3.46-0.142-0.011-0.285-0.011-0.427 0-6.774 0.108-12.178 5.686-12.070 12.459 0.052 3.245 1.387 6.337 3.715 8.6 2.225 2.178 5.202 3.417 8.315 3.461 0.074 0.005 0.154 0.005 0.234 0.005zM17.452 27.093c1.246-1.124 2.295-2.449 3.102-3.921 0.959 0.336 1.878 0.776 2.74 1.313-1.649 1.425-3.681 2.332-5.843 2.608zM24.088 23.727c-0.955-0.62-1.978-1.128-3.050-1.514 0.825-1.784 1.283-3.715 1.346-5.68h4.789c-0.12 2.693-1.216 5.25-3.085 7.193zM27.174 15.467h-4.789c-0.062-1.964-0.52-3.896-1.346-5.679 1.071-0.387 2.095-0.895 3.050-1.515 1.868 1.944 2.965 4.501 3.085 7.194zM23.294 7.517c-0.862 0.537-1.781 0.977-2.74 1.312-0.809-1.473-1.86-2.8-3.109-3.925 2.164 0.276 4.199 1.185 5.848 2.613zM16.533 5.519c1.191 1.032 2.198 2.258 2.979 3.626-0.975 0.251-1.974 0.396-2.979 0.434v-4.060zM16.533 10.648c1.177-0.041 2.345-0.22 3.481-0.533 0.796 1.676 1.24 3.498 1.304 5.353h-4.785v-4.819zM16.533 16.534h4.785c-0.064 1.855-0.508 3.677-1.305 5.354-1.135-0.313-2.303-0.492-3.48-0.533v-4.82zM16.533 22.423c1.006 0.037 2.005 0.183 2.979 0.434-0.781 1.368-1.789 2.593-2.979 3.624v-4.058zM14.548 4.908c-1.246 1.124-2.295 2.449-3.102 3.921-0.959-0.335-1.878-0.776-2.74-1.313 1.649-1.425 3.681-2.332 5.843-2.608zM7.911 8.273c0.955 0.62 1.979 1.128 3.050 1.514-0.825 1.784-1.283 3.715-1.346 5.68h-4.789c0.12-2.693 1.216-5.25 3.085-7.194zM4.826 16.534h4.789c0.062 1.964 0.52 3.896 1.346 5.679-1.071 0.387-2.095 0.895-3.050 1.515-1.868-1.944-2.965-4.501-3.085-7.194zM8.706 24.485c0.862-0.537 1.781-0.977 2.74-1.312 0.809 1.473 1.86 2.8 3.109 3.925-2.164-0.276-4.199-1.185-5.848-2.613zM15.467 26.483c-1.191-1.032-2.198-2.258-2.979-3.626 0.975-0.251 1.973-0.396 2.979-0.434v4.060zM15.467 21.356c-1.177 0.041-2.345 0.22-3.48 0.533-0.797-1.677-1.241-3.5-1.305-5.356h4.784v4.822zM15.467 15.467h-4.784c0.064-1.855 0.508-3.677 1.304-5.354 1.135 0.313 2.303 0.492 3.48 0.533v4.82zM15.467 9.578c-1.006-0.037-2.005-0.183-2.979-0.434 0.782-1.367 1.789-2.593 2.979-3.624v4.058z"></path>
</symbol>
<symbol id="icon-heart" viewBox="0 0 39 32">
<path d="M8.625 5.177c-1.26 1.253-2.126 3.202-2.126 6.023 0 1.050 0.662 2.687 2.055 4.76 1.34 1.992 3.168 4.118 5.078 6.082 1.904 1.959 3.852 3.719 5.402 4.981 0.778 0.633 1.437 1.125 1.929 1.452 0.137 0.091 0.254 0.164 0.351 0.221 0.097-0.057 0.214-0.13 0.351-0.221 0.492-0.326 1.151-0.819 1.929-1.452 1.551-1.262 3.498-3.022 5.402-4.981 1.909-1.964 3.738-4.089 5.078-6.082 1.394-2.072 2.055-3.71 2.055-4.76 0-2.822-0.866-4.77-2.126-6.023-1.28-1.273-3.117-1.977-5.282-1.977-2.316 0-4.76 1.79-6.174 4.086-0.275 0.446-0.738 0.714-1.234 0.714s-0.959-0.268-1.234-0.714c-1.414-2.296-3.858-4.086-6.174-4.086-2.165 0-4.001 0.704-5.282 1.977zM6.618 2.823c1.937-1.927 4.545-2.823 7.289-2.823 2.887 0 5.55 1.687 7.407 3.834 1.857-2.147 4.52-3.834 7.407-3.834 2.744 0 5.352 0.896 7.289 2.823 1.957 1.947 3.081 4.799 3.081 8.377 0 2.15-1.19 4.513-2.621 6.64-1.484 2.208-3.452 4.482-5.431 6.518-1.985 2.041-4.019 3.881-5.662 5.219-0.82 0.667-1.561 1.225-2.162 1.623-0.299 0.198-0.587 0.373-0.849 0.505-0.19 0.096-0.6 0.294-1.052 0.294s-0.861-0.199-1.052-0.294c-0.262-0.131-0.551-0.307-0.849-0.505-0.601-0.399-1.343-0.956-2.162-1.623-1.644-1.338-3.678-3.178-5.662-5.219-1.98-2.036-3.947-4.311-5.432-6.518-1.43-2.127-2.621-4.49-2.621-6.64 0-3.578 1.124-6.43 3.081-8.377z"></path>
</symbol>
<symbol id="icon-img" viewBox="0 0 32 32">
<path d="M18.4 6.4c-1.28 0-2.4 1.12-2.4 2.4s1.12 2.4 2.4 2.4c1.28 0 2.4-1.12 2.4-2.4s-1.12-2.4-2.4-2.4zM27.2 0h-22.4c-2.72 0-4.8 2.080-4.8 4.8v22.4c0 2.72 2.080 4.8 4.8 4.8h22.4c2.72 0 4.8-2.080 4.8-4.8v-22.4c0-2.72-2.080-4.8-4.8-4.8zM28.8 19.040l-3.040-3.040c-1.92-1.76-4.96-1.76-6.72 0l-1.44 1.44-4.64-4.64c-1.92-1.76-4.96-1.76-6.72 0l-3.040 3.040v-11.040c0-0.96 0.64-1.6 1.6-1.6h22.4c0.96 0 1.6 0.64 1.6 1.6v14.24z"></path>
</symbol>
<symbol id="icon-inst" viewBox="0 0 32 32">
<path d="M27.453 0h-22.905c-2.526 0-4.547 2.021-4.547 4.547v22.905c0 2.526 2.021 4.547 4.547 4.547h22.905c2.526 0 4.547-2.021 4.547-4.547v-22.905c0-2.526-2.021-4.547-4.547-4.547zM16 25.6c5.221 0 9.6-4.211 9.6-9.263 0-0.842-0.168-1.853-0.337-2.526h2.695v12.968c0 0.674-0.505 1.179-1.179 1.179h-21.558c-0.674 0-1.179-0.505-1.179-1.179v-13.137h2.863c-0.168 0.842-0.337 1.684-0.337 2.526-0.168 5.221 4.211 9.432 9.432 9.432zM16 21.895c-3.368 0-6.232-2.695-6.232-6.063s2.695-6.063 6.232-6.063c3.368 0 6.232 2.695 6.232 6.063 0 3.537-2.863 6.063-6.232 6.063zM27.789 8.758c0 0.674-0.674 1.347-1.347 1.347h-3.368c-0.674 0-1.347-0.674-1.347-1.347v-3.368c0-0.674 0.674-1.347 1.347-1.347h3.368c0.674 0 1.347 0.674 1.347 1.347v3.368z"></path>
</symbol>
<symbol id="icon-lend" viewBox="0 0 38 32">
<path d="M0 0h38.137v32h-38.137v-32z"></path>
<path d="M3.507 3.068h31.123v14.466h-31.123v-14.466z"></path>
<path d="M3.507 18.849h21.479v2.63h-21.479v-2.63z"></path>
<path d="M3.507 22.795h31.123v2.63h-31.123v-2.63z"></path>
<path d="M3.507 26.74h31.123v2.63h-31.123v-2.63z"></path>
</symbol>
<symbol id="icon-letter" viewBox="0 0 46 32">
<path d="M1.792 2.821c0.537-0.859 1.282-1.568 2.167-2.061s1.88-0.754 2.893-0.759h32c1.013 0.005 2.008 0.266 2.893 0.759s1.63 1.202 2.167 2.061l-21.060 14.74-21.060-14.74zM44.851 7.041l-13.8 9.66 13.2 11.86c0.393-0.796 0.599-1.672 0.6-2.56v-18.96zM0.852 7.041v18.96c0.001 0.888 0.207 1.764 0.6 2.56l13.2-11.86-13.8-9.66zM27.691 19.041l-3.7 2.58c-0.335 0.232-0.733 0.357-1.14 0.357s-0.805-0.124-1.14-0.357l-3.7-2.56-13.72 12.34c0.796 0.393 1.672 0.599 2.56 0.6h32c0.894-0.005 1.776-0.21 2.58-0.6l-13.74-12.36z"></path>
</symbol>
<symbol id="icon-light" viewBox="0 0 23 32">
<path d="M15.773 24.153h-8.272c-0.615 0-1.115 0.499-1.115 1.115s0.5 1.115 1.115 1.115h8.272c0.615 0 1.115-0.499 1.115-1.115s-0.5-1.115-1.116-1.115z"></path>
<path d="M9.468 29.799v0.608c0 0.686 0.555 1.242 1.241 1.242h1.853c0.685 0 1.241-0.556 1.241-1.242v-0.608c1.405-0.1 2.517-1.259 2.517-2.689h-9.371c0 1.43 1.113 2.589 2.518 2.689z"></path>
<path d="M11.637 0c-6.173 0-11.177 5.004-11.177 11.176 0 2.605 0.896 4.995 2.393 6.894 1.323 1.678 2.578 3.511 3.659 5.356h10.249c1.092-1.862 2.324-3.661 3.66-5.357 1.495-1.897 2.392-4.289 2.392-6.893 0-6.172-5.004-11.176-11.175-11.176z"></path>
</symbol>
<symbol id="icon-lightning" viewBox="0 0 22 32">
<path d="M10.75 12.383h11.25l-15.938 19.617 2.813-11.21h-8.875l16.5-20.79-5.75 12.383z"></path>
</symbol>
<symbol id="icon-link" viewBox="0 0 28 32">
<path d="M26 12.536c2.667 1.54 2.667 5.389 0 6.928l-18 10.392c-2.667 1.54-6-0.385-6-3.464v-20.785c0-3.079 3.333-5.004 6-3.464l18 10.392z"></path>
</symbol>
<symbol id="icon-logo" viewBox="0 0 33 32">
<path d="M17.143 0c-8.8 0-16 7.2-16 16s7.2 16 16 16 16-7.2 16-16-7.2-16-16-16zM17.143 3.771c3.086 0 5.486 2.514 5.486 5.486 0 3.086-2.514 5.486-5.486 5.486s-5.486-2.514-5.486-5.486c0-2.971 2.4-5.486 5.486-5.486zM27.086 24.686c0 1.257-1.029 2.286-2.171 2.286h-15.543c-1.257 0-2.171-1.029-2.171-2.286v-2.286c0-3.2 2.514-5.829 5.486-5.829h8.8c3.086 0 5.486 2.629 5.486 5.829v2.286z"></path>
</symbol>
<symbol id="icon-mac" viewBox="0 0 34 32">
<path d="M31.727 1.649h-29.694c-1.087 0-1.971 0.884-1.971 1.971v19.577c0 1.087 0.884 1.971 1.971 1.971h29.694c1.087 0 1.971-0.884 1.971-1.971v-19.577c0-1.087-0.884-1.971-1.971-1.971z"></path>
<path d="M27.391 30.029h-5.321v-2.89h-10.38v2.89h-5.321c-0.544 0-0.985 0.441-0.985 0.985s0.441 0.985 0.985 0.985h21.022c0.544 0 0.985-0.441 0.985-0.985s-0.441-0.985-0.985-0.985z"></path>
</symbol>
<symbol id="icon-marketing" viewBox="0 0 55 32">
<path d="M3.272 0h48.651c1.884 0.518 3.272 2.246 3.272 4.293v23.146c0 2.454-1.997 4.451-4.451 4.451h-46.293c-2.454 0-4.451-1.997-4.451-4.451v-23.146c0-2.046 1.388-3.775 3.272-4.293zM3.561 19.427v-7.122c0-0.982 0.799-1.78 1.78-1.78h1.78c0.982 0 1.78 0.799 1.78 1.78v7.122c0 0.982-0.799 1.781-1.78 1.781h-1.78c-0.982 0-1.78-0.799-1.78-1.781zM7.122 12.305h-1.78v7.122h1.781l-0.001-7.122zM49.854 10.524v1.78h1.78v-1.78h-1.78zM46.293 28.329h-33.829c-0.982 0-1.781-0.799-1.781-1.781v-21.366c0-0.982 0.799-1.78 1.781-1.78h33.829c0.982 0 1.781 0.799 1.781 1.78v21.366c0 0.982-0.799 1.781-1.781 1.781zM46.293 5.183h-33.829v21.366h33.83l-0.001-21.366zM49.854 21.207h1.78v-7.122h-1.78v7.122zM26.287 8.744c2.468 0 4.938-0.583 7.144-1.687l0.188-0.093h4.661v12.463h-4.661l-0.188-0.093c-1.279-0.64-2.648-1.099-4.053-1.376v1.838c0 0.097 0.039 0.192 0.108 0.261l1.043 1.043c0.406 0.406 0.629 0.945 0.629 1.52 0 1.185-0.964 2.149-2.149 2.149h-2.824c-1.185 0-2.149-0.964-2.149-2.149v-5.063c-2.029-0.414-3.561-2.212-3.561-4.361 0-2.454 1.997-4.451 4.451-4.451h1.36zM24.927 10.524c-1.472 0-2.671 1.198-2.671 2.671s1.198 2.671 2.671 2.671h1.36c2.272 0 4.545 0.449 6.652 1.299v-7.939c-2.107 0.85-4.38 1.299-6.652 1.299h-1.36zM29.27 22.358l-1.043-1.043c-0.406-0.406-0.629-0.945-0.629-1.52v-2.088c-0.436-0.036-0.873-0.061-1.31-0.061h-0.47v4.973c0 0.203 0.166 0.368 0.369 0.368h2.824c0.203 0 0.369-0.166 0.369-0.368 0-0.097-0.039-0.192-0.108-0.261zM34.72 17.646h1.78v-8.902h-1.78v8.902zM53.415 27.439v-23.146c0-1.472-1.198-2.671-2.671-2.671h-46.293c-1.472 0-2.671 1.198-2.671 2.671v23.146c0 1.472 1.198 2.671 2.671 2.671h46.293c1.472 0 2.671-1.198 2.671-2.671z"></path>
</symbol>
<symbol id="icon-message" viewBox="0 0 35 32">
<path d="M31.798 0.649h-25.81c-1.707 0-3.095 1.578-3.095 3.519v17.155c0 1.94 1.388 3.519 3.095 3.519h16.158l6.547 4.467c0.248 0.282 0.58 0.432 0.917 0.432 0.167 0 0.335-0.037 0.496-0.112 0.484-0.228 0.8-0.765 0.8-1.362v-3.424h0.891c1.707 0 3.095-1.578 3.095-3.519v-17.155c0-1.94-1.388-3.518-3.095-3.518zM32.3 21.323c0 0.314-0.225 0.57-0.502 0.57h-2.187c-0.682 0-1.24 0.599-1.292 1.36-0.003 0.032 0 2.885 0 2.885l-4.713-3.809c-0.005-0.006-0.010-0.011-0.015-0.017-0.018-0.020-0.036-0.038-0.052-0.054-0.228-0.227-0.526-0.366-0.854-0.366h-16.696c-0.277 0-0.502-0.256-0.502-0.57v-17.155c0-0.315 0.225-0.57 0.502-0.57h25.81c0.277 0 0.502 0.256 0.502 0.57v17.155z"></path>
</symbol>
<symbol id="icon-money" viewBox="0 0 33 32">
<path d="M27.9 7.961c-3.111-2.469-6.998-3.938-11.129-4.051-3.568-0.098-7.124-1.414-10.014-3.707-0.236-0.187-0.547-0.25-0.836-0.168s-0.523 0.297-0.626 0.579l-3.91 10.634c-0.14 0.38-0.020 0.806 0.297 1.058 3.151 2.501 7.126 3.939 11.191 4.051 0.112 0.003 0.225 0.007 0.337 0.013-2.308 0.666-4.499 1.771-6.456 3.325-0.316 0.251-0.436 0.675-0.299 1.053l3.848 10.634c0.103 0.284 0.335 0.501 0.626 0.583 0.289 0.082 0.601 0.021 0.839-0.167 2.89-2.293 6.446-3.61 10.014-3.707 4.065-0.111 8.040-1.55 11.191-4.051 0.317-0.252 0.437-0.679 0.296-1.060l-3.91-10.572c-0.104-0.282-0.337-0.497-0.627-0.578s-0.6-0.018-0.835 0.168c-0.345 0.274-0.701 0.534-1.067 0.779l1.369-3.761c0.138-0.379 0.018-0.804-0.298-1.055zM12.924 14.482c-3.435-0.094-6.797-1.238-9.541-3.237l3.239-8.81c3.003 2.072 6.543 3.253 10.098 3.35 3.397 0.093 6.737 1.238 9.48 3.238l-1.87 5.139c-1.75 0.785-3.631 1.274-5.546 1.431-1.885-0.682-3.855-1.057-5.86-1.111zM28.033 14.229l3.237 8.75c-2.744 1.998-6.105 3.143-9.539 3.236-3.553 0.097-7.091 1.277-10.092 3.346l-3.185-8.804c4.275-3.118 8.177-3.133 10.263-3.277 0.008-0 0.016-0.001 0.024-0.002 3.349-0.236 6.558-1.368 9.293-3.249z"></path>
<path d="M15.783 7.491c-1.461-0.532-3.073 0.22-3.605 1.681-0.53 1.457 0.224 3.074 1.681 3.605 1.466 0.534 3.075-0.225 3.605-1.681 0.532-1.461-0.22-3.073-1.681-3.605zM15.702 10.454c-0.177 0.486-0.716 0.737-1.202 0.56s-0.737-0.716-0.56-1.202c0.177-0.486 0.716-0.737 1.202-0.56s0.738 0.715 0.56 1.202z"></path>
<path d="M18.868 19.224c-1.461 0.532-2.213 2.144-1.681 3.605s2.144 2.213 3.605 1.681c1.457-0.53 2.211-2.147 1.681-3.605s-2.148-2.211-3.605-1.681zM20.151 22.747c-0.486 0.177-1.025-0.075-1.202-0.56-0.177-0.487 0.073-1.024 0.56-1.202 0.486-0.177 1.025 0.075 1.202 0.56s-0.075 1.025-0.56 1.202z"></path>
</symbol>
<symbol id="icon-money2" viewBox="0 0 32 32">
<path d="M31.955 17.812c-0-0-0-0-0-0l-6.042-15.17c-0.128-0.322-0.494-0.48-0.816-0.351-0 0-0 0-0.001 0l-24.511 9.76c-0.1 0.043-0.187 0.112-0.251 0.2-0.204 0.106-0.333 0.316-0.335 0.545v16.332c0 0.347 0.281 0.628 0.628 0.628h26.383c0.347 0 0.628-0.281 0.628-0.628v-8.92l3.965-1.579c0.322-0.129 0.479-0.494 0.351-0.816zM26.383 28.499h-25.127v-15.076h25.127v15.076zM10.481 12.17l10.518-4.191c0.939 0.987 2.239 1.547 3.601 1.553l1.049 2.638h-15.168zM27.639 18.858v-6.063c0-0.347-0.281-0.628-0.628-0.628h-0.010l-1.331-3.343c-0.015-0.028-0.032-0.054-0.051-0.079-0.067-0.303-0.348-0.509-0.656-0.484-1.267 0.116-2.507-0.418-3.293-1.418-0.196-0.242-0.54-0.302-0.806-0.141-0.030 0.004-0.059 0.009-0.089 0.016l-12.841 5.113c-0.155 0.061-0.28 0.182-0.345 0.335h-3.9l21.29-8.477 5.578 14.005-2.917 1.163z"></path>
<path d="M2.961 24.258c1.22 0.36 2.174 1.314 2.536 2.533 0.079 0.266 0.324 0.448 0.602 0.449 0.033-0.002 0.065-0.007 0.097-0.014 0.028 0.008 0.057 0.014 0.086 0.018h15.076c0.026-0.003 0.052-0.009 0.077-0.016 0.314 0.076 0.63-0.116 0.707-0.43 0-0.001 0.001-0.002 0.001-0.003 0.361-1.22 1.316-2.175 2.536-2.536 0.296-0.090 0.48-0.385 0.431-0.691 0.008-0.030 0.014-0.062 0.018-0.093v-5.025c-0.004-0.031-0.010-0.063-0.019-0.093 0.049-0.306-0.135-0.601-0.431-0.691-1.22-0.361-2.175-1.316-2.535-2.537-0.091-0.298-0.389-0.482-0.696-0.431-0.029-0.008-0.059-0.014-0.089-0.018h-15.076c-0.032 0.004-0.063 0.010-0.094 0.019-0.306-0.049-0.6 0.135-0.691 0.431-0.361 1.22-1.316 2.174-2.536 2.535-0.296 0.090-0.48 0.385-0.431 0.691-0.008 0.031-0.014 0.062-0.018 0.093v5.025c0.004 0.029 0.010 0.059 0.018 0.087-0.051 0.308 0.133 0.606 0.431 0.697zM3.769 18.703c1.261-0.507 2.261-1.506 2.768-2.768h14.565c0.507 1.261 1.507 2.261 2.768 2.768v4.515c-1.261 0.507-2.261 1.507-2.768 2.768h-14.566c-0.507-1.261-1.507-2.261-2.768-2.768v-4.515z"></path>
<path d="M13.819 24.73c2.082 0 3.769-1.687 3.769-3.769s-1.687-3.769-3.769-3.769c-2.082 0-3.769 1.687-3.769 3.769 0.002 2.081 1.688 3.767 3.769 3.769zM13.819 18.448c1.388 0 2.513 1.125 2.513 2.513s-1.125 2.513-2.513 2.513c-1.388 0-2.513-1.125-2.513-2.513s1.125-2.513 2.513-2.513z"></path>
<path d="M6.909 21.903c0.52 0 0.942-0.422 0.942-0.942s-0.422-0.942-0.942-0.942c-0.52 0-0.942 0.422-0.942 0.942s0.422 0.942 0.942 0.942zM6.909 20.647c0.173 0 0.314 0.141 0.314 0.314s-0.141 0.314-0.314 0.314c-0.173 0-0.314-0.141-0.314-0.314s0.141-0.314 0.314-0.314z"></path>
<path d="M20.73 21.903c0.52 0 0.942-0.422 0.942-0.942s-0.422-0.942-0.942-0.942c-0.52 0-0.942 0.422-0.942 0.942s0.422 0.942 0.942 0.942zM20.73 20.647c0.173 0 0.314 0.141 0.314 0.314s-0.141 0.314-0.314 0.314c-0.173 0-0.314-0.141-0.314-0.314s0.141-0.314 0.314-0.314z"></path>
</symbol>
<symbol id="icon-play" viewBox="0 0 34 32">
<path d="M17.592 32.001c-8.837 0-16-7.164-16-16s7.163-16 16-16c8.836 0 16 7.163 16 16s-7.164 16-16 16zM13.782 22.599l11.429-6.598-11.429-6.598v13.197z"></path>
</symbol>
<symbol id="icon-puzzle" viewBox="0 0 33 32">
<path d="M6.146 16.807c0 1.238 1.044 2.241 2.332 2.241s2.332-1.003 2.332-2.241v-2.241h5.287v-5.602h-2.332c-0.644 0-1.166-0.502-1.166-1.12s0.522-1.12 1.166-1.12h2.332v-6.723h-15.238v14.566h5.287v2.241z"></path>
<path d="M27.886 16.834v-2.321c0-1.282-0.997-2.321-2.227-2.321s-2.227 1.039-2.227 2.321v2.321h-5.048v2.94c2.457 0 4.454 2.082 4.454 4.643s-1.998 4.643-4.454 4.643v2.941h14.476v-15.167h-4.974z"></path>
<path d="M18.348 26.714c1.282 0 2.321-1.044 2.321-2.332s-1.039-2.332-2.321-2.332h-2.321v-5.287h-2.94c0 2.573-2.082 4.665-4.643 4.665s-4.643-2.092-4.643-4.665h-2.94v15.238h15.167v-5.287h2.321z"></path>
</symbol>
<symbol id="icon-quotes" viewBox="0 0 38 32">
<path d="M11.597 15.794l4.034-15.794h-8.067l-5.345 14.658c-1.815 4.748-2.219 6.503-2.219 8.877 0 4.955 3.429 8.464 8.269 8.464 4.538 0 8.067-3.406 8.067-8.464 0-3.819-1.815-6.503-4.739-7.742zM32.975 15.794l4.034-15.794h-8.067l-5.344 14.658c-1.815 4.748-2.218 6.503-2.218 8.877 0 4.955 3.429 8.464 8.269 8.464 4.538 0 8.067-3.406 8.067-8.464 0-3.819-1.815-6.503-4.74-7.742z"></path>
</symbol>
<symbol id="icon-right" viewBox="0 0 32 32">
<path d="M24.464 17.584l-13.76 13.759c-0.875 0.875-2.294 0.875-3.169 0s-0.875-2.294 0-3.169l12.175-12.175-12.175-12.174c-0.875-0.875-0.875-2.294 0-3.169s2.294-0.875 3.169 0l13.76 13.759c0.437 0.438 0.656 1.011 0.656 1.584s-0.219 1.147-0.656 1.584z"></path>
</symbol>
<symbol id="icon-sale" viewBox="0 0 33 32">
<path d="M31.629 18.327l-1.169-1.797c-0.21-0.322-0.21-0.739 0-1.062l1.17-1.797c1.065-1.639 0.344-3.835-1.473-4.529l-2.001-0.767c-0.36-0.138-0.605-0.475-0.625-0.859l-0.11-2.14c-0.1-1.946-1.967-3.305-3.854-2.8l-2.069 0.557c-0.371 0.1-0.769-0.029-1.010-0.328l-1.348-1.667c-1.227-1.518-3.541-1.515-4.764 0.001l-1.348 1.666c-0.241 0.3-0.639 0.428-1.010 0.328l-2.069-0.556c-1.882-0.507-3.755 0.852-3.855 2.8l-0.11 2.14c-0.020 0.384-0.264 0.721-0.624 0.859l-2.001 0.766c-1.819 0.697-2.537 2.893-1.472 4.531l1.168 1.795c0.21 0.323 0.21 0.741 0.001 1.063l-1.169 1.796c-1.065 1.634-0.348 3.835 1.472 4.53l2.001 0.766c0.36 0.138 0.604 0.475 0.624 0.86l0.11 2.14c0.1 1.946 1.969 3.306 3.855 2.8l2.069-0.557c0.37-0.099 0.767 0.029 1.010 0.329l1.347 1.666c1.224 1.515 3.535 1.519 4.765 0.001l1.347-1.667c0.243-0.3 0.639-0.428 1.010-0.329l2.071 0.558c1.878 0.503 3.753-0.85 3.853-2.801l0.11-2.14c0.020-0.385 0.265-0.722 0.625-0.86l2.001-0.766c1.819-0.696 2.538-2.893 1.472-4.531zM12.533 10.372c1.152 0 2.089 0.937 2.089 2.089s-0.937 2.089-2.089 2.089c-1.152 0-2.089-0.937-2.089-2.089s0.937-2.089 2.089-2.089zM20.192 22.208c-1.152 0-2.089-0.937-2.089-2.089s0.937-2.089 2.089-2.089c1.152 0 2.089 0.937 2.089 2.089s-0.937 2.089-2.089 2.089zM21.975 12.155l-9.748 9.748c-0.408 0.408-1.069 0.408-1.477 0s-0.408-1.069 0-1.477l9.748-9.748c0.408-0.408 1.069-0.408 1.477 0s0.408 1.069 0 1.477z"></path>
</symbol>
<symbol id="icon-school" viewBox="0 0 41 32">
<path d="M21.325 14.925c-0.093 0-0.187-0.011-0.277-0.035l-10.035-2.509v8.202c0 3.272 8.59 3.438 10.312 3.438s10.313-0.166 10.313-3.438v-8.202l-10.035 2.509c-0.091 0.024-0.185 0.035-0.277 0.035z"></path>
<path d="M38.589 22.691v-14.39l1.423-0.356c0.51-0.128 0.868-0.585 0.868-1.111s-0.358-0.984-0.868-1.111l-18.41-4.583c-0.181-0.047-0.374-0.047-0.555 0l-18.41 4.583c-0.51 0.128-0.868 0.585-0.868 1.111s0.358 0.984 0.868 1.111l18.41 4.583c0.091 0.024 0.185 0.035 0.277 0.035s0.187-0.011 0.277-0.035l14.695-3.655v13.817l-2.232 6.697c-0.238 0.714 0.328 1.497 1.087 1.508h4.583c0.32 0 0.665-0.143 0.914-0.49 0.166-0.233 0.315-0.591 0.172-1.019l-2.232-6.697z"></path>
</symbol>
<symbol id="icon-search" viewBox="0 0 33 32">
<path d="M32.935 29.726l-9.1-9.1c1.763-2.177 2.824-4.944 2.824-7.957 0-6.984-5.683-12.667-12.667-12.667s-12.666 5.683-12.666 12.666 5.683 12.667 12.667 12.667c3.013 0 5.78-1.061 7.957-2.824l9.1 9.1c0.26 0.26 0.601 0.391 0.943 0.391s0.683-0.131 0.943-0.391c0.521-0.521 0.521-1.364 0-1.885zM13.993 22.668c-5.515 0-10-4.485-10-10s4.485-10 10-10c5.515 0 10 4.485 10 10s-4.485 10-10 10z"></path>
</symbol>
<symbol id="icon-select" viewBox="0 0 46 32">
<path d="M1.765 7.546l17.341 20.404c1.629 1.917 4.491 2.139 6.391 0.496 0.176-0.152 0.341-0.318 0.492-0.496l17.341-20.404c1.629-1.917 1.409-4.803-0.492-6.446-0.822-0.71-1.868-1.101-2.95-1.101h-34.682c-2.503 0-4.533 2.047-4.533 4.571 0 1.091 0.387 2.146 1.091 2.975z"></path>
</symbol>
<symbol id="icon-settings" viewBox="0 0 32 32">
<path d="M30.912 12.080l-3.024-1.008 1.424-2.848c0.144-0.298 0.193-0.634 0.138-0.96s-0.209-0.628-0.442-0.864l-3.408-3.408c-0.236-0.237-0.541-0.393-0.871-0.448s-0.669-0.004-0.969 0.144l-2.848 1.424-1.008-3.024c-0.106-0.315-0.309-0.589-0.578-0.784s-0.593-0.301-0.926-0.304h-4.8c-0.335-0.001-0.663 0.104-0.935 0.299s-0.477 0.471-0.585 0.789l-1.008 3.024-2.848-1.424c-0.298-0.144-0.634-0.193-0.96-0.138s-0.628 0.209-0.864 0.442l-3.408 3.408c-0.237 0.236-0.393 0.541-0.448 0.871s-0.004 0.669 0.144 0.969l1.424 2.848-3.024 1.008c-0.315 0.106-0.589 0.309-0.784 0.578s-0.301 0.593-0.304 0.926v4.8c-0.001 0.335 0.104 0.663 0.299 0.935s0.471 0.477 0.789 0.585l3.024 1.008-1.424 2.848c-0.144 0.298-0.193 0.634-0.138 0.96s0.209 0.628 0.442 0.864l3.408 3.408c0.236 0.237 0.541 0.393 0.871 0.448s0.669 0.004 0.969-0.144l2.848-1.424 1.008 3.024c0.107 0.318 0.312 0.594 0.585 0.789s0.6 0.3 0.935 0.299h4.8c0.335 0.001 0.663-0.104 0.935-0.299s0.477-0.471 0.585-0.789l1.008-3.024 2.848 1.424c0.296 0.141 0.629 0.187 0.952 0.133s0.622-0.207 0.856-0.437l3.408-3.408c0.237-0.236 0.393-0.541 0.448-0.871s0.004-0.669-0.144-0.969l-1.424-2.848 3.024-1.008c0.315-0.106 0.59-0.309 0.784-0.578s0.301-0.593 0.304-0.926v-4.8c0.001-0.335-0.104-0.663-0.299-0.935s-0.471-0.477-0.789-0.585zM28.8 17.248l-1.92 0.64c-0.442 0.143-0.847 0.381-1.187 0.696s-0.608 0.701-0.785 1.13c-0.176 0.429-0.258 0.892-0.238 1.355s0.141 0.918 0.354 1.33l0.912 1.824-1.76 1.76-1.776-0.96c-0.41-0.204-0.86-0.318-1.318-0.334s-0.914 0.067-1.338 0.243c-0.423 0.176-0.804 0.441-1.116 0.777s-0.548 0.735-0.693 1.17l-0.64 1.92h-2.544l-0.64-1.92c-0.143-0.442-0.381-0.847-0.696-1.187s-0.701-0.608-1.13-0.785c-0.429-0.176-0.892-0.258-1.356-0.238s-0.918 0.141-1.33 0.354l-1.824 0.912-1.76-1.76 0.96-1.776c0.213-0.412 0.334-0.866 0.354-1.33s-0.061-0.926-0.238-1.355c-0.177-0.429-0.444-0.815-0.785-1.13s-0.746-0.553-1.187-0.696l-1.92-0.64v-2.496l1.92-0.64c0.442-0.143 0.847-0.381 1.187-0.696s0.608-0.701 0.785-1.13c0.177-0.429 0.258-0.892 0.238-1.356s-0.141-0.918-0.354-1.33l-0.912-1.776 1.76-1.76 1.776 0.912c0.412 0.213 0.866 0.334 1.33 0.354s0.926-0.061 1.356-0.238c0.429-0.177 0.815-0.444 1.13-0.785s0.553-0.746 0.696-1.187l0.64-1.92h2.496l0.64 1.92c0.143 0.442 0.381 0.847 0.696 1.187s0.701 0.608 1.13 0.785c0.429 0.177 0.892 0.258 1.355 0.238s0.918-0.141 1.33-0.354l1.824-0.912 1.76 1.76-0.96 1.776c-0.204 0.41-0.318 0.86-0.334 1.318s0.067 0.914 0.243 1.338c0.176 0.423 0.441 0.804 0.777 1.116s0.735 0.548 1.17 0.693l1.92 0.64v2.544zM16 9.6c-1.266 0-2.503 0.375-3.556 1.079s-1.873 1.703-2.357 2.872c-0.484 1.169-0.611 2.456-0.364 3.698s0.856 2.382 1.752 3.277c0.895 0.895 2.035 1.505 3.277 1.752s2.528 0.12 3.698-0.364c1.169-0.484 2.169-1.305 2.872-2.357s1.079-2.29 1.079-3.556c0-1.697-0.674-3.325-1.875-4.525s-2.828-1.874-4.526-1.874zM16 19.2c-0.633 0-1.252-0.188-1.778-0.539s-0.936-0.851-1.179-1.436c-0.242-0.585-0.306-1.228-0.182-1.849s0.428-1.191 0.876-1.638c0.448-0.448 1.018-0.752 1.638-0.876s1.264-0.060 1.849 0.182c0.585 0.242 1.084 0.652 1.436 1.179s0.539 1.145 0.539 1.778c0 0.849-0.337 1.663-0.937 2.263s-1.414 0.937-2.263 0.937z"></path>
</symbol>
<symbol id="icon-smile" viewBox="0 0 34 32">
<path d="M19.964 19.568c-1.070 0.862-2.402 1.333-3.776 1.333s-2.706-0.47-3.776-1.333c-0.327-0.272-0.748-0.402-1.171-0.363s-0.813 0.244-1.085 0.571c-0.272 0.327-0.402 0.748-0.363 1.171s0.244 0.813 0.571 1.085c1.634 1.364 3.695 2.111 5.824 2.111s4.19-0.747 5.824-2.111c0.327-0.272 0.532-0.662 0.571-1.085s-0.092-0.844-0.363-1.171c-0.135-0.162-0.3-0.296-0.486-0.393s-0.39-0.158-0.599-0.178c-0.423-0.039-0.844 0.092-1.171 0.363zM11.387 14.4c0.316 0 0.626-0.094 0.889-0.27s0.468-0.426 0.589-0.718c0.121-0.292 0.153-0.614 0.091-0.924s-0.214-0.595-0.438-0.819c-0.224-0.224-0.509-0.376-0.819-0.438s-0.632-0.030-0.924 0.091c-0.292 0.121-0.542 0.326-0.718 0.589s-0.27 0.572-0.27 0.889c0 0.424 0.169 0.831 0.469 1.131s0.707 0.469 1.131 0.469zM20.988 11.2c-0.316 0-0.626 0.094-0.889 0.27s-0.468 0.426-0.589 0.718-0.153 0.614-0.091 0.924c0.062 0.31 0.214 0.595 0.438 0.819s0.509 0.376 0.819 0.438 0.632 0.030 0.924-0.091c0.292-0.121 0.542-0.326 0.718-0.589s0.27-0.572 0.27-0.889c0-0.424-0.169-0.831-0.469-1.131s-0.707-0.469-1.131-0.469zM16.188 0c-3.165 0-6.258 0.938-8.889 2.696s-4.682 4.257-5.893 7.181c-1.211 2.924-1.528 6.141-0.91 9.244s2.141 5.955 4.379 8.192c2.238 2.238 5.089 3.761 8.192 4.379s6.321 0.3 9.244-0.911c2.924-1.211 5.423-3.262 7.181-5.893s2.696-5.725 2.696-8.889c0-2.101-0.414-4.182-1.218-6.123s-1.983-3.705-3.468-5.191c-1.486-1.486-3.25-2.664-5.191-3.468s-4.022-1.218-6.123-1.218zM16.188 28.8c-2.532 0-5.006-0.751-7.111-2.157s-3.746-3.406-4.714-5.744-1.222-4.913-0.728-7.396c0.494-2.483 1.713-4.764 3.503-6.554s4.071-3.009 6.554-3.503c2.483-0.494 5.057-0.24 7.396 0.728s4.338 2.609 5.744 4.714c1.407 2.105 2.157 4.58 2.157 7.111 0 3.395-1.349 6.651-3.749 9.051s-5.656 3.749-9.051 3.749z"></path>
</symbol>
<symbol id="icon-star" viewBox="0 0 31 32">
<path d="M10.664 0.935l7.978 7.017 10.303-2.594-4.208 9.756 5.651 8.998-10.579-0.988-6.811 8.155-2.33-10.366-9.86-3.958 9.139-5.419 0.717-10.601z"></path>
</symbol>
<symbol id="icon-star2" viewBox="0 0 33 32">
<path d="M16.41 0l3.255 7.466 7.293-3.627-2.306 7.812 7.918 1.909-6.788 4.502 4.838 6.552-8.094-0.914-0.505 8.129-5.613-5.903-5.613 5.903-0.505-8.129-8.094 0.914 4.838-6.552-6.788-4.502 7.918-1.909-2.306-7.812 7.293 3.627 3.255-7.466z"></path>
</symbol>
<symbol id="icon-telegram" viewBox="0 0 37 32">
<path d="M0.736 15.448l8.46 3.126 3.31 10.667c0.184 0.736 0.92 0.92 1.655 0.368l4.782-3.862c0.368-0.368 1.103-0.368 1.655 0l8.46 6.253c0.552 0.368 1.471 0.184 1.655-0.552l6.069-30.161c0.184-0.736-0.552-1.471-1.287-1.103l-34.759 13.425c-0.92 0.184-0.92 1.471 0 1.839zM11.954 16.92l16.552-10.115c0.368-0.184 0.552 0.368 0.368 0.368l-13.609 12.69c-0.368 0.368-0.92 0.92-0.92 1.655l-0.368 3.494c0 0.368-0.736 0.552-0.92 0l-1.655-6.253c-0.368-0.552-0.184-1.471 0.552-1.839z"></path>
</symbol>
<symbol id="icon-time" viewBox="0 0 34 32">
<path d="M1.515 16c0-8.822 7.179-16 16-16s16 7.179 16 16c0 8.821-7.179 16-16 16s-16-7.179-16-16zM30.851 16c0-7.38-5.956-13.336-13.336-13.336s-13.336 5.956-13.336 13.336c0 7.38 5.956 13.33 13.336 13.33s13.336-5.951 13.336-13.33zM25.372 8.274c0.213-0.163 0.47-0.257 0.738-0.271 0.437-0.024 0.86 0.169 1.128 0.515 0.18 0.233 0.277 0.519 0.277 0.814 0 0.414-0.193 0.806-0.521 1.058l-8.665 6.668c-0.503 0.387-1.215 0.364-1.693-0.055l-3.999-3.499c-0.289-0.253-0.455-0.619-0.455-1.003 0-0.323 0.118-0.636 0.331-0.879 0.253-0.289 0.619-0.455 1.004-0.455 0.323 0 0.636 0.117 0.879 0.331l3.174 2.778 7.802-6.001z"></path>
</symbol>
<symbol id="icon-twitter" viewBox="0 0 40 32">
<path d="M40.205 3.897c-1.436 0.615-3.077 1.026-4.718 1.231 1.641-1.026 3.077-2.667 3.692-4.513-1.641 1.026-3.282 1.641-5.333 2.051-1.436-1.641-3.692-2.667-5.949-2.667-4.513 0-8.205 3.692-8.205 8.205 0 0.615 0 1.231 0.205 1.846-6.769-0.41-12.923-3.692-17.026-8.615-0.615 1.231-1.026 2.667-1.026 4.103 0 2.872 1.436 5.333 3.692 6.769-1.436 0-2.667-0.41-3.692-1.026 0 3.897 2.872 7.385 6.564 8-0.615 0.205-1.436 0.205-2.256 0.205-0.615 0-1.026 0-1.641-0.205 1.026 3.282 4.103 5.744 7.795 5.744-2.872 2.256-6.359 3.487-10.256 3.487-0.615 0-1.231 0-2.051-0.205 3.692 2.256 8 3.692 12.718 3.692 15.18 0 23.385-12.513 23.385-23.385v-1.026c1.641-0.615 3.077-2.051 4.103-3.692z"></path>
</symbol>
<symbol id="icon-user" viewBox="0 0 28 32">
<path d="M0.534 25.631v3.185c0 1.759 1.361 3.185 3.040 3.185h21.279c1.679 0 3.040-1.426 3.040-3.185v-3.185c0-4.397-3.402-7.962-7.6-7.962h-12.159c-4.197 0-7.6 3.565-7.6 7.962z"></path>
<path d="M14.213 15.145c4.182 0 7.572-3.39 7.572-7.573s-3.39-7.572-7.572-7.572c-4.182 0-7.572 3.39-7.572 7.572s3.39 7.573 7.572 7.573z"></path>
</symbol>
<symbol id="icon-user-outline" viewBox="0 0 34 32">
<path d="M22.919 16.414c1.067-0.869 1.923-1.945 2.51-3.153s0.89-2.521 0.89-3.849c0-2.496-1.053-4.89-2.929-6.655s-4.419-2.757-7.071-2.757c-2.652 0-5.196 0.992-7.071 2.757s-2.929 4.159-2.929 6.655c-0 1.328 0.304 2.641 0.89 3.849s1.443 2.284 2.51 3.153c-2.8 1.193-5.175 3.12-6.842 5.55s-2.555 5.261-2.558 8.153c0 0.499 0.211 0.978 0.586 1.331s0.884 0.551 1.414 0.551 1.039-0.198 1.414-0.551c0.375-0.353 0.586-0.832 0.586-1.331 0-2.995 1.264-5.868 3.515-7.986s5.303-3.308 8.485-3.308c3.183 0 6.235 1.19 8.485 3.308s3.515 4.991 3.515 7.986c0 0.499 0.211 0.978 0.586 1.331s0.884 0.551 1.414 0.551 1.039-0.198 1.414-0.551c0.375-0.353 0.586-0.832 0.586-1.331-0.003-2.893-0.891-5.723-2.558-8.153s-4.042-4.357-6.842-5.55zM16.319 15.059c-1.187 0-2.347-0.331-3.333-0.952s-1.756-1.502-2.21-2.534c-0.454-1.032-0.573-2.167-0.341-3.263s0.803-2.102 1.642-2.891c0.839-0.79 1.908-1.328 3.072-1.545s2.37-0.106 3.467 0.321c1.096 0.427 2.033 1.151 2.693 2.080s1.011 2.020 1.011 3.137c0 1.498-0.632 2.934-1.757 3.993s-2.651 1.654-4.243 1.654z"></path>
</symbol>
<symbol id="icon-vk" viewBox="0 0 55 32">
<path d="M54.744 28.826c0-0.264-0.264-0.264-0.264-0.529-0.793-1.851-2.909-3.967-5.554-6.347-1.322-1.058-1.851-1.851-2.38-2.38-0.529-0.793-0.529-1.587-0.529-2.38 0.264-0.529 1.058-1.851 2.645-3.702 0.793-1.058 1.322-1.851 1.851-2.38 3.174-4.496 4.76-7.141 4.496-8.463l-0.264-0.264c-0.264-0.264-0.529-0.529-0.793-0.529-0.529-0.264-1.058-0.264-1.851 0h-8.463c-0.264 0-0.264 0-0.529 0s-0.529 0-0.529 0h-0.264l-0.264 0.264c-0.264 0.264-0.264 0.264-0.264 0.529-0.793 2.38-1.851 4.496-3.174 6.612-0.529 1.058-1.322 2.116-1.851 3.174-0.529 0.793-1.058 1.587-1.587 1.851-0.264 0.264-0.793 0.529-0.793 0.793-0.264 0.264-0.529 0.529-0.529 0.264-0.264 0-0.529 0-0.529-0.264-0.264-0.264-0.529-0.529-0.529-0.529-0.264-0.264-0.264-0.529-0.529-1.058 0-0.529 0-0.793 0-1.058s0-0.793 0-1.322c0-0.529 0-1.058 0-1.322 0-0.529 0-1.587 0-2.38s0-1.587 0-1.851c0-0.529 0-1.058 0-1.587s0-1.058 0-1.322-0.529-0.793-0.529-1.058c-0.264-0.264-0.529-0.529-0.529-0.529-0.264-0.264-0.529-0.264-0.793-0.529-1.322-0.264-2.645-0.529-3.967-0.529-3.702 0-6.083 0.264-6.876 0.529-0.529 0.264-0.793 0.529-1.058 1.058-0.529 0.264-0.529 0.529-0.264 0.529 1.058 0.264 1.851 0.529 2.38 1.322l0.264 0.529c0.264 0.264 0.264 0.529 0.529 1.322 0.264 0.529 0.264 1.322 0.264 2.116 0 1.322 0 2.645 0 3.438 0 1.058-0.264 1.851-0.264 2.38s-0.264 1.058-0.529 1.322c-0.264 0.529-0.264 0.793-0.529 0.793 0 0 0 0.264-0.264 0.264 0 0-0.264 0.264-0.793 0.264-0.264 0-0.529-0.264-0.793-0.529-0.529-0.264-1.058-0.529-1.058-1.058-0.529-0.529-1.058-1.058-1.322-2.116-0.529-0.793-1.322-1.587-1.587-2.909l-0.529-0.793c-0.264-0.529-0.529-1.322-1.058-2.645-0.529-1.058-0.793-1.851-1.322-2.909-0.264-0.529-0.529-0.793-0.529-1.058h-0.264c0 0-0.264-0.264-0.529-0.264s-0.529-0.264-0.529-0.264h-7.934c-0.793 0-1.322 0.264-1.587 0.529l-0.264 0.264c0 0 0 0.264 0 0.529s0 0.529 0.264 0.793c1.058 2.645 2.38 5.289 3.702 7.934 1.322 2.38 2.645 4.496 3.438 6.083 1.058 1.587 2.116 3.174 3.174 4.496s1.851 2.116 1.851 2.645c0.529 0.529 0.793 0.529 1.058 0.793l0.529 0.529c0.529 0.529 1.058 1.058 1.851 1.851 0.793 0.529 1.851 1.322 3.174 1.851 1.058 0.529 2.38 1.058 3.702 1.587 1.587 0.529 2.909 0.529 4.231 0.529h3.174c0.529 0 1.058-0.264 1.587-0.529l0.264-0.264c0-0.264 0.264-0.264 0.264-0.529s0-0.529 0-0.793c0-0.793 0-1.587 0.264-2.116s0.264-1.058 0.529-1.587c0.264-0.529 0.529-0.529 0.529-0.793s0.529-0.529 0.529-0.529h0.264c0.529-0.264 1.058 0 1.587 0.529s1.322 1.058 1.851 1.851c0.529 0.529 1.058 1.322 1.851 2.116s1.587 1.587 1.851 1.851l0.529 0.529c0.529 0.264 0.793 0.529 1.587 0.529 0.529 0.264 1.058 0.264 1.587 0.264l7.405-0.264c0.529 0 1.322-0.264 1.851-0.529s0.529-0.529 0.529-0.793c0-0.264 0-0.529 0-0.793-0.264-0.793-0.264-0.793-0.264-1.058z"></path>
</symbol>
<symbol id="icon-wifi" viewBox="0 0 45 32">
<path d="M10.785 2.277c0.521-0.521 0.521-1.365 0-1.886s-1.365-0.521-1.886 0c-8.331 8.331-8.331 21.839 0 30.17 0.521 0.521 1.365 0.521 1.886 0s0.521-1.365 0-1.886c-7.29-7.29-7.29-19.109 0-26.399z"></path>
<path d="M39.069 0.392c-0.521-0.521-1.365-0.521-1.886 0s-0.521 1.365 0 1.886c7.29 7.29 7.29 19.109 0 26.399-0.521 0.521-0.521 1.365 0 1.886s1.365 0.521 1.886 0c8.331-8.331 8.331-21.839 0-30.17z"></path>
<path d="M17.213 8.706c-3.74 3.74-3.74 9.803 0 13.542 0.521 0.521 0.521 1.365 0 1.886s-1.365 0.521-1.886 0c-4.781-4.781-4.781-12.532 0-17.313 0.521-0.521 1.365-0.521 1.886 0s0.521 1.365 0 1.886z"></path>
<path d="M30.755 6.82c0.521-0.521 1.365-0.521 1.886 0 4.781 4.781 4.781 12.532 0 17.313-0.521 0.521-1.365 0.521-1.886 0s-0.521-1.365 0-1.886c3.739-3.74 3.739-9.803 0-13.542-0.521-0.521-0.521-1.365 0-1.886z"></path>
<path d="M26.556 12.906c1.42 1.42 1.42 3.723 0 5.143s-3.723 1.42-5.143 0c-1.42-1.42-1.42-3.723 0-5.143s3.723-1.42 5.143 0z"></path>
</symbol>
<symbol id="icon-youtube" viewBox="0 0 42 32">
<path d="M41.33 12.201c0-0.892-0.149-1.933-0.149-3.122-0.149-1.189-0.297-2.379-0.446-3.42-0.297-1.189-0.743-2.082-1.635-2.825-0.744-0.743-1.784-1.19-2.825-1.338-3.42-0.446-8.475-0.595-15.315-0.595s-12.044 0.149-15.315 0.595c-1.041 0.149-2.082 0.595-2.825 1.338s-1.338 1.636-1.636 2.825c-0.297 1.041-0.446 2.082-0.446 3.42-0.149 1.19-0.149 2.23-0.149 3.122s0 1.933 0 3.42c0 1.487 0 2.676 0 3.42 0 0.892 0.149 1.933 0.149 3.123 0.149 1.189 0.297 2.379 0.446 3.42 0.297 1.19 0.743 2.082 1.636 2.825 0.743 0.743 1.784 1.189 2.825 1.338 3.42 0.446 8.475 0.595 15.315 0.595s12.044-0.149 15.315-0.595c1.041-0.149 2.082-0.595 2.825-1.338s1.338-1.636 1.635-2.825c0.297-1.041 0.446-2.082 0.446-3.42 0.149-1.19 0.149-2.23 0.149-3.123s0-1.933 0-3.42c0-1.487 0-2.676 0-3.42zM28.841 16.81l-11.746 7.286c-0.149 0.149-0.446 0.297-0.743 0.297s-0.446 0-0.743-0.149c-0.446-0.297-0.743-0.744-0.743-1.338v-14.72c0-0.595 0.297-1.041 0.743-1.338s1.041-0.297 1.487 0l11.746 7.286c0.446 0.297 0.743 0.743 0.743 1.19s-0.297 1.19-0.743 1.487z"></path>
</symbol>
</defs>
</svg>
