<svg width="175" height="175" viewBox="0 0 175 175" fill="none" xmlns="http://www.w3.org/2000/svg">
<circle r="74.4517" transform="matrix(-1 0 0 1 100.162 100.548)" fill="white"/>
<path d="M131.763 76.3002C157.953 124.337 135.803 143.704 113.302 148.965C87.7645 154.925 66.0667 143.689 52.9009 116.033C39.7351 88.3769 41.3551 57.7204 65.03 46.5098C88.7049 35.2992 117.079 49.361 131.763 76.3002Z" fill="#F5B49B"/>
<path d="M99.3637 73.0075C99.2732 72.6733 99.1071 72.3643 98.8784 72.1042C98.6497 71.8442 98.3643 71.6402 98.0443 71.5077C97.3162 71.1961 96.5151 71.0956 95.7326 71.2176C95.1157 71.3456 94.5325 71.6013 94.0203 71.9682C93.5082 72.3352 93.0786 72.8053 92.7591 73.3483C92.4396 73.8913 92.2373 74.4952 92.1652 75.1211C92.0931 75.747 92.1529 76.381 92.3406 76.9824C92.5236 77.4186 92.8202 77.7978 93.1995 78.0805C93.5788 78.3633 94.0269 78.5392 94.4972 78.5901C94.9675 78.6409 95.4429 78.5649 95.8738 78.3698C96.3048 78.1746 96.6756 77.8676 96.9477 77.4807C97.5704 76.7717 97.9698 75.9279 98.5662 75.2156C98.8774 74.9469 99.1142 74.6026 99.2539 74.2159C99.3936 73.8292 99.4314 73.4131 99.3637 73.0075Z" fill="#304493"/>
<path d="M110.946 69.0454C110.796 68.7645 110.711 68.4535 110.698 68.1354C110.685 67.8172 110.744 67.5002 110.87 67.2079C111.147 66.5316 111.609 65.9468 112.203 65.5207C112.695 65.2098 113.247 65.0048 113.823 64.9188C114.398 64.8327 114.986 64.8674 115.548 65.0208C116.11 65.1741 116.633 65.4427 117.086 65.8094C117.538 66.1762 117.909 66.633 118.175 67.151C118.316 67.5577 118.35 67.9938 118.274 68.4175C118.198 68.8412 118.015 69.2383 117.741 69.5708C117.468 69.9033 117.114 70.1601 116.713 70.3166C116.312 70.4731 115.877 70.5241 115.451 70.4647C114.584 70.3559 113.762 70.1059 112.837 70.0299C112.465 70.0385 112.096 69.9528 111.765 69.7806C111.435 69.6085 111.153 69.3556 110.946 69.0454Z" fill="#304493"/>
<path d="M127.593 127.866C129.72 125.905 131.61 123.18 131.091 120.3C130.91 119.333 130.44 118.444 129.744 117.749C129.047 117.055 128.157 116.587 127.19 116.408C124.435 115.929 122.074 118.154 119.54 118.783C117.973 119.193 116.308 118.984 114.891 118.199C112.146 116.681 109.375 114.839 106.156 116.249C105.108 116.704 104.217 117.458 103.595 118.417C102.974 119.377 102.65 120.498 102.664 121.641C102.74 123.373 103.38 125.032 104.486 126.366C105.781 127.991 107.388 129.341 109.211 130.337C111.034 131.333 113.038 131.955 115.105 132.168C117.172 132.38 119.26 132.178 121.248 131.573C123.236 130.968 125.083 129.973 126.681 128.645C126.992 128.404 127.292 128.135 127.593 127.866Z" fill="white"/>
<path d="M130.007 88.1278C128.683 86.6256 126.922 85.5756 124.971 85.1254C123.02 84.6752 120.977 84.8473 119.129 85.6176C117.281 86.388 115.72 87.7178 114.666 89.4204C113.613 91.123 113.119 93.1129 113.254 95.1107C113.314 95.467 113.237 95.8329 113.038 96.1347C112.839 96.4365 112.533 96.6518 112.182 96.7373C112.004 96.7813 111.818 96.7876 111.637 96.7558C111.456 96.7241 111.284 96.655 111.131 96.553C110.978 96.451 110.848 96.3183 110.749 96.1633C110.651 96.0083 110.585 95.8344 110.557 95.6528C110.317 93.0648 110.9 90.4669 112.225 88.2305C113.549 85.9942 115.547 84.2338 117.932 83.2012C120.318 82.1685 122.968 81.9164 125.506 82.4809C128.043 83.0454 130.336 84.3975 132.059 86.3441C132.179 86.4792 132.272 86.6368 132.332 86.8078C132.392 86.9788 132.417 87.1599 132.407 87.3407C132.396 87.5216 132.351 87.6986 132.272 87.8617C132.193 88.0248 132.083 88.1708 131.948 88.2914C131.813 88.412 131.655 88.5048 131.484 88.5644C131.313 88.6241 131.132 88.6495 130.951 88.6392C130.77 88.6289 130.593 88.5831 130.43 88.5043C130.267 88.4256 130.121 88.3155 130.001 88.1804L130.007 88.1278Z" fill="#304493"/>
<path d="M123.162 90.7772C126.284 99.1742 133.644 104.101 139.586 101.938C145.528 99.7753 147.813 91.1364 144.663 82.7492C141.513 74.362 134.189 69.36 128.241 71.5752C122.292 73.7905 120.038 82.3933 123.162 90.7772Z" fill="#282A31"/>
<mask id="mask0_301_12235" style="mask-type:alpha" maskUnits="userSpaceOnUse" x="121" y="71" width="26" height="32">
<path d="M123.162 90.7791C126.284 99.1761 133.644 104.103 139.586 101.94C145.528 99.7772 147.813 91.1383 144.663 82.7511C141.513 74.3639 134.189 69.362 128.241 71.5772C122.292 73.7924 120.038 82.3952 123.162 90.7791Z" fill="#282A31"/>
</mask>
<g mask="url(#mask0_301_12235)">
<path d="M121.427 74.5955L158.633 96.9287L155.247 102.57L118.041 80.2365L121.427 74.5955Z" fill="white"/>
<path d="M123.099 69.2068L160.305 91.54L159.501 92.8794L122.295 70.5461L123.099 69.2068Z" fill="white"/>
</g>
<path d="M84.2347 100.328C84.8792 103.503 86.4507 106.415 88.7505 108.697C91.0503 110.978 93.9751 112.526 97.1548 113.145C100.334 113.763 103.626 113.425 106.614 112.173C109.601 110.92 112.15 108.81 113.938 106.109C115.726 103.408 116.673 100.237 116.658 96.9974C116.644 93.7581 115.669 90.5958 113.857 87.9107C112.045 85.2255 109.477 83.1381 106.478 81.9125C103.48 80.6869 100.185 80.3782 97.0111 81.0254C92.758 81.8927 89.0233 84.413 86.6276 88.0325C84.2319 91.652 83.3712 96.0747 84.2347 100.328Z" fill="#282A31"/>
<mask id="mask1_301_12235" style="mask-type:alpha" maskUnits="userSpaceOnUse" x="83" y="80" width="34" height="34">
<path d="M84.2465 100.328C84.8909 103.503 86.4624 106.415 88.7622 108.697C91.062 110.978 93.9868 112.526 97.1665 113.145C100.346 113.763 103.638 113.425 106.625 112.173C109.613 110.92 112.162 108.81 113.95 106.109C115.738 103.408 116.684 100.237 116.67 96.9974C116.655 93.7581 115.68 90.5958 113.868 87.9107C112.056 85.2255 109.489 83.1381 106.49 81.9125C103.492 80.6869 100.197 80.3782 97.0228 81.0254C92.7698 81.8927 89.035 84.413 86.6393 88.0325C84.2436 91.652 83.3829 96.0747 84.2465 100.328Z" fill="#282A31"/>
</mask>
<g mask="url(#mask1_301_12235)">
<path d="M81.8565 86.0306L120.105 106.526L116.998 112.326L78.749 91.8298L81.8565 86.0306Z" fill="white"/>
<path d="M85.5951 79.0295L123.848 99.5186L122.723 101.619L84.47 81.13L85.5951 79.0295Z" fill="white"/>
</g>
<path d="M133.809 110.554C135.457 109.667 136.731 108.216 137.396 106.467C138.062 104.718 138.075 102.787 137.433 101.029C136.371 98.913 134.829 97.0746 132.93 95.6607L121.96 86.1184C121.96 86.1184 118.874 97.7387 121.404 104.474C123.934 111.209 133.809 110.554 133.809 110.554Z" fill="#F5B49B"/>
<path d="M122.488 85.4242L132.459 94.1072C134.528 95.9013 136.836 97.712 138.012 100.248C138.875 102.245 138.958 104.493 138.243 106.548C137.528 108.603 136.067 110.314 134.151 111.344C133.187 111.903 132.519 110.312 133.469 109.764C134.675 109.077 135.654 108.052 136.283 106.815C136.913 105.578 137.166 104.183 137.011 102.804C136.656 100.211 134.637 98.3298 132.789 96.6836C129.044 93.3583 125.225 90.0905 121.435 86.7996C120.605 86.0817 121.699 84.698 122.488 85.4242Z" fill="#AB684D"/>
<path d="M130.389 108.923C129.891 108.798 129.365 108.84 128.893 109.042C128.212 109.289 127.632 109.756 127.246 110.369C127.154 110.526 127.101 110.701 127.089 110.882C127.076 111.063 127.106 111.244 127.175 111.412C127.245 111.579 127.352 111.729 127.488 111.848C127.625 111.967 127.787 112.054 127.962 112.1C128.203 112.156 128.454 112.154 128.693 112.094C128.933 112.033 129.155 111.916 129.34 111.753C129.995 111.315 131.306 110.972 131.28 110.008C131.29 109.75 131.205 109.496 131.04 109.296C130.876 109.096 130.645 108.963 130.389 108.923Z" fill="#AB684D"/>
<path d="M17.3008 77.3818C17.2364 77.0446 17.1857 76.7047 17.1486 76.3621C16.5606 70.4178 20.3295 66.2212 25.3896 63.8545C25.5777 63.7615 25.7706 63.6788 25.9677 63.6068C23.28 60.0407 22.6356 55.1834 25.5733 51.5496C29.7598 46.3648 37.473 44.6513 43.9728 46.2276C43.2208 46.0532 43.8269 42.5003 44.0341 41.9126C44.6238 40.4125 45.536 39.0604 46.706 37.9519C48.5671 36.2111 50.8737 35.0193 53.3703 34.5085C55.867 33.9977 58.4562 34.1878 60.8515 35.0578C59.8172 34.6878 61.058 29.3734 61.2899 28.6954C61.9056 27.0116 62.8857 25.4847 64.1603 24.2239C65.4349 22.9631 66.9725 21.9995 68.6629 21.4023C70.9163 20.667 73.3269 20.556 75.6384 21.081C77.9499 21.6061 80.0759 22.7476 81.7906 24.3843C82.5567 25.1067 83.2297 25.9217 83.7942 26.8106C83.3906 26.1995 88.238 22.4452 88.8523 22.0153C95.1828 17.6066 103.932 15.7163 111.307 18.4031C118.093 20.8827 123.144 27.734 125.175 34.5132C125.932 36.809 126.2 39.238 125.962 41.6437C125.725 44.0495 124.986 46.379 123.795 48.4824C120.572 53.9616 114.316 56.8187 108.203 57.5856C108.08 58.0872 107.924 58.5802 107.737 59.0615C104.048 68.258 91.7477 71.5437 82.7391 69.7592C79.8779 69.1334 77.1186 68.1089 74.5423 66.7156C74.6921 67.7492 74.7618 68.7928 74.7509 69.8371C74.7066 76.0356 71.2923 83.5721 64.8975 85.4111C64.4267 85.5435 63.9463 85.6393 63.4606 85.6977C66.2004 88.6371 67.8696 92.4142 68.1988 96.419C68.6004 100.985 67.4099 105.55 64.8293 109.338C63.5426 111.298 61.6679 112.8 59.4742 113.629C58.1359 114.068 56.7283 114.258 55.3214 114.188C55.0476 114.528 54.7666 114.852 54.4785 115.163C51.7727 118.012 47.7466 117.987 44.4455 116.225C41.3965 114.568 38.8741 112.088 37.1654 109.067C36.5874 107.988 36.215 106.81 36.0671 105.594C34.7541 105.373 33.455 105.076 32.1761 104.705C30.641 104.112 29.2956 103.113 28.2828 101.815C26.0906 98.8716 26.4472 95.1806 28.163 92.1406C28.9729 91.0697 29.6717 89.9191 30.2485 88.7067C30.0741 89.3519 22.7315 85.4549 22.1193 85.0179C19.6435 83.1381 17.9319 80.4256 17.3008 77.3818Z" fill="#304493"/>
<path d="M71.4494 111.076C71.4494 111.076 53.9554 96.0055 42.3424 107.423C30.7293 118.84 52.2039 136.318 70.4288 131.855C82.3774 128.925 78.7586 115.983 71.4494 111.076Z" fill="#F5B49B"/>
<path d="M47.8521 116.253C51.6003 107.651 61.414 111.631 66.1648 116.83C66.2775 116.983 66.3435 117.165 66.3546 117.355C66.3656 117.544 66.3214 117.733 66.2272 117.898C66.133 118.063 65.9929 118.197 65.824 118.283C65.655 118.37 65.4646 118.406 65.2757 118.386C62.0904 118.04 61.2196 119.238 62.6631 121.981C62.4573 126.242 64.143 126.205 67.7204 121.869C67.9788 120.66 69.8982 120.888 69.6513 122.111C68.7245 126.624 63.1307 128.991 60.0706 124.777C57.0105 120.564 60.8896 115.915 65.5164 116.469L64.6683 118.017C60.9481 113.961 52.8044 109.856 49.6678 116.987C49.1648 118.125 47.3639 117.379 47.8801 116.243L47.8521 116.253Z" fill="#AB684D"/>
</svg>
