<svg width="92" height="25" viewBox="0 0 92 25" fill="none" xmlns="http://www.w3.org/2000/svg">
<path d="M0 9.17383H2.93555L4.79004 14.7021C4.94824 15.1826 5.05664 15.751 5.11523 16.4072H5.16797C5.23242 15.8037 5.3584 15.2354 5.5459 14.7021L7.36523 9.17383H10.2393L6.08203 20.2568C5.70117 21.2822 5.15625 22.0498 4.44727 22.5596C3.74414 23.0693 2.9209 23.3242 1.97754 23.3242C1.51465 23.3242 1.06055 23.2744 0.615234 23.1748V21.0479C0.9375 21.124 1.28906 21.1621 1.66992 21.1621C2.14453 21.1621 2.55762 21.0156 2.90918 20.7227C3.2666 20.4355 3.54492 19.999 3.74414 19.4131L3.90234 18.9297L0 9.17383ZM17.8945 19L17.376 17.6641H17.3057C16.8545 18.2324 16.3887 18.6279 15.9082 18.8506C15.4336 19.0674 14.8125 19.1758 14.0449 19.1758C13.1016 19.1758 12.3574 18.9062 11.8125 18.3672C11.2734 17.8281 11.0039 17.0605 11.0039 16.0645C11.0039 15.0215 11.3672 14.2539 12.0938 13.7617C12.8262 13.2637 13.9277 12.9883 15.3984 12.9355L17.1035 12.8828V12.4521C17.1035 11.4561 16.5938 10.958 15.5742 10.958C14.7891 10.958 13.8662 11.1953 12.8057 11.6699L11.918 9.85938C13.0488 9.26758 14.3027 8.97168 15.6797 8.97168C16.998 8.97168 18.0088 9.25879 18.7119 9.83301C19.415 10.4072 19.7666 11.2803 19.7666 12.4521V19H17.8945ZM17.1035 14.4473L16.0664 14.4824C15.2871 14.5059 14.707 14.6465 14.3262 14.9043C13.9453 15.1621 13.7549 15.5547 13.7549 16.082C13.7549 16.8379 14.1885 17.2158 15.0557 17.2158C15.6768 17.2158 16.1719 17.0371 16.541 16.6797C16.916 16.3223 17.1035 15.8477 17.1035 15.2559V14.4473ZM31.6055 19H28.9248V13.2607C28.9248 12.5518 28.7988 12.0215 28.5469 11.6699C28.2949 11.3125 27.8936 11.1338 27.3428 11.1338C26.5928 11.1338 26.0508 11.3857 25.7168 11.8896C25.3828 12.3877 25.2158 13.2168 25.2158 14.377V19H22.5352V9.17383H24.583L24.9434 10.4307H25.0928C25.3916 9.95605 25.8018 9.59863 26.3232 9.3584C26.8506 9.1123 27.4482 8.98926 28.1162 8.98926C29.2588 8.98926 30.126 9.2998 30.7178 9.9209C31.3096 10.5361 31.6055 11.4268 31.6055 12.5928V19ZM37.4766 19.1758C36.3223 19.1758 35.4141 18.7275 34.752 17.8311C34.0957 16.9346 33.7676 15.6924 33.7676 14.1045C33.7676 12.4932 34.1016 11.2393 34.7695 10.3428C35.4434 9.44043 36.3691 8.98926 37.5469 8.98926C38.7832 8.98926 39.7266 9.46973 40.377 10.4307H40.4648C40.3301 9.69824 40.2627 9.04492 40.2627 8.4707V5.32422H42.9521V19H40.8955L40.377 17.7256H40.2627C39.6533 18.6924 38.7246 19.1758 37.4766 19.1758ZM38.417 17.04C39.1025 17.04 39.6035 16.8408 39.9199 16.4424C40.2422 16.0439 40.418 15.3672 40.4473 14.4121V14.1221C40.4473 13.0674 40.2832 12.3115 39.9551 11.8545C39.6328 11.3975 39.1055 11.1689 38.373 11.1689C37.7754 11.1689 37.3096 11.4238 36.9756 11.9336C36.6475 12.4375 36.4834 13.1729 36.4834 14.1396C36.4834 15.1064 36.6504 15.833 36.9844 16.3193C37.3184 16.7998 37.7959 17.04 38.417 17.04ZM49.8252 10.8965C49.2568 10.8965 48.8115 11.0781 48.4893 11.4414C48.167 11.7988 47.9824 12.3086 47.9355 12.9707H51.6973C51.6855 12.3086 51.5127 11.7988 51.1787 11.4414C50.8447 11.0781 50.3936 10.8965 49.8252 10.8965ZM50.2031 19.1758C48.6211 19.1758 47.3848 18.7393 46.4941 17.8662C45.6035 16.9932 45.1582 15.7568 45.1582 14.1572C45.1582 12.5107 45.5684 11.2393 46.3887 10.3428C47.2148 9.44043 48.3545 8.98926 49.8076 8.98926C51.1963 8.98926 52.2773 9.38477 53.0508 10.1758C53.8242 10.9668 54.2109 12.0596 54.2109 13.4541V14.7549H47.874C47.9033 15.5166 48.1289 16.1113 48.5508 16.5391C48.9727 16.9668 49.5645 17.1807 50.3262 17.1807C50.918 17.1807 51.4775 17.1191 52.0049 16.9961C52.5322 16.873 53.083 16.6768 53.6572 16.4072V18.4814C53.1885 18.7158 52.6875 18.8887 52.1543 19C51.6211 19.1172 50.9707 19.1758 50.2031 19.1758ZM58.4033 13.9814L55.2393 9.17383H58.2803L60.1875 12.3027L62.1123 9.17383H65.1533L61.9541 13.9814L65.3027 19H62.2529L60.1875 15.6338L58.1133 19H55.0723L58.4033 13.9814Z" fill="white"/>
<g clip-path="url(#clip0_362_442)">
<path d="M92 24.5H87.795V3.74396H85.9174C82.4793 3.74396 80.681 5.45824 80.681 8.01648C80.681 10.9176 81.924 12.2626 84.4893 13.9769L86.605 15.4011L80.5223 24.5H76L81.4744 16.3769C78.3273 14.1352 76.5554 11.9462 76.5554 8.25385C76.5554 3.63846 79.7818 0.5 85.8909 0.5H91.9736V24.5H92Z" fill="white"/>
</g>
<defs>
<clipPath id="clip0_362_442">
<rect width="16" height="24" fill="white" transform="translate(76 0.5)"/>
</clipPath>
</defs>
</svg>
