<svg width="365" height="310" viewBox="0 0 365 310" fill="none" xmlns="http://www.w3.org/2000/svg">
<path fill-rule="evenodd" clip-rule="evenodd" d="M143.415 234.782C134 237.237 122.955 238.284 111.483 235.177C104.348 233.245 96.5062 229.67 89.7318 223.216C82.7225 216.539 78.5313 208.365 76.6381 200.07C73.2455 185.204 77.4748 171.333 80.7481 162.873C81.3659 161.276 82.0376 159.661 82.7567 158.031C37.619 199.809 -6.45526 245.255 -21.6252 263.242L-74.3711 218.758C-55.5113 196.395 -4.22134 143.905 44.9305 99.0836C69.5461 76.6367 94.6174 55.1971 115.523 40.1078C125.791 32.6962 136.392 25.8323 146.198 21.2996C151.029 19.0668 157.242 16.6502 164.119 15.5534C170.532 14.5304 182.454 13.8899 194.056 21.2912C213.567 33.7375 215.439 54.2692 213.635 66.6423C211.997 77.8754 207.015 88.4735 202.788 96.3464C198.1 105.077 191.907 114.726 185.495 124.232C192.714 117.609 200.171 110.536 207.791 103.18C215.022 96.2 222.481 88.8821 229.935 81.5689C243.844 67.924 257.736 54.2955 270.095 42.9095C279.753 34.0119 289.374 25.6293 298.361 18.8976C306.548 12.7642 317.365 5.53528 329.024 2.20414C331.709 1.43694 340.802 -1.10065 351.378 2.08033C357.739 3.99335 364.783 8.0555 370.056 15.2823C375.118 22.2181 376.624 29.4311 376.918 34.5379C377.432 43.454 374.547 50.4952 373.498 52.9671C372.037 56.4073 370.275 59.5114 368.77 61.9611C363.093 71.2031 353.323 83.4452 342.84 96.0598C332.968 107.939 322.182 120.507 310.686 133.904C294.934 152.259 277.848 172.17 259.947 193.995C229.838 230.704 203.414 265.842 189.829 291.939C188.532 294.431 187.411 296.731 186.451 298.843C198.624 297.801 214.499 293.67 234.073 285.489C262.189 273.737 293.017 255.75 322.965 235.748C371.387 203.407 413.87 168.38 436.441 149.771C441.919 145.254 446.225 141.705 449.157 139.396L491.847 193.604C489.809 195.209 486.422 198.007 481.883 201.756C460.468 219.444 413.401 258.321 361.289 293.127C329.57 314.312 294.586 334.981 260.681 349.152C227.934 362.839 190.706 372.849 156.922 365.766C146.048 363.486 134.352 358.31 125.415 347.892C116.392 337.373 113.257 325.1 112.915 314.452C112.302 295.31 120.477 275.732 128.625 260.079C132.827 252.007 137.825 243.524 143.415 234.782ZM125.451 168.14C125.451 168.138 125.49 168.131 125.563 168.122C125.487 168.137 125.45 168.141 125.451 168.14ZM144.289 190.204C144.262 190.381 144.239 190.474 144.234 190.476C144.23 190.478 144.243 190.39 144.289 190.204Z" fill="#5B4335"/>
</svg>
