<svg width="29" height="28" viewBox="0 0 29 28" fill="none" xmlns="http://www.w3.org/2000/svg">
<circle cx="14.9951" cy="14" r="14" fill="#272A31"/>
<path d="M6.30157 19.5947L6.30157 21.6185C6.30157 22.7363 7.16651 23.6424 8.23347 23.6424L21.7568 23.6424C22.8238 23.6424 23.6887 22.7363 23.6887 21.6185L23.6887 19.5947C23.6887 16.8003 21.5263 14.5349 18.8589 14.5349L11.1313 14.5349C8.46393 14.5349 6.30157 16.8003 6.30157 19.5947Z" fill="white"/>
<path d="M14.9951 12.9307C17.653 12.9307 19.8076 10.776 19.8076 8.11816C19.8076 5.46029 17.653 3.30566 14.9951 3.30566C12.3372 3.30566 10.1826 5.46029 10.1826 8.11816C10.1826 10.776 12.3372 12.9307 14.9951 12.9307Z" fill="white"/>
</svg>
