<svg width="74" height="25" viewBox="0 0 74 25" fill="none" xmlns="http://www.w3.org/2000/svg">
<path d="M10.2041 19H7.52344V13.2607C7.52344 12.5518 7.40332 12.0215 7.16309 11.6699C6.92871 11.3125 6.55664 11.1338 6.04688 11.1338C5.36133 11.1338 4.86328 11.3857 4.55273 11.8896C4.24219 12.3936 4.08691 13.2227 4.08691 14.377V19H1.40625V9.17383H3.4541L3.81445 10.4307H3.96387C4.22754 9.97949 4.6084 9.62793 5.10645 9.37598C5.60449 9.11816 6.17578 8.98926 6.82031 8.98926C8.29102 8.98926 9.28711 9.46973 9.80859 10.4307H10.0459C10.3096 9.97363 10.6963 9.61914 11.2061 9.36719C11.7217 9.11523 12.3018 8.98926 12.9463 8.98926C14.0596 8.98926 14.9004 9.27637 15.4688 9.85059C16.043 10.4189 16.3301 11.333 16.3301 12.5928V19H13.6406V13.2607C13.6406 12.5518 13.5205 12.0215 13.2803 11.6699C13.0459 11.3125 12.6738 11.1338 12.1641 11.1338C11.5078 11.1338 11.0156 11.3682 10.6875 11.8369C10.3652 12.3057 10.2041 13.0498 10.2041 14.0693V19ZM25.3301 19L24.8115 17.6641H24.7412C24.29 18.2324 23.8242 18.6279 23.3438 18.8506C22.8691 19.0674 22.248 19.1758 21.4805 19.1758C20.5371 19.1758 19.793 18.9062 19.248 18.3672C18.709 17.8281 18.4395 17.0605 18.4395 16.0645C18.4395 15.0215 18.8027 14.2539 19.5293 13.7617C20.2617 13.2637 21.3633 12.9883 22.834 12.9355L24.5391 12.8828V12.4521C24.5391 11.4561 24.0293 10.958 23.0098 10.958C22.2246 10.958 21.3018 11.1953 20.2412 11.6699L19.3535 9.85938C20.4844 9.26758 21.7383 8.97168 23.1152 8.97168C24.4336 8.97168 25.4443 9.25879 26.1475 9.83301C26.8506 10.4072 27.2021 11.2803 27.2021 12.4521V19H25.3301ZM24.5391 14.4473L23.502 14.4824C22.7227 14.5059 22.1426 14.6465 21.7617 14.9043C21.3809 15.1621 21.1904 15.5547 21.1904 16.082C21.1904 16.8379 21.624 17.2158 22.4912 17.2158C23.1123 17.2158 23.6074 17.0371 23.9766 16.6797C24.3516 16.3223 24.5391 15.8477 24.5391 15.2559V14.4473ZM29.8564 6.63379C29.8564 5.76074 30.3428 5.32422 31.3154 5.32422C32.2881 5.32422 32.7744 5.76074 32.7744 6.63379C32.7744 7.0498 32.6514 7.375 32.4053 7.60938C32.165 7.83789 31.8018 7.95215 31.3154 7.95215C30.3428 7.95215 29.8564 7.5127 29.8564 6.63379ZM32.6514 19H29.9707V9.17383H32.6514V19ZM38.1533 19H35.4727V5.32422H38.1533V19Z" fill="white"/>
<path d="M65.6094 12.5C65.6094 14.4903 63.9903 16.1094 62 16.1094C60.0097 16.1094 58.3906 14.4903 58.3906 12.5C58.3906 10.5097 60.0097 8.89057 62 8.89057C63.9903 8.89057 65.6094 10.5097 65.6094 12.5ZM62 0.5C55.3829 0.5 50 5.88286 50 12.5C50 19.1171 55.3829 24.5 62 24.5C64.424 24.5 66.7614 23.7783 68.7594 22.4129L68.7937 22.3889L67.1771 20.51L67.1497 20.5271C65.612 21.5171 63.8309 22.04 62 22.04C56.7397 22.04 52.46 17.7603 52.46 12.5C52.46 7.23971 56.7397 2.96 62 2.96C67.2603 2.96 71.54 7.23971 71.54 12.5C71.54 13.1814 71.4637 13.8714 71.3154 14.5503C71.0137 15.7889 70.1463 16.1677 69.4957 16.118C68.8409 16.0649 68.0746 15.5986 68.0694 14.4569V13.5869V12.5C68.0694 9.15286 65.3471 6.43057 62 6.43057C58.6529 6.43057 55.9306 9.15286 55.9306 12.5C55.9306 15.8471 58.6529 18.5694 62 18.5694C63.626 18.5694 65.1509 17.9343 66.3003 16.778C66.9689 17.8186 68.0583 18.4709 69.2986 18.5703C69.4049 18.5789 69.5137 18.5831 69.6209 18.5831C70.4943 18.5831 71.3591 18.2909 72.0569 17.762C72.776 17.2151 73.3134 16.4257 73.61 15.4769C73.6571 15.3234 73.7446 14.9729 73.7446 14.9703L73.7471 14.9574C73.922 14.1963 74 13.4377 74 12.5C74 5.88286 68.6171 0.5 62 0.5Z" fill="white"/>
</svg>
