<svg width="132" height="25" viewBox="0 0 132 25" fill="none" xmlns="http://www.w3.org/2000/svg">
<path d="M39.3461 0L43.0763 7.44364L51.4172 8.63729L45.3817 14.4314L46.8065 22.6127L39.3461 18.75L31.8858 22.6127L33.3106 14.4314L27.275 8.63729L35.6159 7.44364L39.3461 0Z" fill="#F7C035"/>
<path d="M12.6923 0L16.4225 7.44364L24.7634 8.63729L18.7279 14.4314L20.1527 22.6127L12.6923 18.75L5.23196 22.6127L6.65676 14.4314L0.621205 8.63729L8.96213 7.44364L12.6923 0Z" fill="#F7C035"/>
<path d="M65.9999 0L69.7301 7.44364L78.071 8.63729L72.0355 14.4314L73.4603 22.6127L65.9999 18.75L58.5396 22.6127L59.9644 14.4314L53.9288 8.63729L62.2697 7.44364L65.9999 0Z" fill="#F7C035"/>
<path d="M92.6537 0L96.3839 7.44364L104.725 8.63729L98.6893 14.4314L100.114 22.6127L92.6537 18.75L85.1934 22.6127L86.6182 14.4314L80.5826 8.63729L88.9236 7.44364L92.6537 0Z" fill="#C4C4C4"/>
<path d="M119.308 0L123.038 7.44364L131.379 8.63729L125.343 14.4314L126.768 22.6127L119.308 18.75L111.847 22.6127L113.272 14.4314L107.236 8.63729L115.577 7.44364L119.308 0Z" fill="#C4C4C4"/>
</svg>
